<?xml version="1.0" encoding="UTF-8"?>
<svg width="38px" height="29px" viewBox="0 0 38 29" version="1.1" xmlns="http://www.w3.org/2000/svg" xmlns:xlink="http://www.w3.org/1999/xlink">
    <!-- Generator: Sketch 43.2 (39069) - http://www.bohemiancoding.com/sketch -->
    <title>check</title>
    <desc>Created with Sketch.</desc>
    <defs></defs>
    <g id="Page-1" stroke="none" stroke-width="1" fill="none" fill-rule="evenodd">
        <path d="M37.9549795,5.80650501 C37.9549795,5.20873452 37.7158713,4.61096403 37.2854766,4.18056928 L34.0336051,0.928697819 C33.6032103,0.498303066 33.0054399,0.25919487 32.4076694,0.25919487 C31.8098989,0.25919487 31.2121284,0.498303066 30.7817336,0.928697819 L15.096236,16.6381063 L8.06645504,9.5844145 C7.63606029,9.15401975 7.0382898,8.91491156 6.44051931,8.91491156 C5.84274882,8.91491156 5.24497833,9.15401975 4.81458358,9.5844145 L1.56271212,12.836286 C1.13231736,13.2666807 0.893209169,13.8644512 0.893209169,14.4622217 C0.893209169,15.0599922 1.13231736,15.6577627 1.56271212,16.0881574 L13.4703003,27.9957456 C13.900695,28.4261403 14.4984655,28.6652485 15.096236,28.6652485 C15.6940065,28.6652485 16.291777,28.4261403 16.7221717,27.9957456 L37.2854766,7.43244074 C37.7158713,7.00204599 37.9549795,6.4042755 37.9549795,5.80650501 Z" id="check" fill="#1CAF5E"></path>
    </g>
</svg>