<?xml version="1.0" encoding="UTF-8"?>
<svg width="272px" height="193px" viewBox="0 0 272 193" version="1.1" xmlns="http://www.w3.org/2000/svg" xmlns:xlink="http://www.w3.org/1999/xlink">
    <!-- Generator: Sketch 43.2 (39069) - http://www.bohemiancoding.com/sketch -->
    <title>happy students</title>
    <desc>Created with Sketch.</desc>
    <defs></defs>
    <g id="Page-1" stroke="none" stroke-width="1" fill="none" fill-rule="evenodd">
        <g id="happy-students">
            <path d="M44.772,60.979 C40.067,61.606 35.744,58.299 35.115,53.595 C34.486,48.886 37.793,44.563 42.501,43.935 L44.772,60.979" id="Fill-9" fill="#F9D3A7"></path>
            <path d="M44.388,58.086 C41.28,58.5 38.421,56.317 38.006,53.208 C37.592,50.098 39.776,47.242 42.887,46.826 L44.388,58.086" id="Fill-10" fill="#E8BC8E"></path>
            <path d="M48.374,21.13 C48.374,21.13 19.834,-15.017 4.115,38.324 C-1.935,58.852 20.919,55.518 20.919,55.518 C20.919,55.518 27.359,19.855 43.916,22.721 C46.73,23.209 45.071,19.271 48.374,21.13" id="Fill-11" fill="#E4A032"></path>
            <path d="M97.815,21.13 C97.815,21.13 126.355,-15.017 142.074,38.324 C148.124,58.852 125.27,55.518 125.27,55.518 C125.27,55.518 118.83,19.855 102.272,22.721 C99.459,23.209 101.118,19.271 97.815,21.13" id="Fill-12" fill="#E4A032"></path>
            <path d="M101.224,60.979 C105.932,61.606 110.255,58.299 110.883,53.595 C111.512,48.886 108.205,44.563 103.499,43.935 L101.224,60.979" id="Fill-13" fill="#F9D3A7"></path>
            <path d="M101.61,58.086 C104.719,58.5 107.577,56.317 107.992,53.208 C108.407,50.098 106.225,47.242 103.112,46.826 L101.61,58.086" id="Fill-14" fill="#E8BC8E"></path>
            <path d="M49.582,70.503 C49.517,70.523 42.411,72.507 35.162,75.265 C31.528,76.653 27.874,78.213 24.896,79.944 C23.402,80.821 22.07,81.723 20.912,82.857 C20.335,83.43 19.791,84.069 19.334,84.884 C18.883,85.691 18.513,86.728 18.513,87.92 C18.511,88.588 18.636,89.283 18.874,89.915 C19.095,90.509 19.408,91.043 19.761,91.5 C20.43,92.361 21.214,92.963 22.038,93.457 C23.489,94.309 25.134,94.877 27.19,95.385 C30.267,96.13 34.28,96.682 39.613,97.07 C44.943,97.456 51.579,97.667 59.8,97.667 C62.589,97.667 65.56,97.642 68.724,97.592 C70.932,97.557 72.695,95.738 72.66,93.529 C72.625,91.32 70.806,89.558 68.597,89.593 C65.472,89.643 62.542,89.667 59.8,89.667 C52.794,89.667 47.003,89.51 42.288,89.229 C38.751,89.019 35.819,88.738 33.447,88.408 C31.668,88.162 30.203,87.886 29.049,87.604 C27.319,87.192 26.283,86.707 26.035,86.523 L25.977,86.482 L25.973,86.478 L25.135,87.46 L26.256,86.866 C26.112,86.596 25.976,86.482 25.973,86.478 L25.135,87.46 L26.256,86.866 L24.268,87.92 L26.513,87.92 C26.519,87.551 26.402,87.128 26.256,86.866 L24.268,87.92 L26.513,87.92 L24.788,87.92 L26.324,88.775 C26.362,88.71 26.512,88.401 26.513,87.92 L24.788,87.92 L26.324,88.775 L26.044,88.62 L26.31,88.798 L26.324,88.775 L26.044,88.62 L26.31,88.798 C26.314,88.79 26.42,88.649 26.632,88.455 C27.026,88.083 27.773,87.536 28.735,86.967 C30.424,85.96 32.764,84.857 35.268,83.827 C39.03,82.274 43.178,80.856 46.36,79.839 C47.953,79.33 49.305,78.919 50.256,78.638 C50.731,78.497 51.105,78.388 51.359,78.315 C51.486,78.279 51.582,78.251 51.646,78.233 L51.737,78.208 C53.864,77.612 55.106,75.405 54.511,73.278 C53.916,71.151 51.709,69.908 49.582,70.503" id="Fill-15" fill="#DDD1CC"></path>
            <path d="M94.14,78.11 L94.204,78.134 C94.907,78.393 101.411,80.833 107.575,83.863 C110.649,85.369 113.647,87.043 115.663,88.525 C116.668,89.255 117.418,89.947 117.767,90.38 C117.854,90.486 117.917,90.573 117.956,90.633 L118.007,90.717 L118.008,90.719 L119.146,90.203 L117.921,90.203 C117.922,90.525 118.002,90.709 118.008,90.719 L119.146,90.203 L117.921,90.203 L119.827,90.203 L118.168,89.257 C118.025,89.492 117.913,89.895 117.921,90.203 L119.827,90.203 L118.168,89.257 L119.361,89.938 L118.325,89.032 C118.286,89.077 118.227,89.153 118.168,89.257 L119.361,89.938 L118.325,89.032 L118.891,89.527 L118.368,88.987 L118.325,89.032 L118.891,89.527 L118.368,88.987 L118.515,89.139 L118.379,88.977 L118.368,88.987 L118.515,89.139 L118.379,88.977 C118.372,88.994 117.974,89.267 117.163,89.538 C115.948,89.959 113.863,90.398 110.931,90.692 C107.994,90.991 104.201,91.165 99.464,91.164 C96.467,91.164 93.09,91.096 89.306,90.949 C87.098,90.864 85.24,92.584 85.154,94.792 C85.069,96.999 86.789,98.858 88.997,98.943 C92.868,99.093 96.345,99.164 99.464,99.164 C103.734,99.164 107.333,99.031 110.37,98.778 C112.648,98.587 114.609,98.33 116.317,97.997 C117.598,97.747 118.736,97.456 119.77,97.102 C121.315,96.561 122.659,95.912 123.844,94.819 C124.429,94.272 124.965,93.592 125.343,92.785 C125.725,91.983 125.925,91.066 125.921,90.203 C125.92,89.096 125.626,88.116 125.241,87.302 C124.876,86.534 124.428,85.885 123.94,85.291 C123.022,84.184 121.95,83.249 120.757,82.344 C118.673,80.773 116.195,79.319 113.599,77.95 C109.711,75.906 105.568,74.087 102.371,72.761 C99.177,71.438 96.935,70.614 96.898,70.601 C94.824,69.839 92.525,70.903 91.764,72.977 C91.003,75.051 92.067,77.349 94.141,78.11" id="Fill-16" fill="#DDD1CC"></path>
            <path d="M102.602,83.327 L102.602,130.147 L43.577,130.147 L43.577,83.327 C43.577,81.876 43.697,80.461 43.912,79.138 C44.982,72.489 48.536,67.611 52.749,67.611 L93.441,67.611 C97.914,67.611 101.651,73.126 102.439,80.412 C102.547,81.354 102.602,82.334 102.602,83.327" id="Fill-17" fill="#ECE0DB"></path>
            <path d="M109.794,37.655 C109.794,57.925 93.364,74.355 73.094,74.355 C52.824,74.355 36.396,57.925 36.396,37.655 C36.396,29.585 39.008,22.106 43.439,16.035 C50.105,6.9 60.915,0.953 73.094,0.953 C85.274,0.953 96.085,6.9 102.751,16.035 C107.185,22.106 109.794,29.585 109.794,37.655" id="Fill-18" fill="#F2B33C"></path>
            <path d="M91.868,27.51 C98.989,35.732 103.371,45.769 103.932,56.63 C97.855,67.384 86.324,74.652 73.088,74.652 C59.853,74.652 48.322,67.374 42.245,56.62 C42.807,45.758 47.199,35.732 54.309,27.51 C59.764,30.928 66.195,32.896 73.088,32.896 C79.982,32.896 86.413,30.928 91.868,27.51" id="Fill-19" fill="#F9D3A7"></path>
            <path d="M59.958,45.812 C59.958,46.999 58.995,47.96 57.81,47.96 C56.624,47.96 55.661,46.999 55.661,45.812 C55.661,44.626 56.624,43.665 57.81,43.665 C58.995,43.665 59.958,44.626 59.958,45.812" id="Fill-20" fill="#0A0A08"></path>
            <path d="M94.315,45.812 C94.315,46.999 93.354,47.96 92.168,47.96 C90.981,47.96 90.021,46.999 90.021,45.812 C90.021,44.626 90.981,43.665 92.168,43.665 C93.354,43.665 94.315,44.626 94.315,45.812" id="Fill-21" fill="#0A0A08"></path>
            <path d="M65.297,64.073 C65.337,64.091 69.687,66.516 75.242,66.521 C78.019,66.522 81.103,65.906 84.058,64.06 C84.292,63.913 84.363,63.605 84.217,63.371 C84.071,63.137 83.762,63.065 83.528,63.212 C80.756,64.943 77.875,65.52 75.242,65.521 C72.612,65.521 70.237,64.939 68.524,64.355 C67.668,64.063 66.977,63.772 66.504,63.554 C66.267,63.445 66.084,63.355 65.962,63.293 L65.824,63.221 L65.782,63.199 C65.541,63.065 65.236,63.151 65.102,63.393 C64.968,63.634 65.055,63.939 65.297,64.073" id="Fill-22" fill="#E6B38D"></path>
            <path d="M79.247,57.459 C79.917,58.967 79.115,60.2 77.465,60.2 L71.869,60.2 C70.219,60.2 69.384,58.952 70.014,57.427 L73.308,49.444 C73.938,47.919 75.001,47.904 75.671,49.412 L79.247,57.459" id="Fill-23" fill="#E8BC8E"></path>
            <path d="M233.079,82.464 L233.079,130.22 L163.488,130.22 L163.488,82.464 C163.488,80.97 163.628,79.541 163.882,78.177 C165.144,71.407 169.334,66.433 174.301,66.433 L222.266,66.433 C227.551,66.433 231.946,72.059 232.888,79.476 C233.016,80.45 233.079,81.438 233.079,82.464" id="Fill-24" fill="#121623"></path>
            <path d="M233.079,128.969 L233.079,140.303 C233.079,148.331 228.239,154.828 222.266,154.828 L174.301,154.828 C168.328,154.828 163.488,148.331 163.488,140.303 L163.488,128.969 L233.079,128.969" id="Fill-25" fill="#10151E"></path>
            <polygon id="Fill-26" fill="#ECE0DB" points="188.346 128.969 208.982 128.969 208.982 72.205 188.346 72.205"></polygon>
            <path d="M201.24,86.862 C201.24,88.285 200.087,89.438 198.664,89.438 C197.241,89.438 196.087,88.285 196.087,86.862 C196.087,85.439 197.241,84.286 198.664,84.286 C200.087,84.286 201.24,85.439 201.24,86.862" id="Fill-27" fill="#110F0E"></path>
            <path d="M200.861,103.883 C200.861,105.306 199.708,106.459 198.284,106.459 C196.861,106.459 195.708,105.306 195.708,103.883 C195.708,102.459 196.861,101.306 198.284,101.306 C199.708,101.306 200.861,102.459 200.861,103.883" id="Fill-28" fill="#110F0E"></path>
            <path d="M200.854,119.846 C200.854,121.269 199.701,122.422 198.277,122.422 C196.854,122.422 195.701,121.269 195.701,119.846 C195.701,118.422 196.854,117.269 198.277,117.269 C199.701,117.269 200.854,118.422 200.854,119.846" id="Fill-29" fill="#110F0E"></path>
            <path d="M176.432,72.205 C176.43,71.769 176.368,71.142 176.01,70.416 C175.081,68.559 172.876,67.72 170.948,68.49 C170.863,68.526 164.566,71.036 158.106,74.576 C154.868,76.357 151.594,78.373 148.919,80.629 C147.581,81.766 146.381,82.96 145.406,84.357 C144.921,85.058 144.491,85.816 144.167,86.669 C143.843,87.519 143.627,88.476 143.627,89.501 C143.62,90.714 143.957,91.998 144.582,93.079 C145.125,94.031 145.851,94.83 146.668,95.499 C148.108,96.668 149.823,97.496 151.906,98.207 C155.032,99.258 159.041,100.021 164.326,100.559 C169.608,101.091 176.157,101.381 184.259,101.382 C186.855,101.382 189.61,101.352 192.533,101.29 C194.742,101.244 196.494,99.415 196.448,97.207 C196.401,94.998 194.573,93.245 192.365,93.292 C189.493,93.352 186.794,93.382 184.259,93.382 C177.372,93.382 171.7,93.165 167.105,92.781 C163.659,92.493 160.82,92.111 158.545,91.667 C156.84,91.335 155.452,90.967 154.378,90.597 C152.759,90.051 151.878,89.466 151.629,89.215 L151.526,89.106 L151.525,89.105 L150.909,89.501 L151.627,89.501 C151.638,89.369 151.551,89.124 151.525,89.105 L150.909,89.501 L151.627,89.501 L151.206,89.501 L151.621,89.583 L151.627,89.501 L151.206,89.501 L151.621,89.583 L151.643,89.514 C151.704,89.325 152.028,88.757 152.662,88.081 C153.761,86.878 155.705,85.372 157.947,83.949 C161.317,81.796 165.355,79.756 168.513,78.287 C170.093,77.551 171.456,76.954 172.418,76.543 C172.899,76.338 173.28,76.18 173.537,76.074 C173.665,76.021 173.763,75.981 173.827,75.955 L173.897,75.927 L173.911,75.921 L173.812,75.673 L173.911,75.922 L173.911,75.921 L173.812,75.673 L173.911,75.922 L172.689,72.855 L173.904,75.924 L173.911,75.922 L172.689,72.855 L173.904,75.924 L172.469,72.299 L173.892,75.929 L173.904,75.924 L172.469,72.299 L173.892,75.929 L172.432,72.205 L168.854,73.994 L172.432,72.205 L168.432,72.205 C168.434,72.641 168.496,73.267 168.854,73.994 L172.432,72.205 L168.432,72.205 C168.432,74.414 170.223,76.205 172.432,76.205 C174.641,76.205 176.432,74.414 176.432,72.205" id="Fill-30" fill="#10161D"></path>
            <path d="M224.308,76.852 C224.308,76.852 224.38,76.883 224.537,76.952 C225.701,77.459 231.166,79.91 236.159,82.881 C238.649,84.356 241.023,85.981 242.579,87.398 C243.356,88.099 243.918,88.748 244.188,89.169 C244.325,89.378 244.389,89.524 244.404,89.568 L244.409,89.583 L245.073,89.399 L244.39,89.399 C244.39,89.511 244.408,89.579 244.409,89.583 L245.073,89.399 L244.39,89.399 L245.652,89.399 L244.526,88.829 C244.445,88.979 244.385,89.235 244.39,89.399 L245.652,89.399 L244.526,88.829 L245.264,89.202 L244.609,88.694 L244.526,88.829 L245.264,89.202 L244.609,88.694 L244.806,88.847 L244.622,88.679 L244.609,88.694 L244.806,88.847 L244.622,88.679 C244.622,88.679 244.551,88.754 244.366,88.873 C244.046,89.083 243.387,89.404 242.382,89.711 C240.875,90.177 238.609,90.617 235.569,90.918 C232.527,91.221 228.704,91.395 224.024,91.394 C221.171,91.394 217.998,91.33 214.484,91.194 C212.276,91.109 210.417,92.829 210.332,95.037 C210.247,97.244 211.967,99.103 214.175,99.188 C217.778,99.328 221.051,99.394 224.024,99.394 C228.701,99.394 232.63,99.23 235.938,98.919 C238.42,98.685 240.552,98.37 242.404,97.964 C243.793,97.658 245.026,97.302 246.14,96.872 C247.803,96.221 249.241,95.42 250.43,94.18 C251.017,93.562 251.526,92.821 251.872,91.99 C252.221,91.162 252.393,90.256 252.39,89.399 C252.39,88.415 252.18,87.508 251.875,86.709 C251.293,85.207 250.416,84.029 249.43,82.936 C247.693,81.044 245.518,79.397 243.177,77.838 C239.672,75.518 235.791,73.467 232.749,71.964 C229.71,70.464 227.516,69.523 227.46,69.499 C225.43,68.629 223.078,69.569 222.208,71.6 C221.337,73.63 222.278,75.982 224.308,76.852" id="Fill-31" fill="#10161D"></path>
            <path d="M170.142,62.015 C165.437,62.643 161.113,59.336 160.484,54.631 C159.855,49.923 163.163,45.6 167.87,44.971 L170.142,62.015" id="Fill-32" fill="#F9D3A7"></path>
            <path d="M169.758,59.123 C166.649,59.537 163.791,57.354 163.375,54.245 C162.961,51.135 165.145,48.278 168.256,47.863 L169.758,59.123" id="Fill-33" fill="#E8BC8E"></path>
            <path d="M226.413,62.015 C231.121,62.643 235.444,59.336 236.072,54.631 C236.701,49.923 233.394,45.6 228.688,44.971 L226.413,62.015" id="Fill-34" fill="#F9D3A7"></path>
            <path d="M226.799,59.123 C229.908,59.537 232.766,57.354 233.181,54.245 C233.596,51.135 231.413,48.278 228.301,47.863 L226.799,59.123" id="Fill-35" fill="#E8BC8E"></path>
            <path d="M234.983,38.692 C234.983,58.962 218.553,75.393 198.283,75.393 C178.013,75.393 161.585,58.962 161.585,38.692 C161.585,30.622 164.197,23.144 168.628,17.071 C175.294,7.937 186.104,1.99 198.283,1.99 C210.463,1.99 221.274,7.937 227.939,17.071 C232.374,23.144 234.983,30.622 234.983,38.692" id="Fill-36" fill="#673225"></path>
            <path d="M217.395,28.123 C224.643,36.493 229.104,46.71 229.675,57.767 C223.49,68.714 211.75,76.112 198.277,76.112 C184.805,76.112 173.065,68.704 166.879,57.757 C167.451,46.698 171.922,36.493 179.16,28.123 C184.713,31.602 191.261,33.607 198.277,33.607 C205.294,33.607 211.841,31.602 217.395,28.123" id="Fill-37" fill="#F9D3A7"></path>
            <path d="M185.146,46.849 C185.146,48.035 184.184,48.997 182.999,48.997 C181.813,48.997 180.85,48.035 180.85,46.849 C180.85,45.663 181.813,44.701 182.999,44.701 C184.184,44.701 185.146,45.663 185.146,46.849" id="Fill-38" fill="#0A0A08"></path>
            <path d="M219.504,46.849 C219.504,48.035 218.543,48.997 217.356,48.997 C216.17,48.997 215.209,48.035 215.209,46.849 C215.209,45.663 216.17,44.701 217.356,44.701 C218.543,44.701 219.504,45.663 219.504,46.849" id="Fill-39" fill="#0A0A08"></path>
            <path d="M190.486,65.109 C190.526,65.128 194.876,67.552 200.431,67.557 C203.208,67.558 206.292,66.942 209.247,65.096 C209.481,64.95 209.552,64.641 209.406,64.407 C209.26,64.173 208.951,64.102 208.717,64.248 C205.945,65.979 203.064,66.556 200.431,66.557 C197.801,66.558 195.426,65.975 193.713,65.391 C192.857,65.099 192.166,64.808 191.693,64.59 C191.456,64.481 191.273,64.391 191.151,64.329 L191.013,64.257 L190.971,64.235 C190.73,64.101 190.425,64.188 190.291,64.429 C190.157,64.67 190.244,64.975 190.486,65.109" id="Fill-40" fill="#E6B38D"></path>
            <path d="M204.435,58.495 C205.105,60.003 204.303,61.236 202.653,61.236 L197.058,61.236 C195.408,61.236 194.573,59.988 195.203,58.463 L198.497,50.48 C199.126,48.955 200.19,48.94 200.86,50.448 L204.435,58.495" id="Fill-41" fill="#E8BC8E"></path>
            <polygon id="Fill-42" fill="#A35D3C" points="9.064 192.786 263.496 192.786 263.496 96.854 9.064 96.854"></polygon>
            <path d="M271.644,96.854 C271.644,99.895 270.176,102.361 268.366,102.361 L4.187,102.361 C2.377,102.361 0.91,99.895 0.91,96.854 C0.91,93.812 2.377,91.344 4.187,91.344 L268.366,91.344 C270.176,91.344 271.644,93.812 271.644,96.854" id="Fill-43" fill="#A66746"></path>
            <polygon id="Fill-44" fill="#10151E" points="176.559 192.786 189.295 192.786 189.295 161.785 176.559 161.785"></polygon>
            <polygon id="Fill-45" fill="#10151E" points="209.729 192.786 222.465 192.786 222.465 161.785 209.729 161.785"></polygon>
            <polygon id="Fill-46" fill="#BA7050" points="9.064 130.414 216.05 130.414 216.05 122.317 9.064 122.317"></polygon>
            <polygon id="Fill-47" fill="#F9D3A7" points="82.783 192.786 95.519 192.786 95.519 161.785 82.783 161.785"></polygon>
            <polygon id="Fill-48" fill="#F9D3A7" points="50.659 192.786 63.396 192.786 63.396 161.785 50.659 161.785"></polygon>
            <polyline id="Fill-49" fill="#110F0E" points="179.096 155.737 172.629 130.089 145.492 130.089 145.492 130.147 140.694 130.147 140.694 130.089 113.557 130.089 107.09 155.737 179.096 155.737"></polyline>
            <polygon id="Fill-50" fill="#BA7050" points="9.064 164.924 263.496 164.924 263.496 114.693 9.064 114.693"></polygon>
        </g>
    </g>
</svg>