<?xml version="1.0" encoding="utf-8"?>
<!-- Generator: Adobe Illustrator 21.0.2, SVG Export Plug-In . SVG Version: 6.00 Build 0)  -->
<svg version="1.1" id="Layer_2" xmlns="http://www.w3.org/2000/svg" xmlns:xlink="http://www.w3.org/1999/xlink" x="0px" y="0px"
	 viewBox="0 0 344.601 568.107" enable-background="new 0 0 344.601 568.107" xml:space="preserve">
<path fill="#573616" d="M137.201,283.307l-12.5-0.3c-4.3-13.7-17.2-23.6-32.3-23.6c-13.5,0-25.2,7.9-30.6,19.4
	c-0.6,1.4-1.2,2.8-1.7,4.2l-12,0.3c-6.1,20.9-7.8,115.2,19.1,264.3h13l7.4-220.8l0,0c1.6,0.2,3.2,0.3,4.8,0.3c1.8,0,3.5-0.1,5.2-0.4
	v0.1l7.4,220.8h13C144.901,398.607,143.301,304.207,137.201,283.307z"/>
<path fill="#02B0A1" d="M178.601,275.807l6.2-0.8l-1.8-13.5l-4.9,0.7c-2.3-52.5-13.6-95.4-28.4-110.1c-2.9-5.3-9.3-9.9-22.4-13
	l1.5-0.9l-19.8-9.9l-1.1,0.5v-9.9c13.4-6.2,23.7-20.1,27.6-37.4c6.7-0.3,7.7-4.8,9-9.6c1.3-4.7,1.6-12.9-4.6-14.4v-0.1
	c0,0,4.6-29.3-12.5-45.5c-12.4-12.6-35-11.9-35-11.9s-22.6-0.7-35.1,11.8c-17,16.1-12.5,45.5-12.5,45.5l0,0
	c-6.4,1.4-6.2,9.7-4.9,14.5s2.3,9.3,9,9.6c3.9,17.4,14.3,31.4,27.8,37.5v9.8l-1.1-0.5l-19.6,9.9l1.5,0.9c-13.1,3.1-19.4,7.7-22.4,13
	l0,0c-14.8,14.6-26,57.5-28.4,110.1l-4.9-0.7l-1.8,13.5l6.7,0.9c-0.8,25.8-0.8,25.9-0.8,25.9c-3.2,15.5-2.5,21.8,12.3,39.5
	c7.8,8.7,14,1.6,9.8-15.8c-4.2-17.5-6.8-24.7-6.8-24.7l3.5-22.4l4.8,0.7l1.8-13.5l-4.3-0.6c4.5-24.9,9.2-41.2,11.9-49.2
	c2.1,16.1,4.7,35.6,7.8,57.6h-1.2v12.4h2.1c-5.6,24.9-6.3,117.9,19.7,262l0,0c-35.7,14.2-30,20.4-30,20.4h43.7l-0.8-20.5l0,0
	l7.4-220.8l0,0c1.6,0.2,3.2,0.3,4.8,0.3c1.8,0,3.5-0.1,5.2-0.4v0.1l7.4,220.8l-0.8,20.5h43.8c0,0,5.7-6.2-29.9-20.5
	c25.9-144.1,25.3-237.1,19.7-262h1.7v-12.4h-1.2c3-22,5.7-41.5,7.8-57.6c2.6,8,7.4,24.2,11.9,49.1l-4.3,0.6l1.8,13.5l5.2-0.7
	l3.5,22.5c0,0-2.7,7.2-6.8,24.7c-4.2,17.5,2.1,24.5,9.8,15.8c14.8-17.7,15.5-24,12.3-39.5
	C179.401,301.707,179.401,301.707,178.601,275.807z"/>
<polygon fill="#6C4925" points="97.101,285.707 87.001,285.707 92.401,327.207 "/>
<g>
	<path fill="#6C4925" d="M137.201,283.307l-12.5-0.3c-4.3-13.7-17.2-23.6-32.3-23.6c-13.5,0-25.2,7.9-30.6,19.4h30.6v48.3
		c1.8,0,3.5-0.1,5.2-0.4v0.1l7.4,220.8h13C144.901,398.607,143.301,304.207,137.201,283.307z"/>
	<path fill="#573616" d="M61.801,278.907c-0.6,1.4-1.2,2.8-1.7,4.2l-12,0.3c-6.1,20.9-7.8,115.2,19.1,264.3h13l7.4-220.8l0,0
		c1.6,0.2,3.2,0.3,4.8,0.3v-48.3H61.801z"/>
</g>
<g>
	<path fill="#4F5253" d="M259.701,548.707h-12.4c0,0-30.9,11.4-28.4,19.4c23.4,0,41.5,0,41.5,0L259.701,548.707z"/>
	<path fill="#EBA388" d="M262.201,400.407l-2.5,148.3h-12.4c0,0-17.1-100.8-19.3-149.8L262.201,400.407z"/>
</g>
<g>
	<path fill="#4F5253" d="M276.001,548.707h12.4c0,0,30.9,11.4,28.4,19.4c-23.4,0-41.5,0-41.5,0L276.001,548.707z"/>
	<path fill="#EBA388" d="M273.501,400.407l2.5,148.3h12.4c0,0,17.1-100.8,19.3-149.8L273.501,400.407z"/>
</g>
<path fill="#EBA388" d="M317.201,235.507c9.6,46.4,11.6,78.3,11.6,78.3c-6.9,17.9-11.6,41.8-3.5,43.6c4.9,0.6,20.7-18.4,19.2-31.4
	s-1.5-10.2-1.5-30.6s-3.6-61.3-6.8-75.4c-10.6,1.8-21.8,4.1-21.8,4.1L317.201,235.507z"/>
<path fill="#EBA388" d="M218.601,235.507c-9.6,46.4-11.6,78.3-11.6,78.3c6.9,17.9,11.6,41.8,3.5,43.6c-4.9,0.6-20.7-18.4-19.2-31.4
	s1.5-10.2,1.5-30.6s3.6-61.3,6.8-75.4c10.6,1.8,21.8,4.1,21.8,4.1L218.601,235.507z"/>
<g>
	<path fill="#62221E" d="M323.501,76.607c0-30.7-24.9-55.6-55.6-55.6v156.3v0.5c27.9-0.2,53.5-0.5,53.5-0.5
		C325.001,141.907,323.501,76.607,323.501,76.607z"/>
	<path fill="#321213" d="M267.901,21.007c-30.7,0-55.6,24.9-55.6,55.6c0,36.3-2,68.9,2.7,101.4c13.7,0,33.9-0.1,53-0.3v-0.5v-156.2
		H267.901z"/>
</g>
<path fill="#FBAE48" d="M305.501,162.507c22.1,6.8,30.7,57.4,30.7,57.4l-21.8,4.1c-1.7-7-4.5-13.7-4.5-13.7l-14.3-33
	L305.501,162.507z"/>
<path fill="#EA9636" d="M230.301,162.507c-22.1,6.8-30.7,57.4-30.7,57.4l21.8,4.1c1.7-7,4.5-13.7,4.5-13.7l14.3-33L230.301,162.507z
	"/>
<path fill="#573616" d="M268.001,310.207h-44.1c-1.6,3-5.9,37.1,0.1,91.4h44V310.207z"/>
<path fill="#6C4925" d="M267.601,310.207h44.1c1.6,3,5.9,37.1-0.1,91.4h-44.1v-91.4H267.601z"/>
<polygon fill="#FBAE48" points="267.801,338.907 262.201,331.107 262.201,185.907 270.501,185.907 273.101,185.907 273.101,331.107 
	"/>
<path fill="#FDC583" d="M267.801,187.307c0,0,32.5-25.7,36.7-24.7s9.1,5,11.7,10.7s-0.6,20-6.3,37c0,0-8.7,25.4-11,37.6
	c-2.3,12.2,2.3,26,7.7,33.4c4.5,6.8,7.3,14.4,7.3,22c0,22.2-23.8,35.8-46,35.8v-151.8H267.801z"/>
<path fill="#FBAE48" d="M267.801,187.307c0,0-32.5-25.7-36.7-24.7s-9.1,5-11.7,10.7c-2.6,5.7,0.6,20,6.3,37c0,0,8.7,25.4,11,37.6
	c2.3,12.2-2.3,26-7.7,33.4c-4.5,6.8-7.3,14.4-7.3,22c0,22.2,23.8,35.8,46,35.8v-151.8H267.801z"/>
<path fill="#D48262" d="M224.001,82.907c-8.5,0-8.3,9.5-6.8,14.7s2.5,10.2,11,9.6C228.201,90.707,224.001,82.907,224.001,82.907z"/>
<path fill="#D48262" d="M311.601,82.907c8.5,0,8.3,9.5,6.8,14.7s-2.5,10.2-11,9.6C307.401,90.707,311.601,82.907,311.601,82.907z"/>
<polygon fill="#D48262" points="279.201,157.607 279.201,139.207 267.801,141.407 256.401,139.207 256.401,157.607 250.601,157.607 
	267.801,187.307 285.001,157.607 "/>
<path fill="#EBA388" d="M267.901,31.607C267.901,31.607,267.801,31.607,267.901,31.607c-23.5,0-42.5,25-42.5,55.8s19,55.8,42.4,55.8
	h0.1c23.4-0.1,42.3-25,42.3-55.8C310.201,56.607,291.301,31.607,267.901,31.607z"/>
<polygon fill="#C77257" points="273.401,113.807 262.501,113.807 267.901,93.607 "/>
<circle fill="#101517" cx="286.001" cy="98.107" r="4"/>
<circle fill="#101517" cx="248.901" cy="98.107" r="4"/>
<polygon fill="#823434" points="279.401,124.007 274.201,129.307 267.701,130.707 261.201,129.307 256.001,124.007 "/>
<polygon fill="#994943" points="279.401,124.007 267.701,125.707 256.001,124.007 263.001,120.507 267.701,122.507 272.401,120.507 
	"/>
<path fill="#FEDAB4" d="M302.101,90.607c-4.7-1.3-16.4-3.6-29.8,0.1c-0.4,0.1-0.8,0.1-1.2,0.1c-1-0.1-2.1-0.2-3.3-0.3v5.7
	c2,0,3.7,1.7,3.7,3.7c0,4.2,1.3,15.3,14.4,15.3c14,0,13.4-10.4,13.4-15.4c0-1.8,1-2.8,2.8-3.3c1.2-0.3,2-1.5,2-2.7v-0.3
	C304.201,92.007,303.301,90.907,302.101,90.607z M285.901,112.407c-11.9,0-13.4-13.3-12-17.1c2.3-4.5,7.9-3.7,12.2-3.7
	s10.7,0.3,10.7,8.5C296.701,109.207,292.601,112.407,285.901,112.407z"/>
<path fill="#62221E" d="M271.601,25.707c0,0-19.2,1.8-20.9,9.7s7.4,41.2,7.4,41.2c27.2,7.6,52.1,9.6,52.1,9.6
	S320.401,25.707,271.601,25.707z"/>
<path fill="#FEDAB4" d="M231.601,93.307v0.3c0,1.3,0.8,2.4,2,2.7c1.8,0.4,2.8,1.5,2.8,3.3c0,5-0.6,15.4,13.4,15.4
	c13.1,0,14.4-11,14.4-15.3c0-2,1.7-3.7,3.7-3.7v-5.7c-1.1,0-2.3,0.1-3.3,0.3c-0.4,0.1-0.8,0-1.2-0.1c-13.4-3.7-25.1-1.4-29.8-0.1
	C232.501,90.907,231.601,92.007,231.601,93.307z M239.101,100.107c0-8.1,6.4-8.5,10.7-8.5s9.9-0.8,12.2,3.7
	c1.4,3.8-0.1,17.1-12,17.1C243.201,112.407,239.101,109.207,239.101,100.107z"/>
<path fill="#321213" d="M309.701,87.307c-25.9-1.6-81.9-14.6-82.6-15.6c0-26.3,22.5-50.7,40.8-50.7v55.5l42.4,9.8L309.701,87.307z"
	/>
<polygon fill="#6C4925" points="236.401,258.807 299.501,258.807 303.101,271.707 233.301,271.707 "/>
<path fill="#FDC583" d="M229.701,161.607c4.5,13.1,20,28,38.1,25.7l-17.4-30.2C245.701,155.307,235.101,158.007,229.701,161.607z"/>
<path fill="#FEDAB4" d="M305.901,161.607c-4.5,13.1-20,28-38.1,25.7l17.4-30.2C289.901,155.307,300.501,158.007,305.901,161.607z"/>
<circle fill="#FEDAB4" cx="267.801" cy="265.107" r="10.2"/>
<path fill="#FDC583" d="M257.601,265.107c0,5.6,4.5,10.2,10.2,10.2v-20.3C262.201,254.907,257.601,259.507,257.601,265.107z"/>
<path fill="#FEDAB4" d="M267.801,254.907v20.3c5.6,0,10.2-4.5,10.2-10.2S273.401,254.907,267.801,254.907z"/>
<rect x="313.002" y="221.7" transform="matrix(0.983 -0.1835 0.1835 0.983 -36.205 63.9534)" fill="#FDC583" width="28.899" height="11.8"/>
<rect x="203.469" y="213.087" transform="matrix(0.1835 -0.983 0.983 0.1835 -52.7233 391.5966)" fill="#FBAE48" width="11.8" height="28.899"/>
<path fill="#F0BBA6" d="M6.701,274.707c-0.8,27-0.8,27-0.8,27c-3.2,15.5-2.5,21.8,12.3,39.5c7.8,8.7,14,1.6,9.8-15.8
	s-6.8-24.7-6.8-24.7l4-26C9.901,273.707,6.701,274.707,6.701,274.707z"/>
<path fill="#F0BBA6" d="M178.601,274.707c0.8,27,0.8,27,0.8,27c3.2,15.5,2.5,21.8-12.3,39.5c-7.8,8.7-14,1.6-9.8-15.8
	s6.8-24.7,6.8-24.7l-4-26C175.401,273.707,178.601,274.707,178.601,274.707z"/>
<path fill="#139686" d="M157.801,264.807c-6.6-36.9-13.9-54.9-13.9-54.9v-59.4l5.8,1.4c14.9,14.6,26.2,57.8,28.4,110.6
	C165.601,269.807,157.801,264.807,157.801,264.807z"/>
<rect x="154.294" y="263.41" transform="matrix(0.9909 -0.1345 0.1345 0.9909 -34.8063 25.2122)" fill="#02B0A1" width="29.8" height="13.6"/>
<path fill="#139686" d="M27.001,264.807c6.6-36.9,13.9-54.9,13.9-54.9v-59.4l-5.8,1.4c-14.8,14.7-26.1,57.9-28.4,110.7
	C19.301,269.807,27.001,264.807,27.001,264.807z"/>
<rect x="72.601" y="207.907" fill="#02B0A1" width="27.1" height="67.1"/>
<path fill="#4DC0B1" d="M92.401,135.707v138.2h45.7c7-51,12-89,13-101s6-27-24-34C112.101,135.007,92.401,135.707,92.401,135.707z"
	/>
<path fill="#02B0A1" d="M92.401,135.707v138.2h-45.6c-7-51-12-89-13-101s-6-27,24-34C72.801,135.007,92.401,135.707,92.401,135.707z
	"/>
<polygon fill="#DB957B" points="92.401,119.307 76.901,117.507 76.901,128.707 92.401,136.207 108.001,128.707 108.001,117.507 "/>
<g>
	<path fill="#D48262" d="M46.901,57.107c-8.5,0-8.3,9.5-6.8,14.7s2.5,10.2,11,9.6C51.001,65.007,46.901,57.107,46.901,57.107z"/>
	<path fill="#D48262" d="M137.801,57.107c8.5,0,8.3,9.5,6.8,14.7s-2.5,10.2-11,9.6C133.601,65.007,137.801,57.107,137.801,57.107z"
		/>
</g>
<g>
	<g>
		<path fill="#F0BBA6" d="M92.401,10.807h-0.1c-24.8,0-47.4,25-44.9,55.8c0,30.8,20.1,55.8,44.9,55.8h0.1
			c24.7-0.1,45.1-25,45.1-55.8S117.201,10.907,92.401,10.807z"/>
		<path fill="#CD866E" d="M92.401,88.507L92.401,88.507c-3.2,0-5.8-2.6-5.8-5.8v-18.3h11.6v18.2
			C98.201,85.907,95.601,88.507,92.401,88.507z"/>
		<polygon fill="#C82F30" points="106.601,97.807 100.201,103.107 92.401,104.407 84.601,103.007 78.301,97.707 		"/>
	</g>
	<g>
		<circle fill="#101517" cx="69.801" cy="68.307" r="4"/>
		<circle fill="#101517" cx="114.901" cy="68.307" r="4"/>
	</g>
</g>
<path d="M127.501,11.807c-12.5-12.5-35.1-11.8-35.1-11.8s-22.6-0.7-35.1,11.8c-17,16.1-12.5,45.5-12.5,45.5l2.6,7.8
	c0.9-15.9,3.6-25.3,11.6-28.3s26,7.2,33.4,7.2s25.4-10.2,33.4-7.2s10.7,12.4,11.6,28.3l2.6-7.8
	C140.001,57.307,144.601,28.007,127.501,11.807z"/>
<polygon fill="#139686" points="92.401,136.207 80.201,152.407 56.001,138.107 75.801,128.207 "/>
<polygon fill="#2CBAA0" points="92.401,136.207 104.701,152.407 128.901,138.107 109.101,128.207 "/>
<rect x="45.401" y="273.307" fill="#3A1E11" width="47" height="12.4"/>
<rect x="92.401" y="273.307" fill="#573616" width="47" height="12.4"/>
<path fill="#3A1E11" d="M80.201,547.607l0.8,20.5h-43.7c0,0-5.7-6.2,29.9-20.5C74.401,547.607,80.201,547.607,80.201,547.607z"/>
<path fill="#3A1E11" d="M105.101,547.607l-0.8,20.5h43.7c0,0,5.7-6.2-29.9-20.5C110.901,547.607,105.101,547.607,105.101,547.607z"
	/>
<rect x="8.879" y="255.337" transform="matrix(0.1345 -0.9909 0.9909 0.1345 -254.2114 249.4263)" fill="#02B0A1" width="13.6" height="29.8"/>
</svg>
