<?xml version="1.0" encoding="UTF-8"?>
<svg width="861px" height="354px" viewBox="0 0 861 354" version="1.1" xmlns="http://www.w3.org/2000/svg" xmlns:xlink="http://www.w3.org/1999/xlink">
    <!-- Generator: Sketch 43.2 (39069) - http://www.bohemiancoding.com/sketch -->
    <title>Untitled 8</title>
    <desc>Created with Sketch.</desc>
    <defs>
        <polygon id="path-1" points="47.0297 96.3622 0.268 96.3622 0.268 0.93891 47.03178 0.93891 47.03178 96.3622 0.266 96.3643 0.266 0.9389 47.0297 0.9389 47.0297 96.3622"></polygon>
        <polygon id="path-3" points="43.74633 86.5353 0.9271 86.5353 0.9271 0.35683 86.56556 0.35683 86.56556 86.5353 43.74633 86.5353 86.5656 86.5353 86.5656 0.3589 0.9271 0.3589 0.9271 86.5353 43.74633 86.5353"></polygon>
    </defs>
    <g id="Page-1" stroke="none" stroke-width="1" fill="none" fill-rule="evenodd">
        <g id="Group-101" transform="translate(0.000000, 162.122100)">
            <polygon id="Fill-1" fill="#906A29" points="15.13544 192.16365 19.407677 192.16365 19.407677 168.40421 15.13544 168.40421"></polygon>
            <path d="M34.12268,130.57302 C34.12268,121.2602 26.5798,113.7122 17.27074,113.7122 C7.96167,113.7122 0.41879,121.2602 0.41879,130.57302 L0.41879,155.76949 C0.41879,165.08234 7.96167,172.63036 17.27074,172.63036 C26.5798,172.63036 34.12268,165.08234 34.12268,155.76949 L34.12268,130.57302 Z" id="Fill-3" fill="#007A4C"></path>
            <path d="M0.41776,130.57302 L0.41776,155.76949 C0.41776,165.08234 7.96064,172.63036 17.27177,172.63036 L17.27177,113.7122 C7.96064,113.7122 0.41776,121.2602 0.41776,130.57302" id="Fill-4" fill="#2C9A42"></path>
            <polygon id="Fill-5" fill="#C23C33" points="33.49575 79.6317 89.9664 44.6255 146.437 79.6317"></polygon>
            <polygon id="Fill-6" fill="#C94F48" points="33.49575 79.6317 89.9664 44.6255 62.92535 79.6317"></polygon>
            <polygon id="Fill-7" fill="#F4DFA4" points="33.49596 137.59158 146.43716 137.59158 146.43716 86.4688 33.49596 86.4688"></polygon>
            <polygon id="Fill-8" fill="#F4DFA4" points="33.49596 192.16571 146.43716 192.16571 146.43716 143.18919 33.49596 143.18919"></polygon>
            <polygon id="Fill-9" fill="#F8EAC5" points="33.49596 192.16571 45.12559 192.16571 45.12559 143.18919 33.49596 143.18919"></polygon>
            <polygon id="Fill-10" fill="#F8EAC5" points="33.49596 137.59158 45.12559 137.59158 45.12559 86.4688 33.49596 86.4688"></polygon>
            <polygon id="Fill-11" fill="#FFB81D" points="42.97402 107.6572 67.59554 107.6572 67.59554 98.468046 42.97402 98.468046"></polygon>
            <polygon id="Fill-12" fill="#FF8400" points="67.59616 107.6562 42.97464 107.6562 67.59616 98.4671"></polygon>
            <polygon id="Fill-13" fill="#FFB81D" points="78.3967 107.6572 103.01616 107.6572 103.01616 98.468046 78.3967 98.468046"></polygon>
            <polygon id="Fill-14" fill="#FF8400" points="103.0168 107.6562 78.39731 107.6562 103.0168 98.4671"></polygon>
            <polygon id="Fill-15" fill="#FFB81D" points="113.8152 107.6572 138.43466 107.6572 138.43466 98.468046 113.8152 98.468046"></polygon>
            <polygon id="Fill-16" fill="#FF8400" points="138.4355 107.6562 113.8161 107.6562 138.4355 98.4671"></polygon>
            <polygon id="Fill-17" fill="#FFB81D" points="42.97402 128.01688 67.59554 128.01688 67.59554 118.827726 42.97402 118.827726"></polygon>
            <polygon id="Fill-18" fill="#FF8400" points="67.59616 128.01585 42.97464 128.01585 67.59616 118.8267"></polygon>
            <polygon id="Fill-19" fill="#FFB81D" points="78.3967 128.01688 103.01616 128.01688 103.01616 118.827726 78.3967 118.827726"></polygon>
            <polygon id="Fill-20" fill="#FF8400" points="103.0168 128.01585 78.39731 128.01585 103.0168 118.8267"></polygon>
            <polygon id="Fill-21" fill="#FFB81D" points="113.8152 128.01688 138.43466 128.01688 138.43466 118.827726 113.8152 118.827726"></polygon>
            <polygon id="Fill-22" fill="#FF8400" points="138.4355 128.01585 113.8161 128.01585 138.4355 118.8267"></polygon>
            <polygon id="Fill-23" fill="#72253D" points="31.51132 86.4688 148.42182 86.4688 148.42182 78.547614 31.51132 78.547614"></polygon>
            <polygon id="Fill-24" fill="#72253D" points="31.51132 144.16233 148.42182 144.16233 148.42182 136.241144 31.51132 136.241144"></polygon>
            <polygon id="Fill-25" fill="#906A29" points="82.66069 192.16571 97.27038 192.16571 97.27038 172.99157 82.66069 172.99157"></polygon>
            <polygon id="Fill-26" fill="#6C5D36" points="97.271 172.99157 82.66131 192.16571 97.271 192.16571"></polygon>
            <path d="M95.7544,182.5774 C95.7544,182.10527 95.3711,181.72385 94.9012,181.72385 C94.4292,181.72385 94.0459,182.10527 94.0459,182.5774 C94.0459,183.04954 94.4292,183.43096 94.9012,183.43096 C95.3711,183.43096 95.7544,183.04954 95.7544,182.5774" id="Fill-27" fill="#FFA500"></path>
            <polygon id="Fill-28" fill="#FFB81D" points="53.02707 164.37764 77.64859 164.37764 77.64859 155.188486 53.02707 155.188486"></polygon>
            <polygon id="Fill-29" fill="#FF8400" points="77.64818 164.37826 53.02666 164.37826 77.64818 155.18911"></polygon>
            <polygon id="Fill-30" fill="#FFB81D" points="100.4277 164.37764 125.04922 164.37764 125.04922 155.188486 100.4277 155.188486"></polygon>
            <polygon id="Fill-31" fill="#FF8400" points="125.0488 164.37826 100.4273 164.37826 125.0488 155.18911"></polygon>
            <path d="M97.0344,63.1801 C97.0344,59.2731 93.8709,56.1083 89.9676,56.1083 C86.06632,56.1083 82.90078,59.2731 82.90078,63.1801 C82.90078,67.087 86.06632,70.2497 89.9676,70.2497 C93.8709,70.2497 97.0344,67.087 97.0344,63.1801" id="Fill-32" fill="#FFB81D"></path>
            <path d="M94.9655,58.1808 L84.97013,68.1781 C86.24994,69.4584 88.0161,70.2502 89.9678,70.2502 C93.8711,70.2502 97.0346,67.0854 97.0346,63.1805 C97.0346,61.228 96.2453,59.4611 94.9655,58.1808" id="Fill-33" fill="#FF8400"></path>
            <polygon id="Fill-34" fill="#D1555A" points="285.5373 192.16365 447.8122 192.16365 447.8122 44.09605 285.5373 44.09605"></polygon>
            <polygon id="Fill-35" fill="#DA777B" points="285.5353 192.16365 297.15875 192.16365 297.15875 44.09605 285.5353 44.09605"></polygon>
            <polygon id="Fill-36" fill="#DB797C" points="285.5373 158.21924 447.8122 158.21924 447.8122 104.58939 285.5373 104.58939"></polygon>
            <polygon id="Fill-37" fill="#E29698" points="285.5353 158.21924 297.15875 158.21924 297.15875 104.58939 285.5353 104.58939"></polygon>
            <polygon id="Fill-38" fill="#FFB81D" points="302.8633 72.317 313.38211 72.317 313.38211 54.76545 302.8633 54.76545"></polygon>
            <polygon id="Fill-39" fill="#FF8400" points="313.3821 72.3168 302.8633 72.3168 313.3821 54.7653"></polygon>
            <polygon id="Fill-40" fill="#FFB81D" points="322.483 72.317 333.01006 72.317 333.01006 54.76545 322.483 54.76545"></polygon>
            <polygon id="Fill-41" fill="#FF8400" points="333.0121 72.3168 322.4851 72.3168 333.0121 54.7653"></polygon>
            <polygon id="Fill-42" fill="#FFB81D" points="342.113 72.317 352.63593 72.317 352.63593 54.76545 342.113 54.76545"></polygon>
            <polygon id="Fill-43" fill="#FF8400" points="352.636 72.3168 342.113 72.3168 352.636 54.7653"></polygon>
            <polygon id="Fill-44" fill="#FFB81D" points="361.7369 72.317 372.25983 72.317 372.25983 54.76545 361.7369 54.76545"></polygon>
            <polygon id="Fill-45" fill="#FF8400" points="372.2598 72.3168 361.7369 72.3168 372.2598 54.7653"></polygon>
            <polygon id="Fill-46" fill="#FFB81D" points="383.5432 72.317 394.06201 72.317 394.06201 54.76545 383.5432 54.76545"></polygon>
            <polygon id="Fill-47" fill="#FF8400" points="394.0641 72.3168 383.5453 72.3168 394.0641 54.7653"></polygon>
            <polygon id="Fill-48" fill="#FFB81D" points="403.165 72.317 413.69206 72.317 413.69206 54.76545 403.165 54.76545"></polygon>
            <polygon id="Fill-49" fill="#FF8400" points="413.6921 72.3168 403.165 72.3168 413.6921 54.7653"></polygon>
            <polygon id="Fill-50" fill="#FFB81D" points="422.795 72.317 433.31381 72.317 433.31381 54.76545 422.795 54.76545"></polygon>
            <polygon id="Fill-51" fill="#FF8400" points="433.3138 72.3168 422.795 72.3168 433.3138 54.7653"></polygon>
            <polygon id="Fill-52" fill="#FFB81D" points="302.8633 97.6104 313.38211 97.6104 313.38211 80.06091 302.8633 80.06091"></polygon>
            <polygon id="Fill-53" fill="#FF8400" points="313.3821 97.6114 302.8633 97.6114 313.3821 80.062"></polygon>
            <polygon id="Fill-54" fill="#FFB81D" points="322.483 97.6104 333.01006 97.6104 333.01006 80.06091 322.483 80.06091"></polygon>
            <polygon id="Fill-55" fill="#FF8400" points="333.0121 97.6114 322.4851 97.6114 333.0121 80.062"></polygon>
            <polygon id="Fill-56" fill="#FFB81D" points="342.113 97.6104 352.63593 97.6104 352.63593 80.06091 342.113 80.06091"></polygon>
            <polygon id="Fill-57" fill="#FF8400" points="352.636 97.6114 342.113 97.6114 352.636 80.062"></polygon>
            <polygon id="Fill-58" fill="#FFB81D" points="361.7369 97.6104 372.25983 97.6104 372.25983 80.06091 361.7369 80.06091"></polygon>
            <polygon id="Fill-59" fill="#FF8400" points="372.2598 97.6114 361.7369 97.6114 372.2598 80.062"></polygon>
            <polygon id="Fill-60" fill="#FFB81D" points="383.5432 97.6104 394.06201 97.6104 394.06201 80.06091 383.5432 80.06091"></polygon>
            <polygon id="Fill-61" fill="#FF8400" points="394.0641 97.6114 383.5453 97.6114 394.0641 80.062"></polygon>
            <polygon id="Fill-62" fill="#FFB81D" points="403.165 97.6104 413.69206 97.6104 413.69206 80.06091 403.165 80.06091"></polygon>
            <polygon id="Fill-63" fill="#FF8400" points="413.6921 97.6114 403.165 97.6114 413.6921 80.062"></polygon>
            <polygon id="Fill-64" fill="#FFB81D" points="422.795 97.6104 433.31381 97.6104 433.31381 80.06091 422.795 80.06091"></polygon>
            <polygon id="Fill-65" fill="#FF8400" points="433.3138 97.6114 422.795 97.6114 433.3138 80.062"></polygon>
            <polygon id="Fill-66" fill="#FFB81D" points="302.8633 128.46015 313.38211 128.46015 313.38211 110.91066 302.8633 110.91066"></polygon>
            <polygon id="Fill-67" fill="#FF8400" points="313.3821 128.46098 302.8633 128.46098 313.3821 110.9115"></polygon>
            <polygon id="Fill-68" fill="#FFB81D" points="322.483 128.46015 333.01006 128.46015 333.01006 110.91066 322.483 110.91066"></polygon>
            <polygon id="Fill-69" fill="#FF8400" points="333.0121 128.46098 322.4851 128.46098 333.0121 110.9115"></polygon>
            <polygon id="Fill-70" fill="#FFB81D" points="342.113 128.46015 352.63593 128.46015 352.63593 110.91066 342.113 110.91066"></polygon>
            <polygon id="Fill-71" fill="#FF8400" points="352.636 128.46098 342.113 128.46098 352.636 110.9115"></polygon>
            <polygon id="Fill-72" fill="#FFB81D" points="361.7369 128.46015 372.25983 128.46015 372.25983 110.91066 361.7369 110.91066"></polygon>
            <polygon id="Fill-73" fill="#FF8400" points="372.2598 128.46098 361.7369 128.46098 372.2598 110.9115"></polygon>
            <polygon id="Fill-74" fill="#FFB81D" points="383.5432 128.46015 394.06201 128.46015 394.06201 110.91066 383.5432 110.91066"></polygon>
            <polygon id="Fill-75" fill="#FF8400" points="394.0641 128.46098 383.5453 128.46098 394.0641 110.9115"></polygon>
            <polygon id="Fill-76" fill="#FFB81D" points="403.165 128.46015 413.69206 128.46015 413.69206 110.91066 403.165 110.91066"></polygon>
            <polygon id="Fill-77" fill="#FF8400" points="413.6921 128.46098 403.165 128.46098 413.6921 110.9115"></polygon>
            <polygon id="Fill-78" fill="#FFB81D" points="422.795 128.46015 433.31381 128.46015 433.31381 110.91066 422.795 110.91066"></polygon>
            <polygon id="Fill-79" fill="#FF8400" points="433.3138 128.46098 422.795 128.46098 433.3138 110.9115"></polygon>
            <polygon id="Fill-80" fill="#FFB81D" points="302.8633 153.75558 313.38211 153.75558 313.38211 136.20815 302.8633 136.20815"></polygon>
            <polygon id="Fill-81" fill="#FF8400" points="313.3821 153.75538 302.8633 153.75538 313.3821 136.20795"></polygon>
            <polygon id="Fill-82" fill="#FFB81D" points="322.483 153.75558 333.01006 153.75558 333.01006 136.20815 322.483 136.20815"></polygon>
            <polygon id="Fill-83" fill="#FF8400" points="333.0121 153.75538 322.4851 153.75538 333.0121 136.20795"></polygon>
            <polygon id="Fill-84" fill="#FFB81D" points="342.113 153.75558 352.63593 153.75558 352.63593 136.20815 342.113 136.20815"></polygon>
            <polygon id="Fill-85" fill="#FF8400" points="352.636 153.75538 342.113 153.75538 352.636 136.20795"></polygon>
            <polygon id="Fill-86" fill="#FFB81D" points="361.7369 153.75558 372.25983 153.75558 372.25983 136.20815 361.7369 136.20815"></polygon>
            <polygon id="Fill-87" fill="#FF8400" points="372.2598 153.75538 361.7369 153.75538 372.2598 136.20795"></polygon>
            <polygon id="Fill-88" fill="#FFB81D" points="383.5432 153.75558 394.06201 153.75558 394.06201 136.20815 383.5432 136.20815"></polygon>
            <polygon id="Fill-89" fill="#FF8400" points="394.0641 153.75538 383.5453 153.75538 394.0641 136.20795"></polygon>
            <polygon id="Fill-90" fill="#FFB81D" points="403.165 153.75558 413.69206 153.75558 413.69206 136.20815 403.165 136.20815"></polygon>
            <polygon id="Fill-91" fill="#FF8400" points="413.6921 153.75538 403.165 153.75538 413.6921 136.20795"></polygon>
            <polygon id="Fill-92" fill="#FFB81D" points="422.795 153.75558 433.31381 153.75558 433.31381 136.20815 422.795 136.20815"></polygon>
            <polygon id="Fill-93" fill="#FF8400" points="433.3138 153.75538 422.795 153.75538 433.3138 136.20795"></polygon>
            <polygon id="Fill-94" fill="#72253D" points="282.685 44.0981 450.6624 44.0981 450.6624 32.71526 282.685 32.71526"></polygon>
            <polygon id="Fill-95" fill="#A8353A" points="447.8123 32.715 416.0188 0.5192 317.3266 0.5192 285.5373 32.715"></polygon>
            <polygon id="Fill-96" fill="#B1494E" points="318.7816 32.715 336.495 0.5192 317.3246 0.5192 285.5353 32.715"></polygon>
            <path d="M442.4745,27.311 L290.875,27.311 L288.8822,29.3315 L444.4674,29.3315 L442.4745,27.311 Z M434.4515,19.1903 L298.8981,19.1903 L296.9032,21.2083 L436.4485,21.2083 L434.4515,19.1903 Z M426.4366,11.065 L306.9171,11.065 L304.918,13.0855 L428.4295,13.0855 L426.4366,11.065 Z M418.4115,2.9458 L314.9319,2.9458 L312.9369,4.9602 L420.4085,4.9602 L418.4115,2.9458 Z" id="Fill-97" fill="#6F3332"></path>
            <polygon id="Fill-98" fill="#7C868D" points="390.1072 192.16571 411.71981 192.16571 411.71981 160.45829 390.1072 160.45829"></polygon>
            <polygon id="Fill-99" fill="#5B6770" points="411.7198 160.45808 390.1072 192.1655 411.7198 192.1655"></polygon>
            <path d="M409.086,175.55658 C409.086,174.74013 408.4244,174.07625 407.6021,174.07625 C406.7942,174.07625 406.1265,174.74013 406.1265,175.55658 C406.1265,176.37302 406.7942,177.03484 407.6021,177.03484 C408.4244,177.03484 409.086,176.37302 409.086,175.55658" id="Fill-100" fill="#FFA500"></path>
        </g>
        <g id="Group-107" transform="translate(527.000000, 0.122100)">
            <mask id="mask-2" fill="white">
                <use xlink:href="#path-1"></use>
            </mask>
            <g id="Clip-106"></g>
            <polygon id="Fill-105" fill="#86339A" mask="url(#mask-2)" points="5.4244 96.3643 47.0297 4.7057 19.0036 0.9389 0.266 93.482"></polygon>
        </g>
        <g id="Group-113" transform="translate(395.000000, 12.122100)">
            <mask id="mask-4" fill="white">
                <use xlink:href="#path-3"></use>
            </mask>
            <g id="Clip-112"></g>
            <polygon id="Fill-111" fill="#F54D80" mask="url(#mask-4)" points="77.24 86.5353 0.9271 13.2056 38.5447 0.3589 86.5656 86.5353"></polygon>
        </g>
        <g id="Group-318" transform="translate(101.000000, 67.122100)">
            <polygon id="Fill-114" fill="#F4DFA4" points="364.2103 287.16571 493.8716 287.16571 493.8716 61.66961 364.2103 61.66961"></polygon>
            <polygon id="Fill-116" fill="#FFB81D" points="374.7271 97.0201 386.40207 97.0201 386.40207 77.54907 374.7271 77.54907"></polygon>
            <polygon id="Fill-117" fill="#FF8400" points="386.4021 97.0201 374.7271 97.0201 386.4021 77.5491"></polygon>
            <polygon id="Fill-118" fill="#FFB81D" points="407.044 97.0201 418.71897 97.0201 418.71897 77.54907 407.044 77.54907"></polygon>
            <polygon id="Fill-119" fill="#FF8400" points="418.719 97.0201 407.044 97.0201 418.719 77.5491"></polygon>
            <polygon id="Fill-120" fill="#FFB81D" points="439.3609 97.0201 451.03587 97.0201 451.03587 77.54907 439.3609 77.54907"></polygon>
            <polygon id="Fill-121" fill="#FF8400" points="451.0359 97.0201 439.3609 97.0201 451.0359 77.5491"></polygon>
            <polygon id="Fill-122" fill="#FFB81D" points="471.6778 97.0201 483.35277 97.0201 483.35277 77.54907 471.6778 77.54907"></polygon>
            <polygon id="Fill-123" fill="#FF8400" points="483.3548 97.0201 471.6799 97.0201 483.3548 77.5491"></polygon>
            <polygon id="Fill-124" fill="#FFB81D" points="374.7271 126.6534 386.40207 126.6534 386.40207 107.18443 374.7271 107.18443"></polygon>
            <polygon id="Fill-125" fill="#FF8400" points="386.4021 126.6541 374.7271 126.6541 386.4021 107.1845"></polygon>
            <polygon id="Fill-126" fill="#FFB81D" points="407.044 126.6534 418.71897 126.6534 418.71897 107.18443 407.044 107.18443"></polygon>
            <polygon id="Fill-127" fill="#FF8400" points="418.719 126.6541 407.044 126.6541 418.719 107.1845"></polygon>
            <polygon id="Fill-128" fill="#FFB81D" points="439.3609 126.6534 451.03587 126.6534 451.03587 107.18443 439.3609 107.18443"></polygon>
            <polygon id="Fill-129" fill="#FF8400" points="451.0359 126.6541 439.3609 126.6541 451.0359 107.1845"></polygon>
            <polygon id="Fill-130" fill="#FFB81D" points="471.6778 126.6534 483.35277 126.6534 483.35277 107.18443 471.6778 107.18443"></polygon>
            <polygon id="Fill-131" fill="#FF8400" points="483.3548 126.6541 471.6799 126.6541 483.3548 107.1845"></polygon>
            <polygon id="Fill-132" fill="#FFB81D" points="374.7271 156.2888 386.40207 156.2888 386.40207 136.81777 374.7271 136.81777"></polygon>
            <polygon id="Fill-133" fill="#FF8400" points="386.4021 156.2894 374.7271 156.2894 386.4021 136.8184"></polygon>
            <polygon id="Fill-134" fill="#FFB81D" points="407.044 156.2888 418.71897 156.2888 418.71897 136.81777 407.044 136.81777"></polygon>
            <polygon id="Fill-135" fill="#FF8400" points="418.719 156.2894 407.044 156.2894 418.719 136.8184"></polygon>
            <polygon id="Fill-136" fill="#FFB81D" points="439.3609 156.2888 451.03587 156.2888 451.03587 136.81777 439.3609 136.81777"></polygon>
            <polygon id="Fill-137" fill="#FF8400" points="451.0359 156.2894 439.3609 156.2894 451.0359 136.8184"></polygon>
            <polygon id="Fill-138" fill="#FFB81D" points="471.6778 156.2888 483.35277 156.2888 483.35277 136.81777 471.6778 136.81777"></polygon>
            <polygon id="Fill-139" fill="#FF8400" points="483.3548 156.2894 471.6799 156.2894 483.3548 136.8184"></polygon>
            <polygon id="Fill-140" fill="#FFB81D" points="374.7271 185.9221 386.40207 185.9221 386.40207 166.45313 374.7271 166.45313"></polygon>
            <polygon id="Fill-141" fill="#FF8400" points="386.4021 185.9228 374.7271 185.9228 386.4021 166.4538"></polygon>
            <polygon id="Fill-142" fill="#FFB81D" points="407.044 185.9221 418.71897 185.9221 418.71897 166.45313 407.044 166.45313"></polygon>
            <polygon id="Fill-143" fill="#FF8400" points="418.719 185.9228 407.044 185.9228 418.719 166.4538"></polygon>
            <polygon id="Fill-144" fill="#FFB81D" points="439.3609 185.9221 451.03587 185.9221 451.03587 166.45313 439.3609 166.45313"></polygon>
            <polygon id="Fill-145" fill="#FF8400" points="451.0359 185.9228 439.3609 185.9228 451.0359 166.4538"></polygon>
            <polygon id="Fill-146" fill="#FFB81D" points="471.6778 185.9221 483.35277 185.9221 483.35277 166.45313 471.6778 166.45313"></polygon>
            <polygon id="Fill-147" fill="#FF8400" points="483.3548 185.9228 471.6799 185.9228 483.3548 166.4538"></polygon>
            <polygon id="Fill-148" fill="#FFB81D" points="374.7271 215.5555 386.40207 215.5555 386.40207 196.08653 374.7271 196.08653"></polygon>
            <polygon id="Fill-149" fill="#FF8400" points="386.4021 215.5563 374.7271 215.5563 386.4021 196.0873"></polygon>
            <polygon id="Fill-150" fill="#FFB81D" points="407.044 215.5555 418.71897 215.5555 418.71897 196.08653 407.044 196.08653"></polygon>
            <polygon id="Fill-151" fill="#FF8400" points="418.719 215.5563 407.044 215.5563 418.719 196.0873"></polygon>
            <polygon id="Fill-152" fill="#FFB81D" points="439.3609 215.5555 451.03587 215.5555 451.03587 196.08653 439.3609 196.08653"></polygon>
            <polygon id="Fill-153" fill="#FF8400" points="451.0359 215.5563 439.3609 215.5563 451.0359 196.0873"></polygon>
            <polygon id="Fill-154" fill="#FFB81D" points="471.6778 215.5555 483.35277 215.5555 483.35277 196.08653 471.6778 196.08653"></polygon>
            <polygon id="Fill-155" fill="#FF8400" points="483.3548 215.5563 471.6799 215.5563 483.3548 196.0873"></polygon>
            <polygon id="Fill-156" fill="#FFB81D" points="374.7271 245.18878 386.40207 245.18878 386.40207 225.71775 374.7271 225.71775"></polygon>
            <polygon id="Fill-157" fill="#FF8400" points="386.4021 245.18961 374.7271 245.18961 386.4021 225.71858"></polygon>
            <polygon id="Fill-158" fill="#FFB81D" points="407.044 245.18878 418.71897 245.18878 418.71897 225.71775 407.044 225.71775"></polygon>
            <polygon id="Fill-159" fill="#FF8400" points="418.719 245.18961 407.044 245.18961 418.719 225.71858"></polygon>
            <polygon id="Fill-160" fill="#FFB81D" points="439.3609 245.18878 451.03587 245.18878 451.03587 225.71775 439.3609 225.71775"></polygon>
            <polygon id="Fill-161" fill="#FF8400" points="451.0359 245.18961 439.3609 245.18961 451.0359 225.71858"></polygon>
            <polygon id="Fill-162" fill="#FFB81D" points="471.6778 245.18878 483.35277 245.18878 483.35277 225.71775 471.6778 225.71775"></polygon>
            <polygon id="Fill-163" fill="#FF8400" points="483.3548 245.18961 471.6799 245.18961 483.3548 225.71858"></polygon>
            <polygon id="Fill-164" fill="#8D9EBD" points="357.1827 162.6266 498.2593 162.6266 498.2593 160.113345 357.1827 160.113345"></polygon>
            <polygon id="Fill-165" fill="#8D9EBD" points="357.1827 61.6696 498.2593 61.6696 498.2593 54.249415 357.1827 54.249415"></polygon>
            <path d="M472.6176,31.5353 C466.3566,13.4807 449.2182,0.5165 429.042,0.5165 C408.8596,0.5165 391.7212,13.4807 385.4643,31.5353 L364.2103,31.5353 L364.2103,54.2515 L493.8716,54.2515 L493.8716,31.5353 L472.6176,31.5353 Z" id="Fill-166" fill="#F4DFA4"></path>
            <path d="M463.6176,46.6602 C463.6176,27.5541 448.1362,12.0684 429.042,12.0684 C409.9416,12.0684 394.4602,27.5541 394.4602,46.6602" id="Fill-167" fill="#CDA053"></path>
            <polygon id="Fill-168" fill="#F8EAC5" points="364.2103 54.2515 371.240015 54.2515 371.240015 31.5353 364.2103 31.5353"></polygon>
            <polygon id="Fill-169" fill="#F8EAC5" points="364.2103 160.1133 371.240015 160.1133 371.240015 61.66957 364.2103 61.66957"></polygon>
            <polygon id="Fill-170" fill="#F8EAC5" points="364.2103 287.16571 371.240015 287.16571 371.240015 162.62661 364.2103 162.62661"></polygon>
            <path d="M155.3138,230.68695 C155.3138,194.1344 125.6946,164.5011 89.1521,164.5011 C52.6144,164.5011 22.9911,194.1344 22.9911,230.68695 L155.3138,230.68695 Z" id="Fill-171" fill="#323E48"></path>
            <path d="M89.1531,164.5022 C52.6155,164.5022 22.9901,194.1355 22.9901,230.68798 L31.7345,230.68798 C31.7345,195.6055 59.0249,166.9164 93.524,164.663 C92.0775,164.5661 90.6225,164.5022 89.1531,164.5022" id="Fill-172" fill="#49535D"></path>
            <path d="M44.3447,204.8872 C44.3447,206.1717 43.306,207.2129 42.02,207.2129 C40.7381,207.2129 39.6994,206.1717 39.6994,204.8872 C39.6994,203.6069 40.7381,202.5636 42.02,202.5636 C43.306,202.5636 44.3447,203.6069 44.3447,204.8872" id="Fill-173" fill="#FFFFFF"></path>
            <path d="M51.9906,189.0094 C51.9906,190.2918 50.9499,191.333 49.6659,191.333 C48.384,191.333 47.3454,190.2918 47.3454,189.0094 C47.3454,187.727 48.384,186.6879 49.6659,186.6879 C50.9499,186.6879 51.9906,187.727 51.9906,189.0094" id="Fill-174" fill="#FFFFFF"></path>
            <path d="M56.6336,217.183 C56.6336,218.4675 55.5949,219.5086 54.313,219.5086 C53.0291,219.5086 51.9904,218.4675 51.9904,217.183 C51.9904,215.9006 53.0291,214.8594 54.313,214.8594 C55.5949,214.8594 56.6336,215.9006 56.6336,217.183" id="Fill-175" fill="#FFFFFF"></path>
            <path d="M34.8594,217.183 C34.8594,218.4675 33.8187,219.5086 32.5388,219.5086 C31.2549,219.5086 30.2142,218.4675 30.2142,217.183 C30.2142,215.9006 31.2549,214.8594 32.5388,214.8594 C33.8187,214.8594 34.8594,215.9006 34.8594,217.183" id="Fill-176" fill="#FFFFFF"></path>
            <path d="M58.9581,200.0489 C58.9581,201.3293 57.9173,202.3705 56.6334,202.3705 C55.3536,202.3705 54.3128,201.3293 54.3128,200.0489 C54.3128,198.7624 55.3536,197.7233 56.6334,197.7233 C57.9173,197.7233 58.9581,198.7624 58.9581,200.0489" id="Fill-177" fill="#FFFFFF"></path>
            <path d="M65.9278,179.7134 C65.9278,180.9979 64.885,182.0391 63.6031,182.0391 C62.3192,182.0391 61.2805,180.9979 61.2805,179.7134 C61.2805,178.4331 62.3192,177.3899 63.6031,177.3899 C64.885,177.3899 65.9278,178.4331 65.9278,179.7134" id="Fill-178" fill="#FFFFFF"></path>
            <path d="M78.4119,197.7235 C78.4119,199.0059 77.3691,200.0492 76.0852,200.0492 C74.8053,200.0492 73.7667,199.0059 73.7667,197.7235 C73.7667,196.4391 74.8053,195.3999 76.0852,195.3999 C77.3691,195.3999 78.4119,196.4391 78.4119,197.7235" id="Fill-179" fill="#FFFFFF"></path>
            <path d="M76.0854,214.8596 C76.0854,216.142 75.0487,217.1832 73.7669,217.1832 C72.4829,217.1832 71.4422,216.142 71.4422,214.8596 C71.4422,213.5772 72.4829,212.5381 73.7669,212.5381 C75.0487,212.5381 76.0854,213.5772 76.0854,214.8596" id="Fill-180" fill="#FFFFFF"></path>
            <path d="M83.0549,177.3901 C83.0549,178.6745 82.0162,179.7136 80.7323,179.7136 C79.4504,179.7136 78.4117,178.6745 78.4117,177.3901 C78.4117,176.1077 79.4504,175.0686 80.7323,175.0686 C82.0162,175.0686 83.0549,176.1077 83.0549,177.3901" id="Fill-181" fill="#FFFFFF"></path>
            <path d="M92.3491,189.0094 C92.3491,190.2918 91.3043,191.333 90.0244,191.333 C88.7405,191.333 87.6997,190.2918 87.6997,189.0094 C87.6997,187.727 88.7405,186.6879 90.0244,186.6879 C91.3043,186.6879 92.3491,187.727 92.3491,189.0094" id="Fill-182" fill="#FFFFFF"></path>
            <path d="M99.6057,200.2403 C99.6057,201.5227 98.565,202.5639 97.2811,202.5639 C95.9992,202.5639 94.9605,201.5227 94.9605,200.2403 C94.9605,198.9558 95.9992,197.9167 97.2811,197.9167 C98.565,197.9167 99.6057,198.9558 99.6057,200.2403" id="Fill-183" fill="#FFFFFF"></path>
            <path d="M92.3491,212.5381 C92.3491,213.8185 91.3043,214.8596 90.0244,214.8596 C88.7405,214.8596 87.6997,213.8185 87.6997,212.5381 C87.6997,211.2516 88.7405,210.2104 90.0244,210.2104 C91.3043,210.2104 92.3491,211.2516 92.3491,212.5381" id="Fill-184" fill="#FFFFFF"></path>
            <path d="M101.9243,175.9384 C101.9243,177.2229 100.8876,178.264 99.6057,178.264 C98.3218,178.264 97.2811,177.2229 97.2811,175.9384 C97.2811,174.6581 98.3218,173.6169 99.6057,173.6169 C100.8876,173.6169 101.9243,174.6581 101.9243,175.9384" id="Fill-185" fill="#FFFFFF"></path>
            <path d="M113.2489,191.333 C113.2489,192.6154 112.2102,193.6565 110.9263,193.6565 C109.6485,193.6565 108.6036,192.6154 108.6036,191.333 C108.6036,190.0506 109.6485,189.0094 110.9263,189.0094 C112.2102,189.0094 113.2489,190.0506 113.2489,191.333" id="Fill-186" fill="#FFFFFF"></path>
            <path d="M117.8962,178.2638 C117.8962,179.5462 116.8554,180.5874 115.5736,180.5874 C114.2896,180.5874 113.2489,179.5462 113.2489,178.2638 C113.2489,176.9794 114.2896,175.9382 115.5736,175.9382 C116.8554,175.9382 117.8962,176.9794 117.8962,178.2638" id="Fill-187" fill="#FFFFFF"></path>
            <path d="M109.768,214.8596 C109.768,216.142 108.7273,217.1832 107.4433,217.1832 C106.1615,217.1832 105.1207,216.142 105.1207,214.8596 C105.1207,213.5772 106.1615,212.5381 107.4433,212.5381 C108.7273,212.5381 109.768,213.5772 109.768,214.8596" id="Fill-188" fill="#FFFFFF"></path>
            <path d="M123.7038,204.8872 C123.7038,206.1717 122.6631,207.2129 121.3812,207.2129 C120.0972,207.2129 119.0585,206.1717 119.0585,204.8872 C119.0585,203.6069 120.0972,202.5636 121.3812,202.5636 C122.6631,202.5636 123.7038,203.6069 123.7038,204.8872" id="Fill-189" fill="#FFFFFF"></path>
            <path d="M130.0885,186.6879 C130.0885,187.9682 129.0498,189.0094 127.7658,189.0094 C126.484,189.0094 125.4453,187.9682 125.4453,186.6879 C125.4453,185.4013 126.484,184.3602 127.7658,184.3602 C129.0498,184.3602 130.0885,185.4013 130.0885,186.6879" id="Fill-190" fill="#FFFFFF"></path>
            <path d="M140.2528,200.2403 C140.2528,201.5227 139.212,202.5639 137.9302,202.5639 C136.6462,202.5639 135.6075,201.5227 135.6075,200.2403 C135.6075,198.9558 136.6462,197.9167 137.9302,197.9167 C139.212,197.9167 140.2528,198.9558 140.2528,200.2403" id="Fill-191" fill="#FFFFFF"></path>
            <path d="M132.4152,214.8596 C132.4152,216.142 131.3724,217.1832 130.0885,217.1832 C128.8086,217.1832 127.7658,216.142 127.7658,214.8596 C127.7658,213.5772 128.8086,212.5381 130.0885,212.5381 C131.3724,212.5381 132.4152,213.5772 132.4152,214.8596" id="Fill-192" fill="#FFFFFF"></path>
            <path d="M148.7787,217.183 C148.7787,218.4675 147.74,219.5086 146.4561,219.5086 C145.1742,219.5086 144.1355,218.4675 144.1355,217.183 C144.1355,215.9006 145.1742,214.8594 146.4561,214.8594 C147.74,214.8594 148.7787,215.9006 148.7787,217.183" id="Fill-193" fill="#FFFFFF"></path>
            <polygon id="Fill-194" fill="#9FA2A3" points="30.2133 287.16571 148.0883 287.16571 148.0883 224.62504 30.2133 224.62504"></polygon>
            <polygon id="Fill-195" fill="#BABCBD" points="30.2133 287.16571 42.02017 287.16571 42.02017 224.62504 30.2133 224.62504"></polygon>
            <polygon id="Fill-196" fill="#707271" points="18.9196 241.0282 159.3861 241.0282 159.3861 223.02513 18.9196 223.02513"></polygon>
            <polygon id="Fill-197" fill="#FFFFFF" points="24.8076 237.4181 31.301482 237.4181 31.301482 226.35689 24.8076 226.35689"></polygon>
            <polygon id="Fill-198" fill="#FFFFFF" points="34.2053 237.4181 40.701243 237.4181 40.701243 226.35689 34.2053 226.35689"></polygon>
            <polygon id="Fill-199" fill="#FFFFFF" points="43.6071 237.4181 50.100982 237.4181 50.100982 226.35689 43.6071 226.35689"></polygon>
            <polygon id="Fill-200" fill="#FFFFFF" points="53.0068 237.4181 59.500682 237.4181 59.500682 226.35689 53.0068 226.35689"></polygon>
            <polygon id="Fill-201" fill="#FFFFFF" points="62.4045 237.4181 68.902504 237.4181 68.902504 226.35689 62.4045 226.35689"></polygon>
            <polygon id="Fill-202" fill="#FFFFFF" points="71.8043 237.4181 78.300243 237.4181 78.300243 226.35689 71.8043 226.35689"></polygon>
            <polygon id="Fill-203" fill="#FFFFFF" points="81.2061 237.4181 87.699982 237.4181 87.699982 226.35689 81.2061 226.35689"></polygon>
            <polygon id="Fill-204" fill="#FFFFFF" points="90.6058 237.4181 97.103804 237.4181 97.103804 226.35689 90.6058 226.35689"></polygon>
            <polygon id="Fill-205" fill="#FFFFFF" points="100.0056 237.4181 106.501543 237.4181 106.501543 226.35689 100.0056 226.35689"></polygon>
            <polygon id="Fill-206" fill="#FFFFFF" points="109.4053 237.4181 115.899182 237.4181 115.899182 226.35689 109.4053 226.35689"></polygon>
            <polygon id="Fill-207" fill="#FFFFFF" points="118.8051 237.4181 125.301043 237.4181 125.301043 226.35689 118.8051 226.35689"></polygon>
            <polygon id="Fill-208" fill="#FFFFFF" points="128.2048 237.4181 134.702804 237.4181 134.702804 226.35689 128.2048 226.35689"></polygon>
            <polygon id="Fill-209" fill="#FFFFFF" points="137.6045 237.4181 144.098382 237.4181 144.098382 226.35689 137.6045 226.35689"></polygon>
            <polygon id="Fill-210" fill="#FFFFFF" points="147.0064 237.4181 153.502343 237.4181 153.502343 226.35689 147.0064 226.35689"></polygon>
            <polygon id="Fill-211" fill="#707271" points="39.4544 287.16571 64.52107 287.16571 64.52107 264.33405 39.4544 264.33405"></polygon>
            <polygon id="Fill-212" fill="#00B3E3" points="42.3603 287.16571 61.61937 287.16571 61.61937 267.23904 42.3603 267.23904"></polygon>
            <polygon id="Fill-213" fill="#FFB81D" points="84.454 252.90998 140.85041 252.90998 140.85041 249.813254 84.454 249.813254"></polygon>
            <polygon id="Fill-214" fill="#FFB81D" points="84.454 259.81473 140.85041 259.81473 140.85041 256.718004 84.454 256.718004"></polygon>
            <polygon id="Fill-215" fill="#9FA2A3" points="155.6745 287.16571 163.194708 287.16571 163.194708 177.67931 155.6745 177.67931"></polygon>
            <polygon id="Fill-216" fill="#707271" points="145.1804 287.16571 172.89945 287.16571 172.89945 275.27981 145.1804 275.27981"></polygon>
            <path d="M189.3289,161.3914 C189.3289,177.9121 175.9434,191.301 159.4336,191.301 C142.9237,191.301 129.5382,177.9121 129.5382,161.3914 C129.5382,144.8749 142.9237,131.4859 159.4336,131.4859 C175.9434,131.4859 189.3289,144.8749 189.3289,161.3914" id="Fill-217" fill="#FFB81D"></path>
            <path d="M180.4197,148.574 C180.4197,154.4623 175.6487,159.2373 169.7607,159.2373 C163.8727,159.2373 159.0976,154.4623 159.0976,148.574 C159.0976,142.6836 163.8727,137.9087 169.7607,137.9087 C175.6487,137.9087 180.4197,142.6836 180.4197,148.574" id="Fill-218" fill="#FDE052"></path>
            <polygon id="Fill-219" fill="#707271" points="195.4683 160.0103 123.4009 160.0103 123.4009 162.7771 195.4663 162.7771"></polygon>
            <path d="M143.0948,161.3914 C143.0948,159.1771 141.2977,157.3772 139.0822,157.3772 C136.8667,157.3772 135.0696,159.1771 135.0696,161.3914 C135.0696,163.6098 136.8667,165.4056 139.0822,165.4056 C141.2977,165.4056 143.0948,163.6098 143.0948,161.3914" id="Fill-220" fill="#EA6953"></path>
            <polygon id="Fill-221" fill="#9FA2A3" points="185.8913 185.9046 134.9316 134.9241 132.9799 136.8827 183.9355 187.8612"></polygon>
            <path d="M179.789,177.6799 C179.789,175.4656 177.9899,173.6699 175.7744,173.6699 C173.5589,173.6699 171.7618,175.4656 171.7618,177.6799 C171.7618,179.8963 173.5589,181.6962 175.7744,181.6962 C177.9899,181.6962 179.789,179.8963 179.789,177.6799" id="Fill-222" fill="#EA6953"></path>
            <polygon id="Fill-223" fill="#00A19C" points="261.4252 287.16571 413.7048 287.16571 413.7048 225.05388 261.4252 225.05388"></polygon>
            <polygon id="Fill-224" fill="#31B3AF" points="261.4252 287.16571 272.78074 287.16571 272.78074 225.05388 261.4252 225.05388"></polygon>
            <polygon id="Fill-225" fill="#79242F" points="255.4239 228.51965 419.7041 228.51965 419.7041 225.051811 255.4239 225.051811"></polygon>
            <polygon id="Fill-226" fill="#FDE052" points="279.6374 249.0834 308.04891 249.0834 308.04891 236.04499 279.6374 236.04499"></polygon>
            <polygon id="Fill-227" fill="#FF8400" points="308.0489 249.08361 279.6374 249.08361 308.0489 236.04519"></polygon>
            <polygon id="Fill-228" fill="#FDE052" points="323.3572 249.0834 351.77077 249.0834 351.77077 236.04499 323.3572 236.04499"></polygon>
            <polygon id="Fill-229" fill="#FF8400" points="351.7708 249.08361 323.3572 249.08361 351.7708 236.04519"></polygon>
            <polygon id="Fill-230" fill="#FDE052" points="367.077 249.0834 395.49057 249.0834 395.49057 236.04499 367.077 236.04499"></polygon>
            <polygon id="Fill-231" fill="#FF8400" points="395.4906 249.08361 367.077 249.08361 395.4906 236.04519"></polygon>
            <polygon id="Fill-232" fill="#FDE052" points="279.6374 270.17289 308.04891 270.17289 308.04891 257.13654 279.6374 257.13654"></polygon>
            <polygon id="Fill-233" fill="#FF8400" points="308.0489 270.17206 279.6374 270.17206 308.0489 257.13571"></polygon>
            <polygon id="Fill-234" fill="#FDE052" points="323.3572 270.17289 351.77077 270.17289 351.77077 257.13654 323.3572 257.13654"></polygon>
            <polygon id="Fill-235" fill="#FF8400" points="351.7708 270.17206 323.3572 270.17206 351.7708 257.13571"></polygon>
            <polygon id="Fill-236" fill="#FDE052" points="367.077 270.17289 395.49057 270.17289 395.49057 257.13654 367.077 257.13654"></polygon>
            <polygon id="Fill-237" fill="#FF8400" points="395.4906 270.17206 367.077 270.17206 395.4906 257.13571"></polygon>
            <polygon id="Fill-238" fill="#C23C33" points="416.1243 192.6999 259.0016 192.6999 255.4218 225.05264 419.702 225.05264"></polygon>
            <polygon id="Fill-239" fill="#C74942" points="272.7808 192.6999 259.0016 192.6999 255.4239 225.05264 268.6425 225.05264"></polygon>
            <path d="M418.1502,211.0019 L256.9778,211.0019 L256.749,213.076 L418.3789,213.076 L418.1502,211.0019 Z M418.9992,218.6963 L256.1287,218.6963 L255.8979,220.7704 L419.228,220.7704 L418.9992,218.6963 Z M417.2969,203.3055 L257.831,203.3055 L257.6002,205.3796 L417.5278,205.3796 L417.2969,203.3055 Z M416.4458,195.609 L258.6822,195.609 L258.4513,197.6852 L416.6766,197.6852 L416.4458,195.609 Z" id="Fill-240" fill="#A8353A"></path>
            <polygon id="Fill-241" fill="#00A19C" points="370.5105 200.3027 388.40526 200.3027 388.40526 183.73666 370.5105 183.73666"></polygon>
            <polygon id="Fill-242" fill="#79242F" points="368.8226 183.7367 390.09517 183.7367 390.09517 181.404878 368.8226 181.404878"></polygon>
            <polygon id="Fill-243" fill="#005570" points="516.6177 287.16571 622.2592 287.16571 622.2592 84.50741 516.6177 84.50741"></polygon>
            <polygon id="Fill-244" fill="#2E738A" points="516.6177 287.16571 522.808631 287.16571 522.808631 84.50741 516.6177 84.50741"></polygon>
            <path d="M569.4405,6.6811 C566.3121,6.6811 563.7772,9.217 563.7772,12.3467 C563.7772,14.7466 565.2754,16.7856 567.3796,17.6124 L567.3796,45.0335 L571.5014,45.0335 L571.5014,17.6124 C573.6056,16.7856 575.1038,14.7466 575.1038,12.3467 C575.1038,9.217 572.5689,6.6811 569.4405,6.6811" id="Fill-245" fill="#9FA2A3"></path>
            <path d="M622.2592,79.3181 C616.0724,63.754 598.6104,42.9717 569.4405,42.9717 C540.2706,42.9717 522.8086,63.754 516.6218,79.3181 L622.2592,79.3181 Z" id="Fill-246" fill="#C23C33"></path>
            <path d="M572.2722,43.0418 C571.3407,42.9985 570.3988,42.9738 569.4405,42.9738 C540.2706,42.9738 522.8086,63.7561 516.6218,79.3201 L522.2852,79.3201 C528.2679,64.2674 544.8025,44.3345 572.2722,43.0418" id="Fill-247" fill="#D06760"></path>
            <polygon id="Fill-248" fill="#79242F" points="511.3624 84.5075 627.5207 84.5075 627.5207 74.13285 511.3624 74.13285"></polygon>
            <polygon id="Fill-249" fill="#79242F" points="511.3624 178.6731 627.5207 178.6731 627.5207 175.128977 511.3624 175.128977"></polygon>
            <polygon id="Fill-250" fill="#FFB81D" points="525.496 106.6587 550.16286 106.6587 550.16286 95.33977 525.496 95.33977"></polygon>
            <polygon id="Fill-251" fill="#FF8400" points="550.1629 106.6587 525.496 106.6587 550.1629 95.3398"></polygon>
            <polygon id="Fill-252" fill="#FFB81D" points="557.104 106.6587 581.77086 106.6587 581.77086 95.33977 557.104 95.33977"></polygon>
            <polygon id="Fill-253" fill="#FF8400" points="581.7708 106.6587 557.104 106.6587 581.7708 95.3398"></polygon>
            <polygon id="Fill-254" fill="#FFB81D" points="588.714 106.6587 613.38086 106.6587 613.38086 95.33977 588.714 95.33977"></polygon>
            <polygon id="Fill-255" fill="#FF8400" points="613.3809 106.6587 588.714 106.6587 613.3809 95.3398"></polygon>
            <polygon id="Fill-256" fill="#FFB81D" points="525.496 126.9235 550.16286 126.9235 550.16286 115.60457 525.496 115.60457"></polygon>
            <polygon id="Fill-257" fill="#FF8400" points="550.1629 126.9237 525.496 126.9237 550.1629 115.6046"></polygon>
            <polygon id="Fill-258" fill="#FFB81D" points="557.104 126.9235 581.77086 126.9235 581.77086 115.60457 557.104 115.60457"></polygon>
            <polygon id="Fill-259" fill="#FF8400" points="581.7708 126.9237 557.104 126.9237 581.7708 115.6046"></polygon>
            <polygon id="Fill-260" fill="#FFB81D" points="588.714 126.9235 613.38086 126.9235 613.38086 115.60457 588.714 115.60457"></polygon>
            <polygon id="Fill-261" fill="#FF8400" points="613.3809 126.9237 588.714 126.9237 613.3809 115.6046"></polygon>
            <polygon id="Fill-262" fill="#FFB81D" points="525.496 147.1883 550.16286 147.1883 550.16286 135.86937 525.496 135.86937"></polygon>
            <polygon id="Fill-263" fill="#FF8400" points="550.1629 147.1887 525.496 147.1887 550.1629 135.8698"></polygon>
            <polygon id="Fill-264" fill="#FFB81D" points="557.104 147.1883 581.77086 147.1883 581.77086 135.86937 557.104 135.86937"></polygon>
            <polygon id="Fill-265" fill="#FF8400" points="581.7708 147.1887 557.104 147.1887 581.7708 135.8698"></polygon>
            <polygon id="Fill-266" fill="#FFB81D" points="588.714 147.1883 613.38086 147.1883 613.38086 135.86937 588.714 135.86937"></polygon>
            <polygon id="Fill-267" fill="#FF8400" points="613.3809 147.1887 588.714 147.1887 613.3809 135.8698"></polygon>
            <polygon id="Fill-268" fill="#FFB81D" points="525.496 167.4531 550.16286 167.4531 550.16286 156.13417 525.496 156.13417"></polygon>
            <polygon id="Fill-269" fill="#FF8400" points="550.1629 167.4537 525.496 167.4537 550.1629 156.1348"></polygon>
            <polygon id="Fill-270" fill="#FFB81D" points="557.104 167.4531 581.77086 167.4531 581.77086 156.13417 557.104 156.13417"></polygon>
            <polygon id="Fill-271" fill="#FF8400" points="581.7708 167.4537 557.104 167.4537 581.7708 156.1348"></polygon>
            <polygon id="Fill-272" fill="#FFB81D" points="588.714 167.4531 613.38086 167.4531 613.38086 156.13417 588.714 156.13417"></polygon>
            <polygon id="Fill-273" fill="#FF8400" points="613.3809 167.4537 588.714 167.4537 613.3809 156.1348"></polygon>
            <polygon id="Fill-274" fill="#FFB81D" points="525.496 241.055 550.16286 241.055 550.16286 229.73607 525.496 229.73607"></polygon>
            <polygon id="Fill-275" fill="#FF8400" points="550.1629 241.05418 525.496 241.05418 550.1629 229.73525"></polygon>
            <polygon id="Fill-276" fill="#FFB81D" points="557.104 241.055 581.77086 241.055 581.77086 229.73607 557.104 229.73607"></polygon>
            <polygon id="Fill-277" fill="#FF8400" points="581.7708 241.05418 557.104 241.05418 581.7708 229.73525"></polygon>
            <polygon id="Fill-278" fill="#FFB81D" points="588.714 241.055 613.38086 241.055 613.38086 229.73607 588.714 229.73607"></polygon>
            <polygon id="Fill-279" fill="#FF8400" points="613.3809 241.05418 588.714 241.05418 613.3809 229.73525"></polygon>
            <polygon id="Fill-280" fill="#FFB81D" points="525.496 261.3198 550.16286 261.3198 550.16286 250.00087 525.496 250.00087"></polygon>
            <polygon id="Fill-281" fill="#FF8400" points="550.1629 261.31918 525.496 261.31918 550.1629 250.00025"></polygon>
            <polygon id="Fill-282" fill="#FFB81D" points="557.104 261.3198 581.77086 261.3198 581.77086 250.00087 557.104 250.00087"></polygon>
            <polygon id="Fill-283" fill="#FF8400" points="581.7708 261.31918 557.104 261.31918 581.7708 250.00025"></polygon>
            <polygon id="Fill-284" fill="#FFB81D" points="588.714 261.3198 613.38086 261.3198 613.38086 250.00087 588.714 250.00087"></polygon>
            <polygon id="Fill-285" fill="#FF8400" points="613.3809 261.31918 588.714 261.31918 613.3809 250.00025"></polygon>
            <polygon id="Fill-286" fill="#FFFFFF" points="561.1928 220.7972 544.7613 208.9711 528.3318 220.7972 528.3318 178.6718 561.1928 178.6718"></polygon>
            <polygon id="Fill-287" fill="#FF5A5A" points="531.1656 186.4438 558.35912 186.4438 558.35912 181.718303 531.1656 181.718303"></polygon>
            <polygon id="Fill-288" fill="#FFFFFF" points="577.6882 220.7972 594.1197 208.9711 610.5492 220.7972 610.5492 178.6718 577.6882 178.6718"></polygon>
            <polygon id="Fill-289" fill="#FF5A5A" points="580.5219 186.4438 607.71542 186.4438 607.71542 181.718303 580.5219 181.718303"></polygon>
            <polygon id="Fill-290" fill="#906A29" points="503.8113 287.16365 508.083537 287.16365 508.083537 263.40421 503.8113 263.40421"></polygon>
            <path d="M522.8004,225.57302 C522.8004,216.2602 515.2575,208.7122 505.9484,208.7122 C496.6394,208.7122 489.0965,216.2602 489.0965,225.57302 L489.0965,250.76949 C489.0965,260.08234 496.6394,267.63036 505.9484,267.63036 C515.2575,267.63036 522.8004,260.08234 522.8004,250.76949 L522.8004,225.57302 Z" id="Fill-291" fill="#007A4C"></path>
            <path d="M489.0965,225.57302 L489.0965,250.76949 C489.0965,260.08234 496.6394,267.63036 505.9505,267.63036 L505.9505,208.7122 C496.6394,208.7122 489.0965,216.2602 489.0965,225.57302" id="Fill-292" fill="#2C9A42"></path>
            <polygon id="Fill-293" fill="#00A19C" points="621.8924 287.16571 734.7203 287.16571 734.7203 220.49744 621.8924 220.49744"></polygon>
            <polygon id="Fill-294" fill="#31B3AF" points="621.8924 287.16571 635.02237 287.16571 635.02237 220.49744 621.8924 220.49744"></polygon>
            <polygon id="Fill-295" fill="#FDE052" points="639.6078 250.72454 658.23624 250.72454 658.23624 233.90903 639.6078 233.90903"></polygon>
            <polygon id="Fill-296" fill="#FF8400" points="658.2363 250.72454 639.6078 250.72454 658.2363 233.90903"></polygon>
            <polygon id="Fill-297" fill="#FDE052" points="707.7513 250.72454 726.37974 250.72454 726.37974 233.90903 707.7513 233.90903"></polygon>
            <polygon id="Fill-298" fill="#FF8400" points="726.3798 250.72454 707.7513 250.72454 726.3798 233.90903"></polygon>
            <polygon id="Fill-299" fill="#79242F" points="619.9118 220.4974 736.7048 220.4974 736.7048 212.588584 619.9118 212.588584"></polygon>
            <polygon id="Fill-300" fill="#C23C33" points="734.7202 212.5884 712.6212 190.2021 643.9913 190.2021 621.8924 212.5884"></polygon>
            <polygon id="Fill-301" fill="#C74B44" points="645.0094 212.5884 657.3233 190.2021 643.9913 190.2021 621.8924 212.5884"></polygon>
            <polygon id="Fill-302" fill="#8E979D" points="667.5041 287.16571 689.11465 287.16571 689.11465 253.34294 667.5041 253.34294"></polygon>
            <polygon id="Fill-303" fill="#5B6770" points="689.1147 253.34191 667.5041 287.16468 689.1147 287.16468"></polygon>
            <path d="M686.8683,270.25268 C686.8683,269.55581 686.3036,268.9909 685.607,268.9909 C684.9084,268.9909 684.3437,269.55581 684.3437,270.25268 C684.3437,270.95161 684.9084,271.51652 685.607,271.51652 C686.3036,271.51652 686.8683,270.95161 686.8683,270.25268" id="Fill-304" fill="#FFA500"></path>
            <polygon id="Fill-305" fill="#79242F" points="665.266 253.34088 691.35076 253.34088 691.35076 250.798761 665.266 250.798761"></polygon>
            <polygon id="Fill-306" fill="#906A29" points="622.2592 287.16365 626.529376 287.16365 626.529376 263.40421 622.2592 263.40421"></polygon>
            <path d="M641.2483,250.76887 C641.2483,260.08379 633.7034,267.6318 624.3943,267.6318 C615.0873,267.6318 607.5423,260.08379 607.5423,250.76887 C607.5423,241.45807 615.0873,233.908 624.3943,233.908 C633.7034,233.908 641.2483,241.45807 641.2483,250.76887" id="Fill-307" fill="#007A4C"></path>
            <path d="M624.3943,233.90841 L624.3943,267.63015 C615.0852,267.63015 607.5423,260.08214 607.5423,250.76928 C607.5423,241.45848 615.0852,233.90841 624.3943,233.90841" id="Fill-308" fill="#2C9A42"></path>
            <polygon id="Fill-309" fill="#906A29" points="740.2146 287.16365 744.484776 287.16365 744.484776 263.40421 740.2146 263.40421"></polygon>
            <path d="M759.2037,250.76887 C759.2037,260.08379 751.6587,267.6318 742.3497,267.6318 C733.0427,267.6318 725.4977,260.08379 725.4977,250.76887 C725.4977,241.45807 733.0427,233.908 742.3497,233.908 C751.6587,233.908 759.2037,241.45807 759.2037,250.76887" id="Fill-310" fill="#007A4C"></path>
            <path d="M742.3497,233.90841 L742.3497,267.63015 C733.0406,267.63015 725.4977,260.08214 725.4977,250.76928 C725.4977,241.45848 733.0406,233.90841 742.3497,233.90841" id="Fill-311" fill="#2C9A42"></path>
            <polygon id="Fill-312" fill="#906A29" points="15.2162 287.16365 19.486376 287.16365 19.486376 263.40421 15.2162 263.40421"></polygon>
            <path d="M34.2053,250.76887 C34.2053,260.08379 26.6603,267.6318 17.3513,267.6318 C8.0443,267.6318 0.4993,260.08379 0.4993,250.76887 C0.4993,241.45807 8.0443,233.908 17.3513,233.908 C26.6603,233.908 34.2053,241.45807 34.2053,250.76887" id="Fill-313" fill="#007A4C"></path>
            <path d="M17.3519,233.90841 L17.3519,267.63015 C8.0428,267.63015 0.5,260.08214 0.5,250.76928 C0.5,241.45848 8.0428,233.90841 17.3519,233.90841" id="Fill-314" fill="#2C9A42"></path>
        </g>
    </g>
</svg>