<svg width="488" height="718" viewBox="0 0 488 718" xmlns="http://www.w3.org/2000/svg" xmlns:xlink="http://www.w3.org/1999/xlink"><title>Slice 2</title><defs><path d="M83.341 149.219c-4.233 0-8.068-3.706-8.844-8.784l-1.054-6.914c-.71-4.656 1.382-8.98 4.85-10.637 1.152 12.564 4.21 22.084 4.21 22.084s-.039-.145.042-1.995c.38 2.066.816 4.148 1.32 6.226-.175.013-.352.02-.524.02z" id="a"/><path d="M174.422 148.564c-.137 0-.273-.005-.412-.014.765-3.3 1.362-6.592 1.825-9.803.03.353.043.543.047.642a1.838 1.838 0 0 0-.016.055s.007.04.012.04c.004 0 .006-.02.004-.095.188-.696 2.055-7.827 2.807-17.48 3.927 1.35 6.393 5.961 5.628 10.959l-1.053 6.91c-.776 5.08-4.611 8.786-8.842 8.786z" id="c"/><path d="M37.21 380.214c-.07-9.275.017-18.03.24-26.308l19.391 2.632c-1.831 10.563-3.02 18.942-3.399 23.214l-.328.01c-.414-.892-.799-1.567-1.145-1.974l-14.733.982c0 .487-.009.968-.027 1.444zm.8-40.772H38c3.548-71.27 17.978-102.548 29.884-116.267-.004.012-.011.023-.016.034-11.899 13.739-26.312 45.023-29.858 116.233zm27.685-26.04c0-.006.002-.01.004-.018-.002.007-.004.012-.004.018zm.022-.098c1.986-8.298 4.15-16.559 6.454-24.287-2.303 7.728-4.468 15.99-6.454 24.287z" id="e"/><path d="M57.02 428.252c-1.366 0-3.07-.955-5.159-3.292-5.42-6.06-10.801-12.344-14.243-19.794-4.052-8.764-.755-16.023-.409-24.952.018-.476.027-.957.027-1.444l14.733-.982c.346.407.73 1.082 1.145 1.975 3.28 7.075 8.292 27.74 8.676 35.374.28 5.56-.921 13.115-4.77 13.115z" id="g"/><path d="M220.308 380.243h-.002a39.98 39.98 0 0 1-.03-1.473l-14.732-.982c-.347.407-.731 1.082-1.145 1.975l-.329-.011c-.326-3.684-1.187-10.358-2.5-18.811l18.579-4.394c.161 7.498.22 15.387.159 23.696zm-21.49-35.72c-3.23-18.001-7.745-39.388-13.08-57.326l.002-.002c5.335 17.94 9.848 39.325 13.077 57.328zm13.495-.928l7.362-1.742c-3.558-82.329-20.824-111.672-32.782-122.135l.074.076c11.917 10.497 29.052 39.77 32.67 121.388a777.485 777.485 0 0 0-7.324 2.413z" id="i"/><path d="M200.492 428.252c-3.848 0-5.05-7.554-4.767-13.115.384-7.635 5.396-28.3 8.674-35.374.414-.893.798-1.568 1.145-1.975l14.732.982c0 .496.012.988.03 1.474.35 8.915 3.636 16.167-.412 24.921-3.442 7.451-8.822 13.735-14.24 19.795-2.09 2.337-3.793 3.292-5.162 3.292z" id="k"/><path d="M59.453 342.354l-21.443-2.912c3.546-71.21 17.96-102.494 29.858-116.233-3.976 8.039-.25 35.302 4.303 65.808-2.303 7.728-4.468 15.988-6.454 24.287l-.018.08c-.002.007-.004.012-.004.018-2.362 9.882-4.468 19.815-6.242 28.952z" id="m"/><path d="M199.204 346.697c-.127-.718-.255-1.443-.387-2.174-3.229-18.003-7.742-39.388-13.077-57.329 4.541-30.984 8.012-58.553 3.345-64.918a22.92 22.92 0 0 0-2.118-2.482c11.917 10.497 29.052 39.77 32.67 121.388a777.485 777.485 0 0 0-7.324 2.413l-13.109 3.101z" id="o"/><path d="M128.757 209.181h-.087v-1.522l.087.11v1.412zm-.335-2.571l-16.311-8.006v-9.986c4.778 1.981 10.264 3.128 16.555 3.193l-.003.031h.094v14.602l-.335.166z" id="q"/><path d="M128.842 209.181h-.085v-1.413l.085.11v1.304zm-.085-2.737v-14.602c6.331-.08 11.841-1.22 16.645-3.186v9.622l-16.645 8.166z" id="s"/><path d="M128.666 191.811c-6.29-.065-11.776-1.212-16.555-3.193-16.162-6.702-24.264-22.975-28.247-39.42-.503-2.077-.939-4.159-1.319-6.225.114-2.639.47-8.748 1.518-22.865C85.161 105.301 90.296 101 97.243 101c9.022 0 21.105 7.239 31.42 8.14v21.554h-6.044v19.267a6.14 6.14 0 0 0 6.044 6.138v10.027h-16.188l7.205 4.567 8.498 1.963.485-.105v19.26h.003zm-23.508-61.17a4.42 4.42 0 1 0-.001 8.838 4.42 4.42 0 0 0 .001-8.838z" id="u"/><path d="M128.663 191.842v-19.291l8.583-1.858 6.347-4.567h-14.93V156.1h.094a6.137 6.137 0 0 0 6.137-6.139v-19.267h-6.23V109.14c.594.052 1.182.083 1.764.09h.24c5.18 0 10.644-2.049 15.886-4.097 5.244-2.048 10.268-4.097 14.578-4.097.847 0 1.668.079 2.455.253l2.858 1.16c3.618 2.277 6.273 7.601 7.447 18.113 1.38 12.386 1.816 16.711 1.943 18.185a118.235 118.235 0 0 1-1.825 9.803c-3.841 16.57-11.944 33.288-28.608 40.106-4.804 1.965-10.314 3.106-16.645 3.186h-.094zm23.691-61.201a4.417 4.417 0 0 0-4.418 4.418 4.42 4.42 0 1 0 4.419-4.419z" id="w"/><path d="M128.659 357.164v-5.892H80.492c-1.68-18.824-5.195-41.302-8.321-62.255-4.553-30.506-8.279-57.769-4.303-65.808.005-.011.012-.022.016-.034.168-.333.349-.632.543-.899 4.869-6.639 13.646-10.588 23.054-12.891l24.08 14.2 12.86-16.24.25.314v143.613h-.012v5.892z" id="y"/><path d="M128.842 408.2v-43.833V408.2zm48.2-56.928h-48.2V207.878l12.443 15.707 24.275-14.314c8.305 1.979 16.163 5.226 21.333 10.447l.074.076a22.92 22.92 0 0 1 2.118 2.482c4.667 6.365 1.196 33.934-3.345 64.918l-.003.003c-3.182 21.724-6.894 45.123-8.694 64.075z" id="A"/><path d="M115.626 641.014h-13.753C67.537 440.427 78.992 373.759 81.047 364.367h.313c.21 5.43.17 10.342-.2 14.557-1.65 18.842 22.92 27.38 42.3 29l-7.834 233.09z" id="C"/><path d="M155.64 641.014h-13.751l-7.836-233.09c19.45-1.627 44.421-10.203 42.299-29-.447-3.978-.499-8.915-.253-14.557h.365c2.055 9.392 13.509 76.06-20.825 276.647z" id="E"/><path d="M116.431 662.62H70.268c-3.93-7.856 31.605-21.606 31.605-21.606h13.753l.805 21.605z" id="G"/><path d="M187.386 662.62h-46.164l.808-21.606h13.753s35.534 13.75 31.603 21.605z" id="I"/><path d="M121.728 63h14.775c40.004 3.608 43.855 37.481 42.186 58.909-.752 9.653-2.619 16.784-2.807 17.48a21.113 21.113 0 0 0-.047-.642c-.127-1.474-.563-5.799-1.943-18.185-1.174-10.512-3.829-15.836-7.447-18.112a8.92 8.92 0 0 0-2.858-1.161 11.337 11.337 0 0 0-2.455-.253c-4.31 0-9.334 2.049-14.578 4.097-5.242 2.048-10.706 4.097-15.887 4.097h-.24a23.672 23.672 0 0 1-1.764-.09c-10.315-.901-22.398-8.14-31.42-8.14-6.947 0-12.082 4.3-13.18 19.108-1.048 14.117-1.404 20.226-1.518 22.865-.08 1.85-.043 1.995-.043 1.995s-3.056-9.52-4.208-22.084C76.182 99.846 80.468 66.572 121.728 63zm54.15 76.485c-.005 0-.011-.04-.011-.04l.015-.056c.002.076 0 .096-.004.096z" id="K"/><path d="M105.158 139.48a4.42 4.42 0 1 1 0-8.84 4.42 4.42 0 0 1 0 8.84z" id="M"/><path d="M152.354 139.48a4.419 4.419 0 0 1-4.418-4.42 4.417 4.417 0 0 1 4.418-4.42 4.42 4.42 0 0 1 0 8.84z" id="O"/><path d="M128.757 156.1h-.094a6.14 6.14 0 0 1-6.044-6.139v-19.267h12.275v19.267a6.137 6.137 0 0 1-6.137 6.138z" id="Q"/><path id="S" d="M128.178 172.656l-8.498-1.963-7.205-4.567h31.118l-6.347 4.567-8.583 1.858z"/><path id="U" d="M31 353.03l6.45.876 19.391 2.632 5.222.709 1.939-14.276-4.549-.617-21.443-2.912H38l-5.145-.7L31 352.418v.611z"/><path id="W" d="M197.531 361.896l-3.316-14.019 4.99-1.18 13.108-3.102 7.362-1.742 5.125-1.212 3.319 14.02-7.97 1.886-18.579 4.394z"/><path id="Y" d="M115.561 223.585l-24.08-14.2-1.458-.859 20.954-10.478 1.134.556 16.31 8.006-.42.206.42.53z"/><path id="aa" d="M141.285 223.585l-12.443-15.707-.085-.11-.087-.11-.248-.312-.42-.53.42-.206.335-.166 16.645-8.166.465-.23 20.956 10.478-1.263.745z"/><path d="M128.67 408.2a84.065 84.065 0 0 1-5.21-.275c-19.38-1.621-43.95-10.159-42.3-29 .37-4.216.41-9.129.2-14.558h47.299v-7.203 7.203h.011V408.2z" id="ac"/><path d="M128.842 408.2v-43.833H176.1c-.246 5.642-.194 10.579.253 14.557 2.122 18.797-22.848 27.373-42.3 29-1.79.15-3.537.24-5.21.276z" id="ae"/><path id="ag" d="M128.659 364.367H78.891v-13.095h49.768v5.892z"/><path id="ai" d="M178.425 364.367h-49.766v-13.095h49.766z"/><path d="M343.785 641.466h-13.052c-11.301-66.015-17.378-116.743-20.411-155.232h36.072l-2.609 155.232z" id="ak"/><path d="M344.554 661.982h-43.829c-3.728-7.46 30.008-20.516 30.008-20.516h13.052l.769 20.516z" id="am"/><path d="M381.773 641.466h-13.055l-2.61-155.247 36.082-.053c-3.034 38.498-9.11 89.247-20.417 155.3z" id="ao"/><path d="M411.914 661.982h-43.826l.766-20.516h13.057s33.735 13.056 30.003 20.516z" id="aq"/><path d="M298.751 250.824c-1.573-18.15-7.16-90.6.38-126.767 4.497-21.565 30.158-39.886 55.855-39.886h1.514c25.697 0 51.547 18.283 55.855 39.886 2.471 12.385 3.297 31.046 3.297 50.428 0-19.382-.826-38.043-3.297-50.428-4.308-21.603-30.158-39.886-55.855-39.886h-.758v33.57l-23.3-1.492-20.842 14.23h-.975s-.023.244-.057.703l-5.8 3.961s1.968.754 5.522 2.025a159.74 159.74 0 0 0 .191 12.388c-.106.01-.21.023-.317.04-4.411.673-7.34 5.462-6.54 10.698l.997 6.56c.737 4.823 4.38 8.339 8.397 8.339.344 0 .692-.026 1.04-.08.091-.012.18-.029.272-.046 4.293 15.967 12.902 31.282 29.848 36.337v17.075c-.094 0-.187-.003-.283-.003-1.842 0-3.804.053-5.834.183l-.346-.592s-1.702-.51-4.622-.51c-3.914 0-10.014.913-17.135 5.184 0 0 .157.38.474 1.05-2.977.82-10.2 4.088-17.68 17.033z" id="as"/><path d="M412.782 249.192c-6.652-10.816-12.96-14.173-16.086-15.213.399-.786.6-1.238.6-1.238-7.12-4.27-13.222-5.184-17.135-5.184-2.921 0-4.624.51-4.624.51l-.382.626a92.327 92.327 0 0 0-6.768-.24h-.062v-17.05c17.157-5.116 25.768-20.751 30.007-36.93l.113.019c.348.053.696.078 1.04.078 4.02 0 7.66-3.515 8.397-8.338l1-6.56c.664-4.35-1.246-8.393-4.442-10.02 1.145-4.56 2.083-9.99 2.081-15.51-.002-4.51-.63-9.08-2.287-13.297l-48.492-5.08v1.976-33.57h.758c25.697 0 51.547 18.283 55.855 39.886 2.471 12.385 3.297 31.046 3.297 50.428.004 30.085-1.978 61.91-2.87 74.707z" id="au"/><path d="M313.018 175.193c-4.017 0-7.66-3.516-8.397-8.34l-.998-6.56c-.8-5.235 2.13-10.024 6.541-10.697.107-.017.21-.03.317-.04.414 7.613 1.469 16.66 3.849 25.511-.092.017-.18.034-.272.047a6.886 6.886 0 0 1-1.04.079z" id="aw"/><path d="M399.485 174.57c-.344 0-.692-.025-1.04-.078l-.113-.02c1.266-4.825 2.14-9.699 2.74-14.359a83.86 83.86 0 0 0 3.368-10.462c3.196 1.628 5.106 5.67 4.442 10.02l-1 6.56c-.737 4.824-4.378 8.34-8.397 8.34z" id="ay"/><path d="M276.799 393.873c-.27-37.084 1.832-65.603 5.212-87.52l22.28 4.162c-7.043 31.934-11.102 71.883-12.079 82.916l-.312.011c-.393-.847-.76-1.488-1.087-1.875l-13.987.935c0 .462-.008.919-.027 1.371zm7.365-99.764h-.007c4.1-20.686 9.41-34.31 14.594-43.285 7.482-12.945 14.704-16.212 17.68-17.034v.002c-5.037 1.393-22.25 9.815-32.267 60.317z" id="aA"/><path d="M295.611 439.476c-1.3-.002-2.915-.906-4.9-3.127-5.146-5.749-10.254-11.715-13.522-18.788-3.847-8.32-.717-15.213-.39-23.688.019-.452.027-.909.027-1.371l13.987-.935c.327.387.694 1.028 1.087 1.875 3.112 6.717 7.872 26.337 8.237 33.583.266 5.28-.874 12.451-4.526 12.451z" id="aC"/><path d="M435.707 393.873a36.46 36.46 0 0 1-.028-1.371l-13.989-.935c-.327.387-.692 1.028-1.085 1.875l-.312-.01c-.972-11.01-5.019-50.809-12.033-82.709l22.266-4.16c3.363 21.89 5.45 50.341 5.18 87.31zm-7.325-99.556c-9.63-48.78-25.971-58.432-31.686-60.336v-.002c3.127 1.04 9.434 4.397 16.086 15.213 5.505 8.957 11.246 23.03 15.606 45.125h-.006z" id="aE"/><path d="M416.894 439.476c-3.654 0-4.792-7.171-4.524-12.451.363-7.246 5.123-26.866 8.235-33.583.393-.847.758-1.488 1.085-1.875l13.989.935c0 .462.01.919.028 1.371.326 8.475 3.456 15.368-.391 23.688-3.268 7.073-8.376 13.04-13.52 18.788-1.985 2.22-3.603 3.127-4.902 3.127z" id="aG"/><path d="M356.181 229.238c-1.95-.254-6.417-.745-12.003-.76v-17.074c3.628 1.08 7.638 1.691 12.071 1.738h.005l-.003 16.014a9.517 9.517 0 0 0-.07.006v.076z" id="aI"/><path d="M356.251 229.156v-16.014h.003c4.428-.047 8.445-.658 12.071-1.738v17.05c-5.611.001-10.105.474-12.074.702z" id="aK"/><path d="M356.25 213.142c-4.434-.047-8.444-.658-12.072-1.738-16.946-5.055-25.555-20.37-29.848-36.337-2.38-8.85-3.435-17.898-3.849-25.511a159.74 159.74 0 0 1-.191-12.388c8.294 2.968 25.221 8.764 45.96 14.436v6.388h-.678c-1.573 0-3.148-.004-4.726-.01-.318 0-.686.042-1.025.042-.314 0-.605-.036-.813-.176-3.359-2.293-9.902-2.626-11.233-2.626h-.07c-1.149.01-6.372.507-9.482 1.002-3.136.497-6.15 1.371-9.229 2.063-.95.22-2.1 1.512-2.282 2.467-.163.847.664 2.512 1.435 2.775 3.348 1.16 3.71 3.56 3.681 6.451-.082 8.327 3.323 12.46 11.756 13.314a34.58 34.58 0 0 0 3.462.19c7.261 0 11.726-2.942 13.522-11.43.35-1.65.484-3.353.88-4.997.487-2.067 1.831-3.28 4.065-3.312l-4.979 18.449h5.715v8.914l-.186.07v-.021l-4.943-1.866-7.411 3.73 5.547 5.596 6.807 1.433v-5.233.02l.02-.005v5.237l.166-.034v13.107zm-20.613-32.226c-5.864 0-11.484-4.027-11.518-10.158-.006-.994-.278-1.987-.248-2.973.167-5.04 2.524-7.763 7.673-8.744 1.853-.35 3.783-.456 5.82-.505 1.999.102 4.137.236 6.221.637 2.527.486 4.219 2.05 4.884 4.507 1.513 5.596-2.058 13.3-7.334 15.952a12.216 12.216 0 0 1-5.498 1.284zm.58-19.51a4.195 4.195 0 0 0-4.198 4.197 4.197 4.197 0 1 0 8.393 0 4.195 4.195 0 0 0-4.196-4.197zm-25.65-30.224c.035-.459.058-.703.058-.703h.975l-1.032.703z" id="aM"/><path d="M356.25 213.142v-13.107l6.638-1.4 5.552-5.595h-.026l-7.411-3.728-4.754 1.796v-8.914h5.792l-4.928-18.245c1.463.433 2.36 1.544 2.716 3.202.286 1.35.397 2.738.635 4.101 1.327 7.611 4.79 11.42 11.776 12.19.792.087 1.597.13 2.408.13 2.114 0 4.27-.28 6.292-.75 4.926-1.138 7.54-4.564 8.185-9.37.246-1.82.284-3.67.38-5.512.095-1.846.79-3.271 2.72-3.908 1.621-.539 2.579-1.643 2.381-3.29l-.012-.096c1.927.374 3.86.737 5.798 1.085 0 0 .263-.578.68-1.618-.6 4.66-1.474 9.534-2.74 14.36-4.24 16.179-12.85 31.814-30.007 36.93-3.626 1.081-7.643 1.692-12.071 1.74h-.005zm18.343-32.343c-2.922 0-5.595-.968-7.762-3.032-3.671-3.492-5.051-7.977-4.716-12.835.266-3.815 3.077-5.963 7.514-6.258.458-.03.921-.038 1.382-.038.809 0 1.618.027 2.427.027 2.683.2 5.394.3 7.967.968 2.605.688 4.476 2.497 4.955 5.12 1.724 9.403-1.554 14.802-9.876 15.919-.641.085-1.272.13-1.891.13zm.834-19.393a4.194 4.194 0 0 0-4.195 4.197 4.196 4.196 0 1 0 8.392 0 4.195 4.195 0 0 0-4.197-4.197zm-19.178-3.414v-6.388a581.074 581.074 0 0 0 14.976 3.888c-3.002.065-5.965.607-8.814 2.224-.412.234-.969.26-1.512.26-.074 0-.147-.003-.219-.003h-.329c-1.37.013-2.734.017-4.102.02z" id="aO"/><path d="M356.181 259.949l-.078-.134c.023-.004.051-.006.078-.01l-18.12-31.146c2.03-.13 3.992-.183 5.834-.183.096 0 .19.003.283.003 5.586.014 10.052.505 12.003.76V259.948z" id="aQ"/><path d="M356.181 259.89v-30.728l.07-.006c1.969-.228 6.463-.7 12.074-.703h.062c2.123 0 4.403.066 6.768.24l-18.974 31.197z" id="aS"/><path id="aU" d="M356.141 486.234l46.518-.068h-.47l-36.08.053z"/><path d="M356.141 486.234h-.006.006zm-.006 0H309.65c-2.238-21.032-3.132-39.173-3.132-54.738.002-15.927.943-29.157 2.34-40.028.133.393.278.785.435 1.178 7.23 18.183 28.048 26.978 46.84 27.405v66.183z" id="aW"/><path d="M356.135 486.234v-66.183c.044.002.087.002.131.002V420h.075c18.876 0 39.673-9.175 46.9-27.354.097-.242.189-.484.278-.726 1.359 10.772 2.27 23.83 2.272 39.506.002 15.565-.894 33.708-3.132 54.74l-46.518.068h-.006z" id="aY"/><path d="M336.216 169.802a4.197 4.197 0 0 1-4.197-4.199 4.195 4.195 0 1 1 8.393 0c0 2.32-1.88 4.2-4.196 4.2z" id="ba"/><path d="M375.427 169.802a4.196 4.196 0 0 1-4.195-4.199 4.194 4.194 0 0 1 4.195-4.197 4.195 4.195 0 0 1 4.197 4.197c0 2.32-1.879 4.2-4.197 4.2z" id="bc"/><path d="M362.041 182.194h-11.507l4.979-18.449h.165a5.246 5.246 0 0 1 1.435.204l4.928 18.245z" id="be"/><path d="M307.226 298.417l-23.062-4.308c10.016-50.502 27.23-58.924 32.268-60.317.015.026.027.055.04.083-3.883 1.976-7.335 4.636-9.942 8.19-1.529 2.083-2.178 5.108-2.18 8.817-.009 8.517 3.392 20.64 7.385 33.252-1.598 4.201-3.101 9.035-4.509 14.283z" id="bg"/><path d="M405.334 298.623c-1.418-5.31-2.936-10.201-4.55-14.447 4-12.627 7.41-24.766 7.404-33.292-.005-3.709-.654-6.734-2.183-8.819-2.484-3.388-5.739-5.96-9.4-7.906l.09-.178c5.716 1.904 22.057 11.555 31.687 60.336l-23.048 4.306z" id="bi"/><path id="bk" d="M356.063 200.05l-6.807-1.433-5.547-5.596 12.354 1.796z"/><path id="bm" d="M356.084 200.07v-5.238l12.335-1.79-.005-.002h.026l-5.552 5.594-6.639 1.401z"/><path id="bo" d="M356.063 194.836v-.02l-12.354-1.795 7.411-3.73 4.943 1.866v.021l.186-.07 4.754-1.796 7.411 3.728.005.002-12.335 1.79z"/><path id="bq" d="M356.181 259.949l-.082-.134h.004l.078.134v-.057z"/><path d="M400.392 161.73c-1.939-.347-3.87-.71-5.798-1.084 0-.008-.003-.017-.005-.025 1.928.39 3.864.762 5.803 1.11zm-26.935-6.209a35.961 35.961 0 0 0-2.232-.03 581.074 581.074 0 0 1-14.976-3.887c-20.738-5.672-37.665-11.468-45.96-14.436-3.553-1.271-5.521-2.025-5.521-2.025l5.8-3.961 1.032-.703 20.842-14.23 23.3 1.492v32.388a380.68 380.68 0 0 0 17.715 5.392z" id="bs"/><path d="M400.392 161.73c-1.939-.347-3.875-.719-5.803-1.11-.252-1.683-1.524-2.343-3.286-2.602-3.834-.558-7.615-1.541-11.464-1.928-2.121-.214-4.257-.473-6.382-.569a380.68 380.68 0 0 1-17.715-5.392v-34.364l48.492 5.08c1.656 4.216 2.285 8.787 2.287 13.296.002 5.522-.936 10.95-2.08 15.51a83.86 83.86 0 0 1-3.37 10.462c-.416 1.04-.68 1.618-.68 1.618z" id="bu"/><path d="M356.266 420.053c-.044 0-.087 0-.131-.002-18.793-.427-39.612-9.222-46.84-27.405a25.036 25.036 0 0 1-1.784-9.37c.006-11.463 7.282-22.663 12.216-34.218l28.45-.058a10.553 10.553 0 0 0 8.004 3.722V420h.085v.053zm-8.088-84.746h-24.316c.198-1.448.306-2.912.306-4.381a28.507 28.507 0 0 0-.231-3.69c-1.438-11.212-7.272-27.53-12.202-43.102-3.993-12.613-7.394-24.735-7.385-33.252.002-3.709.651-6.734 2.18-8.817 2.607-3.554 6.06-6.214 9.942-8.19 2.465 5.167 13.819 26.242 35.15 26.244 1.447 0 2.94-.098 4.477-.304l.082.134v71.637a10.542 10.542 0 0 0-8.003 3.721z" id="bw"/><path d="M356.34 420h-.159v-67.278h.045c3.231 0 6.127-1.452 8.065-3.736h28.485c4.934 11.58 12.242 22.804 12.248 34.29a25.097 25.097 0 0 1-1.783 9.37C396.014 410.825 375.217 420 356.34 420zm32.333-84.693H364.28a10.554 10.554 0 0 0-8.055-3.721h-.045v-71.694a33.84 33.84 0 0 0 4.557.312c21.047 0 32.98-20.425 35.866-26.045 3.662 1.945 6.917 4.518 9.401 7.906 1.529 2.085 2.178 5.11 2.183 8.819.006 8.526-3.404 20.665-7.403 33.292-4.928 15.56-10.752 31.861-12.187 43.062a28.874 28.874 0 0 0-.233 3.69c.002 1.469.108 2.931.308 4.38z" id="by"/><path id="bA" d="M308.34 311.271l-4.05-.756-22.28-4.163-3.615-.675 2.285-12.217 3.477.65h.007l23.062 4.307 3.397.633z"/><path id="bC" d="M405.324 311.271l-2.285-12.221 2.295-.427 23.048-4.306h.006l4.597-.857 2.282 12.217-4.74.886-22.267 4.16z"/><path d="M351.621 260.119c-21.33-.002-32.684-21.077-35.149-26.244-.013-.028-.025-.057-.04-.083v-.002c-.317-.669-.474-1.049-.474-1.049 7.12-4.27 13.22-5.184 17.135-5.184 2.92 0 4.622.51 4.622.51l.346.592 18.12 31.146c-.027.004-.055.006-.078.01h-.004c-1.538.206-3.03.304-4.478.304z" id="bE"/><path d="M360.738 260.204c-1.476 0-2.992-.1-4.557-.312v-.002l18.974-31.197.382-.626s1.703-.51 4.624-.51c3.913 0 10.015.913 17.135 5.184 0 0-.201.452-.6 1.238v.002l-.092.178c-2.885 5.62-14.819 26.045-35.866 26.045z" id="bG"/><path d="M319.56 349.058l3.493-13.75h25.125a10.528 10.528 0 0 0-2.518 6.846c0 2.611.949 5.001 2.518 6.846l-28.451.058h-.168z" id="bI"/><path d="M393.407 348.986h-29.116a10.526 10.526 0 0 0 2.506-6.832c0-2.611-.947-5-2.516-6.847h25.396l3.73 13.679z" id="bK"/><path d="M356.226 352.722c.227 0 .227-21.136 0-21.136-5.834 0-10.566 4.732-10.566 10.568 0-2.611.947-5 2.518-6.847a10.542 10.542 0 0 1 8.003-3.721h.045c3.227 0 6.112 1.443 8.055 3.721a10.537 10.537 0 0 1 2.516 6.847c0 2.605-.943 4.989-2.506 6.832a10.555 10.555 0 0 1-8.065 3.736z" id="bM"/><path d="M356.226 352.722h-.045a10.553 10.553 0 0 1-8.003-3.722 10.534 10.534 0 0 1-2.518-6.846c0-5.836 4.732-10.568 10.566-10.568.227 0 .227 21.136 0 21.136z" id="bO"/><path d="M374.648 183.572c-.811 0-1.616-.043-2.408-.13-6.987-.77-10.45-4.579-11.776-12.19-.238-1.363-.349-2.751-.635-4.101-.357-1.658-1.253-2.769-2.716-3.202a5.246 5.246 0 0 0-1.435-.204h-.165c-2.234.032-3.578 1.245-4.066 3.312-.395 1.644-.529 3.346-.879 4.998-1.796 8.487-6.26 11.43-13.522 11.43a34.58 34.58 0 0 1-3.462-.191c-8.433-.854-11.838-4.987-11.756-13.314.028-2.89-.333-5.292-3.68-6.451-.772-.263-1.6-1.928-1.436-2.775.183-.955 1.331-2.248 2.282-2.467 3.079-.692 6.093-1.566 9.23-2.063 3.11-.495 8.332-.991 9.48-1.002h.07c1.332 0 7.875.333 11.234 2.626.208.14.499.176.813.176.34 0 .707-.042 1.025-.042 1.578.006 3.153.01 4.726.01h.677a539.81 539.81 0 0 0 4.102-.019h.33l.218.002c.543 0 1.1-.025 1.512-.259 2.849-1.617 5.812-2.159 8.814-2.224a35.961 35.961 0 0 1 2.231.03c2.126.095 4.262.354 6.383.568 3.849.387 7.63 1.37 11.464 1.928 1.762.259 3.034.919 3.286 2.603.002.008.005.017.005.025l.012.096c.198 1.647-.76 2.751-2.382 3.29-1.93.637-2.624 2.062-2.72 3.908-.095 1.841-.133 3.692-.38 5.512-.645 4.806-3.258 8.232-8.184 9.37-2.023.47-4.178.75-6.292.75zm-37.283-25.036c-2.038.049-3.968.155-5.821.505-5.149.981-7.506 3.705-7.673 8.744-.03.986.242 1.98.248 2.973.034 6.13 5.654 10.158 11.518 10.158 1.866 0 3.755-.408 5.498-1.284 5.276-2.652 8.847-10.356 7.334-15.952-.665-2.457-2.357-4.021-4.884-4.507-2.084-.401-4.222-.535-6.22-.637zm33.646.1c-.46 0-.924.008-1.382.038-4.437.295-7.248 2.443-7.514 6.258-.335 4.858 1.045 9.343 4.716 12.835 2.167 2.064 4.84 3.032 7.762 3.032.62 0 1.25-.044 1.891-.13 8.322-1.116 11.6-6.515 9.876-15.917-.48-2.624-2.35-4.433-4.955-5.12-2.573-.67-5.284-.77-7.967-.969-.81 0-1.618-.027-2.427-.027z" id="bQ"/></defs><g fill="none" fill-rule="evenodd"><mask id="b" fill="#fff"><use xlink:href="#a"/></mask><path fill="#DB957B" mask="url(#b)" d="M62.124 160.4h32.922v-48.697H62.124z"/><mask id="d" fill="#fff"><use xlink:href="#c"/></mask><path fill="#DB957B" mask="url(#d)" d="M162.83 159.744h32.808v-49.016h-32.809z"/><mask id="f" fill="#fff"><use xlink:href="#e"/></mask><path fill="#DB957B" mask="url(#f)" d="M26.005 391.395h57.347v-179.4H26.005z"/><mask id="h" fill="#fff"><use xlink:href="#g"/></mask><path fill="#DB957B" mask="url(#h)" d="M24.435 439.432H73.01v-72.825H24.435z"/><mask id="j" fill="#fff"><use xlink:href="#i"/></mask><path fill="#DB957B" mask="url(#j)" d="M174.556 391.424h56.956V208.538h-56.956z"/><mask id="l" fill="#fff"><use xlink:href="#k"/></mask><path fill="#DB957B" mask="url(#l)" d="M184.504 439.432h48.573v-72.825h-48.573z"/><mask id="n" fill="#fff"><use xlink:href="#m"/></mask><path fill="#109586" mask="url(#n)" d="M26.828 353.535h56.524V212.028H26.828z"/><mask id="p" fill="#fff"><use xlink:href="#o"/></mask><path fill="#29BAA0" mask="url(#p)" d="M174.558 357.877h56.26V208.614h-56.26z"/><mask id="r" fill="#fff"><use xlink:href="#q"/></mask><path fill="#DB957B" mask="url(#r)" d="M100.93 220.362h39.009v-42.925h-39.01z"/><mask id="t" fill="#fff"><use xlink:href="#s"/></mask><path fill="#ECAF9D" mask="url(#t)" d="M117.576 220.362h39.007v-42.887h-39.007z"/><mask id="v" fill="#fff"><use xlink:href="#u"/></mask><path fill="#E7A88D" mask="url(#v)" d="M71.364 202.992h68.483V89.82H71.364z"/><mask id="x" fill="#fff"><use xlink:href="#w"/></mask><path fill="#F2BCA6" mask="url(#x)" d="M117.482 203.023h69.534V89.855h-69.534z"/><mask id="z" fill="#fff"><use xlink:href="#y"/></mask><path fill="#03B0A1" mask="url(#z)" d="M55.002 368.345h84.85v-172.18h-84.85z"/><mask id="B" fill="#fff"><use xlink:href="#A"/></mask><path fill="#4CC0B1" mask="url(#B)" d="M117.661 419.38h84.822V196.698H117.66z"/><mask id="D" fill="#fff"><use xlink:href="#C"/></mask><path fill="#573411" mask="url(#D)" d="M66.388 652.194h68.253V353.186H66.388z"/><mask id="F" fill="#fff"><use xlink:href="#E"/></mask><path fill="#6B4825" mask="url(#F)" d="M122.872 652.194h68.25V353.186h-68.25z"/><mask id="H" fill="#fff"><use xlink:href="#G"/></mask><path fill="#3A1C0C" mask="url(#H)" d="M58.783 673.8h68.83v-43.967h-68.83z"/><mask id="J" fill="#fff"><use xlink:href="#I"/></mask><path fill="#573411" mask="url(#J)" d="M130.041 673.8h68.83v-43.967h-68.83z"/><mask id="L" fill="#fff"><use xlink:href="#K"/></mask><path fill="#141822" mask="url(#L)" d="M66.68 156.149h123.5V51.505H66.68z"/><mask id="N" fill="#fff"><use xlink:href="#M"/></mask><path fill="#0C1115" mask="url(#N)" d="M89.556 150.661h31.202V119.46H89.556z"/><mask id="P" fill="#fff"><use xlink:href="#O"/></mask><path fill="#0C1115" mask="url(#P)" d="M136.754 150.661h31.203V119.46h-31.203z"/><mask id="R" fill="#fff"><use xlink:href="#Q"/></mask><path fill="#CE866E" mask="url(#R)" d="M111.437 167.28h34.638v-47.766h-34.638z"/><mask id="T" fill="#fff"><use xlink:href="#S"/></mask><path fill="#C82D30" mask="url(#T)" d="M101.294 183.837h53.48v-28.891h-53.48z"/><mask id="V" fill="#fff"><use xlink:href="#U"/></mask><path fill="#03B0A1" mask="url(#V)" d="M19.737 368.428h55.446v-40.866H19.737z"/><mask id="X" fill="#fff"><use xlink:href="#W"/></mask><path fill="#4CC0B1" mask="url(#X)" d="M183.034 373.077H239.3V329.46h-56.266z"/><mask id="Z" fill="#fff"><use xlink:href="#Y"/></mask><path fill="#109586" mask="url(#Z)" d="M78.842 234.765h60.761v-47.898H78.842z"/><mask id="ab" fill="#fff"><use xlink:href="#aa"/></mask><path fill="#29BAA0" mask="url(#ab)" d="M116.82 234.765h61.184v-47.898H116.82z"/><mask id="ad" fill="#fff"><use xlink:href="#ac"/></mask><path fill="#573411" mask="url(#ad)" d="M69.9 419.38h69.951v-73.397h-69.95z"/><mask id="af" fill="#fff"><use xlink:href="#ae"/></mask><path fill="#6B4825" mask="url(#af)" d="M117.661 419.38h69.999v-66.194H117.66z"/><mask id="ah" fill="#fff"><use xlink:href="#ag"/></mask><path fill="#3A1C0C" mask="url(#ah)" d="M67.71 375.548h72.13V340.09H67.71z"/><mask id="aj" fill="#fff"><use xlink:href="#ai"/></mask><path fill="#573411" mask="url(#aj)" d="M117.478 375.548h72.128V340.09h-72.128z"/><mask id="al" fill="#fff"><use xlink:href="#ak"/></mask><path fill="#D58262" mask="url(#al)" d="M299.14 652.647h58.436V475.053H299.14z"/><mask id="an" fill="#fff"><use xlink:href="#am"/></mask><path fill="#302F39" mask="url(#an)" d="M289.256 673.163h66.479v-42.878h-66.479z"/><mask id="ap" fill="#fff"><use xlink:href="#ao"/></mask><path fill="#DF9270" mask="url(#ap)" d="M354.928 652.647h58.443V474.985h-58.443z"/><mask id="ar" fill="#fff"><use xlink:href="#aq"/></mask><path fill="#4D5153" mask="url(#ar)" d="M356.906 673.163h66.477v-42.878h-66.477z"/><mask id="at" fill="#fff"><use xlink:href="#as"/></mask><path fill="#360206" mask="url(#at)" d="M284.1 262.005h142.733V72.99H284.1z"/><mask id="av" fill="#fff"><use xlink:href="#au"/></mask><path fill="#61201C" mask="url(#av)" d="M344.56 260.373h82.273V72.99h-82.272z"/><mask id="ax" fill="#fff"><use xlink:href="#aw"/></mask><path fill="#D58262" mask="url(#ax)" d="M292.31 186.373h33.201v-47.998h-33.2z"/><mask id="az" fill="#fff"><use xlink:href="#ay"/></mask><path fill="#E39580" mask="url(#az)" d="M387.151 185.751h33.044v-47.28H387.15z"/><mask id="aB" fill="#fff"><use xlink:href="#aA"/></mask><path fill="#D58262" mask="url(#aB)" d="M265.594 405.054h62.019V222.609h-62.019z"/><mask id="aD" fill="#fff"><use xlink:href="#aC"/></mask><path fill="#D58262" mask="url(#aD)" d="M264.108 450.657h47.247v-70.27h-47.247z"/><mask id="aF" fill="#fff"><use xlink:href="#aE"/></mask><path fill="#D58262" mask="url(#aF)" d="M385.514 405.054h61.397V222.798h-61.397z"/><mask id="aH" fill="#fff"><use xlink:href="#aG"/></mask><path fill="#D58262" mask="url(#aH)" d="M401.151 450.657h47.247v-70.27H401.15z"/><mask id="aJ" fill="#fff"><use xlink:href="#aI"/></mask><path fill="#D58262" mask="url(#aJ)" d="M332.996 240.42h34.439v-40.197h-34.439z"/><mask id="aL" fill="#fff"><use xlink:href="#aK"/></mask><path fill="#E39580" mask="url(#aL)" d="M345.07 240.336h34.436v-40.113H345.07z"/><mask id="aN" fill="#fff"><use xlink:href="#aM"/></mask><path fill="#DF9270" mask="url(#aN)" d="M299.065 224.323h68.366V119.298h-68.366z"/><mask id="aP" fill="#fff"><use xlink:href="#aO"/></mask><path fill="#ECA388" mask="url(#aP)" d="M345.068 224.323h67.184v-83.9h-67.184z"/><mask id="aR" fill="#fff"><use xlink:href="#aQ"/></mask><path fill="#D58262" mask="url(#aR)" d="M326.88 271.13h40.483v-53.835H326.88z"/><mask id="aT" fill="#fff"><use xlink:href="#aS"/></mask><path fill="#E39580" mask="url(#aT)" d="M345 271.07h41.336v-53.798H345z"/><mask id="aV" fill="#fff"><use xlink:href="#aU"/></mask><path fill="#6B4825" mask="url(#aV)" d="M344.96 497.415h68.88v-22.43h-68.88z"/><mask id="aX" fill="#fff"><use xlink:href="#aW"/></mask><path fill="#573411" mask="url(#aX)" d="M295.338 497.415h71.984V380.287h-71.984z"/><mask id="aZ" fill="#fff"><use xlink:href="#aY"/></mask><path fill="#6B4825" mask="url(#aZ)" d="M344.953 497.415h72.019V380.739h-72.019z"/><mask id="bb" fill="#fff"><use xlink:href="#ba"/></mask><path fill="#0C1115" mask="url(#bb)" d="M320.838 180.983h30.755v-30.758h-30.755z"/><mask id="bd" fill="#fff"><use xlink:href="#bc"/></mask><path fill="#0C1115" mask="url(#bd)" d="M360.05 180.983h30.755v-30.758H360.05z"/><mask id="bf" fill="#fff"><use xlink:href="#be"/></mask><path fill="#C67256" mask="url(#bf)" d="M339.353 193.375h33.87v-40.81h-33.87z"/><mask id="bh" fill="#fff"><use xlink:href="#bg"/></mask><path fill="#E99535" mask="url(#bh)" d="M272.982 309.598h54.671V222.61h-54.67z"/><mask id="bj" fill="#fff"><use xlink:href="#bi"/></mask><path fill="#FBAD46" mask="url(#bj)" d="M385.423 309.803h54.14V222.8h-54.14z"/><mask id="bl" fill="#fff"><use xlink:href="#bk"/></mask><path fill="#813233" mask="url(#bl)" d="M332.527 211.23h34.717v-29.39h-34.717z"/><mask id="bn" fill="#fff"><use xlink:href="#bm"/></mask><path fill="#813233" mask="url(#bn)" d="M344.902 211.25h34.72v-29.39h-34.72z"/><mask id="bp" fill="#fff"><use xlink:href="#bo"/></mask><path fill="#984841" mask="url(#bp)" d="M332.527 206.017H379.6V178.11h-47.073z"/><mask id="br" fill="#fff"><use xlink:href="#bq"/></mask><path fill="#FEC582" mask="url(#br)" d="M344.917 271.13h22.446v-22.496h-22.446z"/><mask id="bt" fill="#fff"><use xlink:href="#bs"/></mask><path fill="#360206" mask="url(#bt)" d="M293.586 172.912h117.987v-67.844H293.586z"/><mask id="bv" fill="#fff"><use xlink:href="#bu"/></mask><path fill="#61201C" mask="url(#bv)" d="M344.56 172.912h73.142v-68.328h-73.141z"/><mask id="bx" fill="#fff"><use xlink:href="#bw"/></mask><path fill="#FBAD46" mask="url(#bx)" d="M293.168 431.234h74.28v-208.54h-74.28z"/><mask id="bz" fill="#fff"><use xlink:href="#by"/></mask><path fill="#FEC582" mask="url(#bz)" d="M345 431.181h74.369V222.98H345z"/><mask id="bB" fill="#fff"><use xlink:href="#bA"/></mask><path fill="#FBAD46" mask="url(#bB)" d="M267.214 322.452h54.59V282.28h-54.59z"/><mask id="bD" fill="#fff"><use xlink:href="#bC"/></mask><path fill="#FEC582" mask="url(#bD)" d="M391.858 322.452h54.59V282.28h-54.59z"/><mask id="bF" fill="#fff"><use xlink:href="#bE"/></mask><path fill="#FEC582" mask="url(#bF)" d="M304.777 271.3h62.586v-54.924h-62.586z"/><mask id="bH" fill="#fff"><use xlink:href="#bG"/></mask><path fill="#FFDBB3" mask="url(#bH)" d="M345 271.385h63.478v-55.009H345z"/><mask id="bJ" fill="#fff"><use xlink:href="#bI"/></mask><path fill="#573411" mask="url(#bJ)" d="M308.378 360.238h50.98v-36.112h-50.98z"/><mask id="bL" fill="#fff"><use xlink:href="#bK"/></mask><path fill="#6B4825" mask="url(#bL)" d="M353.1 360.166h51.488v-36.04H353.1z"/><mask id="bN" fill="#fff"><use xlink:href="#bM"/></mask><path fill="#FFDBB3" mask="url(#bN)" d="M334.478 363.903h43.5v-43.498h-43.5z"/><mask id="bP" fill="#fff"><use xlink:href="#bO"/></mask><path fill="#FEC582" mask="url(#bP)" d="M334.478 363.903h33.1v-43.498h-33.1z"/><mask id="bR" fill="#fff"><use xlink:href="#bQ"/></mask><path fill="#FFDBB3" mask="url(#bR)" d="M305.51 194.752h100.303v-50.711H305.51z"/></g></svg>