<?xml version="1.0" encoding="UTF-8"?>
<svg width="320px" height="215px" viewBox="0 0 320 215" version="1.1" xmlns="http://www.w3.org/2000/svg" xmlns:xlink="http://www.w3.org/1999/xlink">
    <!-- Generator: Sketch 43.2 (39069) - http://www.bohemiancoding.com/sketch -->
    <title>happy teacher</title>
    <desc>Created with Sketch.</desc>
    <defs></defs>
    <g id="Page-1" stroke="none" stroke-width="1" fill="none" fill-rule="evenodd">
        <g id="happy-teacher">
            <path d="M319.813,142.017 C319.813,145.331 317.126,148.017 313.812,148.017 L6.48,148.017 C3.166,148.017 0.479,145.331 0.479,142.017 L0.479,6.683 C0.479,3.37 3.166,0.683 6.48,0.683 L313.812,0.683 C317.126,0.683 319.813,3.37 319.813,6.683 L319.813,142.017" id="Fill-5" fill="#A15E45"></path>
            <path d="M309.146,133.311 C309.146,136.186 306.64,138.517 303.547,138.517 L16.745,138.517 C13.652,138.517 11.145,136.186 11.145,133.311 L11.145,15.889 C11.145,13.014 13.652,10.683 16.745,10.683 L303.547,10.683 C306.64,10.683 309.146,13.014 309.146,15.889 L309.146,133.311" id="Fill-6" fill="#433C39"></path>
            <polygon id="Fill-51" fill="#95744B" points="250.177 57.728 283.364 57.728 283.364 24.539 250.177 24.539"></polygon>
            <path d="M267.97,84.906 C267.417,84.906 266.97,84.458 266.97,83.906 L266.97,69.799 C266.97,69.246 267.417,68.799 267.97,68.799 C268.522,68.799 268.97,69.246 268.97,69.799 L268.97,83.906 C268.97,84.458 268.522,84.906 267.97,84.906" id="Fill-53" fill="#95744B"></path>
            <path d="M244.674,81.189 C244.503,81.189 244.33,81.145 244.171,81.052 C243.694,80.774 243.533,80.162 243.811,79.685 L250.912,67.497 C251.098,67.178 251.433,67 251.777,67 C251.948,67 252.121,67.044 252.28,67.136 C252.757,67.414 252.918,68.026 252.64,68.503 L245.539,80.692 C245.353,81.011 245.018,81.189 244.674,81.189" id="Fill-54" fill="#95744B"></path>
            <path d="M227.024,63.533 C226.681,63.533 226.346,63.356 226.16,63.038 C225.881,62.561 226.042,61.949 226.518,61.67 L238.695,54.546 C238.854,54.453 239.028,54.409 239.199,54.409 C239.543,54.409 239.877,54.586 240.063,54.904 C240.342,55.381 240.182,55.993 239.705,56.272 L227.528,63.396 C227.37,63.489 227.196,63.533 227.024,63.533" id="Fill-55" fill="#95744B"></path>
            <path d="M237.401,39.135 L223.294,39.135 C222.742,39.135 222.294,38.687 222.294,38.135 C222.294,37.582 222.742,37.135 223.294,37.135 L237.401,37.135 C237.953,37.135 238.401,37.582 238.401,38.135 C238.401,38.687 237.953,39.135 237.401,39.135" id="Fill-56" fill="#95744B"></path>
            <path d="M56.912,48.443 C56.891,47.433 56.856,46.804 56.856,46.794 C56.854,46.761 56.85,46.727 56.845,46.695 C57.106,46.933 57.61,47.402 58.252,48.029 C58.036,48.141 57.807,48.234 57.566,48.306 C57.349,48.371 57.13,48.416 56.912,48.443 M54.49,47.96 C54.378,47.897 54.269,47.828 54.164,47.754 C54.268,47.645 54.364,47.543 54.451,47.45 C54.465,47.578 54.478,47.753 54.49,47.96 M59.896,46.43 C59.737,46.286 59.59,46.156 59.454,46.041 C59.25,45.872 59.086,45.738 58.869,45.612 C58.747,45.542 58.616,45.501 58.485,45.487 C58.392,45.401 58.311,45.326 58.242,45.263 C58.267,45.202 58.289,45.14 58.308,45.077 C58.473,45.197 58.676,45.267 58.893,45.267 C58.911,45.267 58.93,45.266 58.949,45.265 C58.949,45.265 59.02,45.261 59.163,45.255 C59.392,45.244 59.796,45.229 60.328,45.216 C60.251,45.644 60.104,46.054 59.896,46.43 M52.73,45.9 C52.699,45.817 52.671,45.733 52.645,45.648 C52.61,45.53 52.581,45.412 52.557,45.294 C52.577,45.293 52.597,45.291 52.616,45.289 C52.88,45.266 53.091,45.246 53.33,45.185 C53.709,45.171 53.926,45.159 53.931,45.159 C54.158,45.146 54.362,45.059 54.523,44.923 C54.533,44.974 54.546,45.024 54.562,45.075 L54.562,45.076 C54.574,45.116 54.587,45.156 54.601,45.195 C54.501,45.163 54.397,45.146 54.293,45.146 C54.088,45.146 53.882,45.21 53.709,45.334 C53.687,45.333 53.665,45.332 53.643,45.332 C53.294,45.332 52.956,45.514 52.772,45.839 L52.747,45.875 C52.742,45.883 52.736,45.891 52.73,45.9 M54.707,43.603 C54.618,43.47 54.497,43.361 54.357,43.283 C54.504,43.229 54.64,43.139 54.752,43.014 C54.808,42.951 54.855,42.883 54.893,42.811 C55.037,42.728 55.162,42.608 55.253,42.456 C55.342,42.482 55.436,42.496 55.533,42.496 C55.552,42.496 55.571,42.496 55.59,42.495 C55.916,42.476 56.197,42.303 56.366,42.051 C56.799,41.847 57.035,41.356 56.903,40.88 L56.892,40.82 C56.882,40.764 56.873,40.685 56.864,40.585 C57.081,40.608 57.295,40.65 57.504,40.709 C57.435,40.787 57.369,40.862 57.309,40.934 C57.139,41.138 57.005,41.301 56.879,41.518 C56.672,41.884 56.72,42.326 56.967,42.636 C56.796,42.587 56.618,42.562 56.437,42.561 C56.252,42.561 56.065,42.587 55.876,42.644 C55.353,42.799 54.944,43.155 54.707,43.603 M58.157,43.59 C58.036,43.363 57.872,43.168 57.68,43.01 C57.703,43.011 57.725,43.012 57.748,43.012 C57.79,43.012 57.832,43.009 57.873,43.004 C57.908,43.008 57.944,43.01 57.979,43.01 C58.254,43.01 58.527,42.897 58.725,42.677 L58.815,42.577 C58.925,42.456 59.133,42.229 59.421,41.924 C59.658,42.196 59.859,42.503 60.017,42.841 C59.889,42.848 59.769,42.856 59.655,42.866 C59.381,42.89 59.164,42.911 58.913,42.978 C58.644,43.053 58.431,43.231 58.305,43.458 C58.252,43.497 58.202,43.541 58.157,43.59 M52.704,43.204 C52.764,43.033 52.836,42.867 52.919,42.706 C53.183,42.95 53.336,43.087 53.34,43.092 C53.376,43.124 53.413,43.153 53.452,43.179 C53.265,43.186 53.012,43.195 52.704,43.204" id="Fill-57" fill="#6B8B86"></path>
            <path d="M57.748,43.012 C57.725,43.012 57.703,43.011 57.68,43.01 C57.535,43 57.39,42.958 57.256,42.882 C57.141,42.817 57.045,42.733 56.967,42.636 C56.72,42.326 56.672,41.884 56.879,41.518 C57.005,41.301 57.139,41.138 57.309,40.934 C57.369,40.862 57.435,40.787 57.504,40.709 C57.625,40.571 57.758,40.424 57.903,40.266 C58.357,39.771 58.921,39.171 59.523,38.497 C60.725,37.152 62.075,35.504 62.924,33.929 C63.494,32.881 63.822,31.876 63.817,31.082 C63.813,30.51 63.676,30.051 63.338,29.599 C62.352,28.301 61.496,27.423 60.805,26.902 C60.119,26.381 59.623,26.233 59.327,26.233 L59.316,26.233 C59.105,26.236 58.956,26.285 58.762,26.419 C58.573,26.553 58.356,26.793 58.146,27.145 C57.722,27.845 57.357,28.967 57.103,30.258 C56.796,31.79 56.628,33.557 56.543,35.225 C56.444,34.278 56.303,33.298 56.095,32.351 C55.88,31.386 55.598,30.449 55.196,29.599 C55.364,28.812 55.57,28.065 55.827,27.386 C56.234,26.332 56.753,25.41 57.597,24.793 C58.073,24.448 58.672,24.233 59.301,24.233 L59.316,24.233 C60.224,24.236 61.11,24.626 62.011,25.307 C62.917,25.994 63.869,26.997 64.93,28.389 C65.549,29.197 65.822,30.152 65.817,31.082 C65.815,32.117 65.514,33.129 65.068,34.109 C64.945,34.198 64.822,34.289 64.7,34.381 C60.89,37.251 57.258,41.32 57.234,41.343 C56.866,41.754 56.901,42.387 57.313,42.755 C57.475,42.9 57.672,42.983 57.873,43.004 C57.832,43.009 57.79,43.012 57.748,43.012 M55.533,42.496 C55.436,42.496 55.342,42.482 55.253,42.456 C55.257,42.449 55.26,42.443 55.264,42.436 C55.345,42.293 55.387,42.138 55.393,41.984 C55.553,42.088 55.742,42.147 55.939,42.147 C56.027,42.147 56.117,42.135 56.206,42.11 C56.262,42.095 56.315,42.075 56.366,42.051 C56.197,42.303 55.916,42.476 55.59,42.495 C55.571,42.496 55.552,42.496 55.533,42.496 M54.909,41.088 C54.901,41.083 54.894,41.078 54.886,41.074 L54.85,41.05 C54.782,41.003 54.659,40.904 54.503,40.769 C54.484,40.216 54.465,39.401 54.464,38.426 C54.465,37.494 54.483,36.417 54.537,35.282 C54.61,35.949 54.661,36.611 54.698,37.237 C54.754,38.176 54.781,39.038 54.811,39.739 C54.826,40.091 54.842,40.401 54.864,40.672 C54.877,40.823 54.89,40.956 54.909,41.088" id="Fill-58" fill="#6B8B86"></path>
            <path d="M41.602,56.544 C41.116,56.544 40.62,56.45 40.164,56.222 C39.707,55.995 39.307,55.635 39.011,55.187 C38.417,54.283 38.177,53.095 38.172,51.525 C38.172,50.719 38.24,49.807 38.381,48.77 C38.476,48.067 38.737,47.425 39.115,46.884 C39.493,46.342 39.978,45.899 40.521,45.533 C41.102,45.144 41.747,44.837 42.432,44.589 C43.351,44.765 44.317,44.891 45.286,44.987 C47.258,45.179 49.238,45.23 50.806,45.23 C51.893,45.23 52.781,45.205 53.33,45.185 C53.091,45.246 52.88,45.266 52.616,45.289 C52.597,45.291 52.577,45.293 52.557,45.294 C52.301,45.314 52.01,45.328 51.684,45.342 C50.983,45.372 50.121,45.399 49.182,45.455 C47.306,45.565 45.112,45.803 43.401,46.37 C42.257,46.743 41.361,47.265 40.877,47.867 C40.597,48.214 40.428,48.577 40.363,49.04 C40.231,50.006 40.172,50.833 40.172,51.525 C40.17,52.54 40.304,53.262 40.486,53.711 C40.674,54.164 40.861,54.329 41.058,54.433 C41.194,54.5 41.365,54.543 41.606,54.544 L41.641,54.544 C42.306,54.544 43.418,54.124 44.612,53.384 C45.833,52.639 47.16,51.604 48.397,50.53 C48.746,50.228 49.087,49.923 49.417,49.62 C49.044,50.065 48.669,50.532 48.307,51.014 C47.592,51.966 46.924,52.98 46.422,54.025 C46.295,54.29 46.179,54.557 46.075,54.826 C45.294,55.331 44.516,55.759 43.752,56.068 C43.035,56.355 42.325,56.542 41.606,56.544 L41.602,56.544 M50.866,51.005 C51.202,50.602 51.541,50.213 51.868,49.847 C52.47,49.173 53.034,48.573 53.487,48.078 C53.715,47.83 53.914,47.609 54.082,47.409 C54.196,47.272 54.294,47.153 54.385,47.024 C54.388,47.096 54.4,47.169 54.42,47.242 L54.432,47.302 C54.438,47.34 54.445,47.39 54.451,47.45 C54.364,47.543 54.268,47.645 54.164,47.754 C53.414,48.545 52.239,49.744 50.866,51.005 M54.641,46.305 C54.632,45.966 54.451,45.641 54.135,45.462 C54,45.386 53.854,45.344 53.709,45.334 C53.882,45.21 54.088,45.146 54.293,45.146 C54.397,45.146 54.501,45.163 54.601,45.195 C54.73,45.237 54.853,45.305 54.96,45.401 C55.136,45.559 55.243,45.764 55.279,45.98 C55.225,45.986 55.17,45.996 55.116,46.011 C54.926,46.064 54.764,46.168 54.641,46.305" id="Fill-59" fill="#6B8B86"></path>
            <path d="M52.09,64.112 L52.074,64.112 C51.167,64.109 50.281,63.719 49.379,63.038 C48.474,62.351 47.522,61.349 46.462,59.957 C45.842,59.149 45.569,58.194 45.574,57.263 C45.576,56.435 45.769,55.621 46.075,54.826 C46.179,54.557 46.295,54.29 46.422,54.025 C46.924,52.98 47.592,51.966 48.307,51.014 C48.669,50.532 49.044,50.065 49.417,49.62 C50.515,48.312 51.592,47.198 52.244,46.472 C52.473,46.219 52.65,46.009 52.73,45.9 C52.736,45.891 52.742,45.883 52.747,45.875 L52.772,45.839 C52.956,45.514 53.294,45.332 53.643,45.332 C53.665,45.332 53.687,45.333 53.709,45.334 C53.854,45.344 54,45.386 54.135,45.462 C54.451,45.641 54.632,45.966 54.641,46.305 C54.467,46.498 54.371,46.756 54.385,47.024 C54.294,47.153 54.196,47.272 54.082,47.409 C53.914,47.609 53.715,47.83 53.487,48.078 C53.034,48.573 52.47,49.173 51.868,49.847 C51.541,50.213 51.202,50.602 50.866,51.005 C49.968,52.084 49.085,53.269 48.467,54.416 C47.897,55.464 47.569,56.469 47.574,57.263 C47.578,57.835 47.715,58.294 48.054,58.746 C49.04,60.045 49.895,60.923 50.586,61.443 C51.272,61.964 51.767,62.113 52.063,62.113 L52.074,62.113 C52.286,62.109 52.435,62.06 52.629,61.926 C52.818,61.792 53.035,61.552 53.245,61.2 C53.669,60.498 54.034,59.377 54.288,58.085 C54.579,56.632 54.745,54.969 54.834,53.378 C54.929,54.173 55.055,54.982 55.228,55.769 C55.423,56.642 55.672,57.494 56.017,58.278 C55.954,58.266 55.89,58.26 55.825,58.26 C55.811,58.26 55.797,58.26 55.783,58.261 C55.231,58.283 54.802,58.749 54.825,59.301 C54.825,59.302 54.841,59.689 54.865,60.407 C54.881,60.893 54.901,61.528 54.922,62.293 C54.62,62.785 54.255,63.214 53.794,63.551 C53.318,63.897 52.718,64.112 52.09,64.112 M56.841,53.312 C56.738,52.486 56.671,51.657 56.626,50.883 C56.57,49.943 56.543,49.082 56.513,48.381 C56.497,48.03 56.482,47.719 56.459,47.449 C56.435,47.174 56.414,46.957 56.347,46.707 C56.224,46.264 55.822,45.974 55.384,45.974 L55.373,45.974 C55.501,45.904 55.646,45.86 55.802,45.851 C55.821,45.85 55.84,45.85 55.858,45.85 C56.031,45.85 56.195,45.894 56.337,45.972 C56.379,46.176 56.484,46.368 56.65,46.518 L56.75,46.608 C56.777,46.632 56.809,46.661 56.845,46.695 C56.85,46.727 56.854,46.761 56.856,46.794 C56.856,46.804 56.891,47.433 56.912,48.443 C56.921,48.871 56.927,49.367 56.927,49.914 C56.927,50.915 56.906,52.084 56.841,53.312" id="Fill-60" fill="#6B8B86"></path>
            <path d="M62.694,61.894 C61.889,61.894 60.978,61.826 59.941,61.685 C59.237,61.591 58.596,61.329 58.055,60.951 C57.58,60.62 57.18,60.206 56.843,59.744 C56.831,59.402 56.823,59.22 56.823,59.219 C56.804,58.747 56.461,58.365 56.017,58.278 C55.672,57.494 55.423,56.642 55.228,55.769 C55.055,54.982 54.929,54.173 54.834,53.378 C54.601,51.41 54.565,49.535 54.508,48.324 C54.502,48.195 54.496,48.072 54.49,47.96 C54.478,47.753 54.465,47.578 54.451,47.45 C54.445,47.39 54.438,47.34 54.432,47.302 L54.42,47.242 C54.4,47.169 54.388,47.096 54.385,47.024 C54.371,46.756 54.467,46.498 54.641,46.305 C54.764,46.168 54.926,46.064 55.116,46.011 C55.17,45.996 55.225,45.986 55.279,45.98 C55.31,45.977 55.342,45.975 55.373,45.974 L55.384,45.974 C55.822,45.974 56.224,46.264 56.347,46.707 C56.414,46.957 56.435,47.174 56.459,47.449 C56.482,47.719 56.497,48.03 56.513,48.381 C56.543,49.082 56.57,49.943 56.626,50.883 C56.671,51.657 56.738,52.486 56.841,53.312 C56.988,54.488 57.207,55.659 57.54,56.664 C57.914,57.808 58.436,58.705 59.038,59.189 C59.385,59.469 59.748,59.638 60.211,59.703 C61.177,59.835 62.002,59.894 62.694,59.894 L62.712,59.894 C63.718,59.894 64.435,59.761 64.881,59.58 C65.335,59.392 65.499,59.205 65.603,59.008 C65.671,58.872 65.714,58.701 65.714,58.459 C65.729,57.799 65.307,56.669 64.554,55.454 C63.809,54.232 62.774,52.905 61.7,51.668 C60.481,50.262 59.212,48.968 58.252,48.029 C57.61,47.402 57.106,46.933 56.845,46.695 C56.809,46.661 56.777,46.632 56.75,46.608 L56.65,46.518 C56.484,46.368 56.379,46.176 56.337,45.972 C56.277,45.673 56.353,45.35 56.572,45.105 C56.77,44.885 57.043,44.772 57.318,44.772 C57.555,44.772 57.793,44.857 57.984,45.027 C57.988,45.031 58.079,45.113 58.242,45.263 C58.311,45.326 58.392,45.401 58.485,45.487 C58.449,45.483 58.413,45.481 58.377,45.481 C58.028,45.481 57.69,45.664 57.506,45.988 C57.234,46.469 57.402,47.079 57.883,47.351 L57.919,47.376 C58.02,47.445 58.243,47.632 58.516,47.879 C59.49,48.753 61.159,50.389 63.058,51.816 C63.889,52.44 64.766,53.028 65.671,53.501 C66.317,54.445 66.865,55.39 67.238,56.313 C67.525,57.031 67.712,57.741 67.714,58.459 C67.715,58.947 67.621,59.445 67.392,59.902 C67.166,60.359 66.805,60.759 66.357,61.055 C65.453,61.649 64.265,61.889 62.694,61.894" id="Fill-61" fill="#6B8B86"></path>
            <path d="M50.806,45.23 C49.238,45.23 47.258,45.179 45.286,44.987 C44.317,44.891 43.351,44.765 42.432,44.589 C41.478,44.407 40.574,44.173 39.767,43.867 C38.713,43.46 37.791,42.941 37.174,42.097 C36.826,41.618 36.61,41.012 36.614,40.378 C36.617,39.471 37.007,38.585 37.688,37.683 C38.375,36.778 39.378,35.826 40.769,34.766 C41.57,34.151 42.517,33.878 43.44,33.878 L43.463,33.878 C44.108,33.879 44.744,33.997 45.369,34.193 C45.68,34.671 46.02,35.15 46.378,35.627 C47.042,36.509 47.771,37.381 48.498,38.201 C47.778,37.66 47.036,37.162 46.31,36.771 C45.27,36.205 44.272,35.878 43.481,35.878 L43.463,35.878 C42.891,35.882 42.432,36.019 41.98,36.357 C40.682,37.344 39.804,38.199 39.283,38.89 C38.756,39.585 38.61,40.084 38.614,40.378 C38.617,40.59 38.666,40.739 38.8,40.932 C38.934,41.121 39.174,41.339 39.526,41.548 C40.226,41.972 41.347,42.337 42.638,42.591 C45.21,43.106 48.444,43.23 50.761,43.23 L50.806,43.23 C51.551,43.23 52.2,43.218 52.704,43.204 C53.012,43.195 53.265,43.186 53.452,43.179 C53.62,43.291 53.814,43.347 54.007,43.347 C54.126,43.347 54.245,43.325 54.357,43.283 C54.497,43.361 54.618,43.47 54.707,43.603 C54.804,43.748 54.864,43.919 54.874,44.105 C54.892,44.43 54.753,44.727 54.523,44.923 C54.362,45.059 54.158,45.146 53.931,45.159 C53.926,45.159 53.709,45.171 53.33,45.185 C52.781,45.205 51.893,45.23 50.806,45.23 M54.893,42.811 C55.101,42.415 55.022,41.913 54.674,41.602 L54.574,41.512 C54.094,41.075 51.94,39.084 49.862,36.724 C51.698,38.124 53.306,39.697 54.253,40.548 C54.343,40.629 54.427,40.703 54.503,40.769 C54.659,40.904 54.782,41.003 54.85,41.05 L54.886,41.074 C54.894,41.078 54.901,41.083 54.909,41.088 C54.925,41.195 54.946,41.301 54.976,41.413 C55.043,41.658 55.196,41.856 55.393,41.984 C55.387,42.138 55.345,42.293 55.264,42.436 C55.26,42.443 55.257,42.449 55.253,42.456 C55.162,42.608 55.037,42.728 54.893,42.811" id="Fill-62" fill="#6B8B86"></path>
            <path d="M69.33,54.549 L69.307,54.549 C68.198,54.546 67.115,54.201 66.069,53.702 C65.936,53.637 65.803,53.571 65.671,53.501 C64.766,53.028 63.889,52.44 63.058,51.816 C61.159,50.389 59.49,48.753 58.516,47.879 C58.243,47.632 58.02,47.445 57.919,47.376 L57.883,47.351 C57.402,47.079 57.234,46.469 57.506,45.988 C57.69,45.664 58.028,45.481 58.377,45.481 C58.413,45.481 58.449,45.483 58.485,45.487 C58.616,45.501 58.747,45.542 58.869,45.612 C59.086,45.738 59.25,45.872 59.454,46.041 C59.59,46.156 59.737,46.286 59.896,46.43 C59.969,46.496 60.044,46.564 60.123,46.636 C60.618,47.09 61.218,47.654 61.892,48.255 C63.236,49.458 64.885,50.807 66.46,51.656 C67.5,52.222 68.497,52.549 69.289,52.549 L69.307,52.549 C69.879,52.545 70.338,52.408 70.79,52.069 C72.088,51.083 72.966,50.228 73.487,49.537 C74.014,48.842 74.16,48.343 74.156,48.048 C74.153,47.837 74.103,47.688 73.969,47.495 C73.835,47.305 73.596,47.088 73.244,46.878 C72.543,46.454 71.422,46.09 70.132,45.835 C67.56,45.32 64.326,45.197 62.008,45.197 L61.963,45.197 C61.342,45.197 60.787,45.205 60.328,45.216 C59.796,45.229 59.392,45.244 59.163,45.255 C59.02,45.261 58.949,45.265 58.949,45.265 C58.93,45.266 58.911,45.267 58.893,45.267 C58.676,45.267 58.473,45.197 58.308,45.077 C58.072,44.907 57.912,44.635 57.895,44.322 C57.88,44.042 57.981,43.782 58.157,43.59 C58.202,43.541 58.252,43.497 58.305,43.458 C58.183,43.679 58.144,43.946 58.217,44.209 C58.34,44.651 58.742,44.942 59.18,44.942 C59.269,44.942 59.359,44.93 59.448,44.905 L59.508,44.894 C59.671,44.866 60.052,44.838 60.53,44.817 C62.23,44.738 65.24,44.7 67.976,44.098 C68.489,43.983 68.995,43.85 69.484,43.69 C70.751,43.888 71.958,44.164 73.003,44.56 C74.056,44.967 74.979,45.486 75.595,46.33 C75.944,46.809 76.16,47.415 76.156,48.048 C76.152,48.956 75.763,49.842 75.082,50.743 C74.395,51.649 73.393,52.601 72.001,53.661 C71.199,54.276 70.253,54.549 69.33,54.549" id="Fill-63" fill="#6B8B86"></path>
            <path d="M54.007,43.347 C53.814,43.347 53.62,43.291 53.452,43.179 C53.413,43.153 53.376,43.124 53.34,43.092 C53.336,43.087 53.183,42.95 52.919,42.706 C52.123,41.968 50.313,40.246 48.498,38.201 C47.771,37.381 47.042,36.509 46.378,35.627 C46.02,35.15 45.68,34.671 45.369,34.193 C44.846,33.391 44.402,32.591 44.085,31.806 C43.798,31.089 43.611,30.379 43.609,29.66 C43.609,29.173 43.702,28.675 43.931,28.218 C44.157,27.761 44.518,27.361 44.966,27.065 C45.87,26.471 47.058,26.231 48.629,26.226 C49.434,26.226 50.345,26.294 51.382,26.435 C52.086,26.529 52.727,26.791 53.268,27.169 C53.81,27.546 54.254,28.032 54.619,28.575 C54.836,28.898 55.027,29.241 55.196,29.599 C55.598,30.449 55.88,31.386 56.095,32.351 C56.303,33.298 56.444,34.278 56.543,35.225 C56.729,37.014 56.763,38.685 56.815,39.797 C56.829,40.114 56.846,40.388 56.864,40.585 C56.873,40.685 56.882,40.764 56.892,40.82 L56.903,40.88 C57.035,41.356 56.799,41.847 56.366,42.051 C56.315,42.075 56.262,42.095 56.206,42.11 C56.117,42.135 56.027,42.147 55.939,42.147 C55.742,42.147 55.553,42.088 55.393,41.984 C55.196,41.856 55.043,41.658 54.976,41.413 C54.946,41.301 54.925,41.195 54.909,41.088 C54.89,40.956 54.877,40.823 54.864,40.672 C54.842,40.401 54.826,40.091 54.811,39.739 C54.781,39.038 54.754,38.176 54.698,37.237 C54.661,36.611 54.61,35.949 54.537,35.282 C54.392,33.95 54.161,32.595 53.783,31.455 C53.409,30.311 52.887,29.415 52.285,28.931 C51.938,28.651 51.575,28.482 51.112,28.417 C50.146,28.285 49.32,28.226 48.629,28.226 L48.611,28.226 C47.605,28.226 46.888,28.359 46.442,28.54 C45.989,28.728 45.824,28.915 45.72,29.112 C45.653,29.248 45.61,29.419 45.609,29.66 C45.594,30.321 46.016,31.451 46.769,32.666 C47.514,33.887 48.549,35.214 49.623,36.451 C49.703,36.543 49.782,36.634 49.862,36.724 C51.94,39.084 54.094,41.075 54.574,41.512 L54.674,41.602 C55.022,41.913 55.101,42.415 54.893,42.811 C54.855,42.883 54.808,42.951 54.752,43.014 C54.64,43.139 54.504,43.229 54.357,43.283 C54.245,43.325 54.126,43.347 54.007,43.347" id="Fill-64" fill="#6B8B86"></path>
            <path d="M59.18,44.942 C58.742,44.942 58.34,44.651 58.217,44.209 C58.144,43.946 58.183,43.679 58.305,43.458 C58.431,43.231 58.644,43.053 58.913,42.978 C59.164,42.911 59.381,42.89 59.655,42.866 C59.769,42.856 59.889,42.848 60.017,42.841 C60.194,42.83 60.384,42.821 60.588,42.813 C61.289,42.783 62.151,42.756 63.09,42.7 C64.966,42.59 67.161,42.353 68.871,41.786 C70.015,41.413 70.911,40.891 71.395,40.289 C71.676,39.942 71.844,39.579 71.91,39.116 C72.041,38.149 72.101,37.323 72.101,36.631 C72.102,35.616 71.968,34.893 71.786,34.445 C71.598,33.991 71.412,33.827 71.215,33.723 C71.079,33.656 70.907,33.613 70.666,33.612 L70.632,33.612 C69.967,33.612 68.855,34.032 67.661,34.772 C66.44,35.517 65.113,36.552 63.875,37.626 C61.998,39.254 60.321,40.97 59.421,41.924 C59.133,42.229 58.925,42.456 58.815,42.577 L58.725,42.677 C58.527,42.897 58.254,43.01 57.979,43.01 C57.944,43.01 57.908,43.008 57.873,43.004 C57.672,42.983 57.475,42.9 57.313,42.755 C56.901,42.387 56.866,41.754 57.234,41.343 C57.258,41.32 60.89,37.251 64.7,34.381 C64.822,34.289 64.945,34.198 65.068,34.109 C66.223,33.267 67.388,32.545 68.521,32.088 C69.238,31.801 69.948,31.614 70.666,31.612 L70.671,31.612 C71.157,31.612 71.653,31.706 72.108,31.934 C72.566,32.16 72.965,32.521 73.262,32.969 C73.855,33.873 74.095,35.06 74.1,36.631 C74.1,37.436 74.032,38.349 73.891,39.386 C73.797,40.089 73.536,40.731 73.158,41.272 C72.78,41.814 72.294,42.258 71.751,42.623 C71.071,43.079 70.301,43.422 69.484,43.69 C68.995,43.85 68.489,43.983 67.976,44.098 C65.24,44.7 62.23,44.738 60.53,44.817 C60.052,44.838 59.671,44.866 59.508,44.894 L59.448,44.905 C59.359,44.93 59.269,44.942 59.18,44.942" id="Fill-65" fill="#6B8B86"></path>
            <path d="M75.99,80.656 C70.377,80.656 64.199,79.684 58.025,77.227 L58.395,76.298 L58.903,77.159 L58.395,76.298 L58.025,77.227 C57.669,77.085 57.427,76.757 57.397,76.375 C57.368,75.994 57.556,75.631 57.886,75.437 C57.922,75.419 67.851,69.54 77.648,66.56 C80.92,65.568 84.179,64.892 87.11,64.89 C88.224,64.891 89.292,64.989 90.296,65.214 C92.483,65.493 94.231,65.917 95.603,66.476 C96.98,67.04 98,67.741 98.64,68.65 C99.065,69.252 99.294,69.957 99.291,70.661 C99.291,71.364 99.076,72.047 98.722,72.679 C98.367,73.314 97.872,73.91 97.261,74.479 C96.038,75.616 94.345,76.659 92.27,77.569 C88.12,79.384 82.428,80.654 75.99,80.656 M60.762,76.111 C66.008,77.922 71.213,78.656 75.99,78.656 L75.993,78.656 C80.041,78.656 83.782,78.127 86.964,77.285 C90.146,76.444 92.772,75.282 94.569,74.061 C95.768,73.252 96.587,72.41 96.977,71.704 C97.202,71.3 97.291,70.954 97.291,70.661 C97.288,70.366 97.212,70.103 97,69.795 C96.788,69.49 96.421,69.148 95.851,68.815 C94.713,68.145 92.781,67.539 89.997,67.192 L89.899,67.175 C89.059,66.982 88.121,66.89 87.11,66.89 L87.097,66.89 C84.644,66.89 81.765,67.439 78.82,68.298 C75.87,69.156 72.852,70.321 70.089,71.524 C66.162,73.233 62.753,75.019 60.762,76.111" id="Fill-66" fill="#688466"></path>
            <path d="M57.673,96.451 C57.648,96.451 57.624,96.45 57.599,96.448 C57.591,96.447 57.133,96.413 56.335,96.335 C56.486,94.407 56.609,92.437 56.708,90.458 C57.453,91.914 58.1,93.478 58.627,95.151 L57.673,95.451 L57.746,94.454 L57.673,95.451 L58.627,95.151 C58.726,95.467 58.662,95.812 58.457,96.072 C58.267,96.312 57.977,96.451 57.673,96.451 M54.345,96.119 C50.559,95.672 44.104,94.708 38.445,92.858 C35.565,91.912 32.883,90.743 30.826,89.23 C29.674,88.38 28.711,87.415 28.055,86.29 C26.328,84.044 25.483,82.054 25.475,80.253 C25.473,79.373 25.692,78.546 26.107,77.842 C26.52,77.136 27.116,76.561 27.823,76.119 C29.241,75.236 31.088,74.843 33.183,74.84 C37.345,74.846 42.555,76.425 47.332,79.742 C50.095,81.663 52.707,84.178 54.844,87.315 C54.798,88.51 54.744,89.707 54.682,90.9 C52.485,86.802 49.456,83.658 46.19,81.384 C41.752,78.29 36.862,76.84 33.205,76.84 L33.183,76.84 L33.171,76.84 C31.798,76.84 30.607,77.045 29.7,77.406 C28.785,77.77 28.175,78.269 27.833,78.853 C27.604,79.247 27.476,79.692 27.475,80.253 C27.466,81.395 28.07,83.056 29.678,85.119 L29.757,85.238 C30.629,86.795 32.6,88.254 35.171,89.444 C37.736,90.639 40.862,91.586 43.951,92.308 C47.931,93.241 51.852,93.808 54.49,94.123 C54.445,94.793 54.397,95.458 54.345,96.119" id="Fill-67" fill="#688466"></path>
            <path d="M53.699,109.866 C53.632,109.866 53.563,109.86 53.495,109.845 C52.954,109.733 52.607,109.203 52.719,108.662 C53.463,105.097 53.985,100.745 54.345,96.119 C54.397,95.458 54.445,94.793 54.49,94.123 C54.561,93.057 54.625,91.98 54.682,90.9 C54.744,89.707 54.798,88.51 54.844,87.315 C55.022,82.681 55.083,78.09 55.081,74.011 C55.081,69.101 54.995,64.927 54.922,62.293 C55.172,61.885 55.38,61.435 55.564,60.958 C55.827,60.262 56.038,59.495 56.207,58.686 C56.356,58.985 56.521,59.272 56.704,59.545 C56.749,59.612 56.795,59.678 56.843,59.744 C56.904,61.422 57.081,66.959 57.081,74.011 C57.08,79.014 56.992,84.769 56.708,90.458 C56.609,92.437 56.486,94.407 56.335,96.335 C55.97,100.992 55.439,105.4 54.677,109.07 C54.579,109.542 54.163,109.866 53.699,109.866" id="Fill-68" fill="#688466"></path>
            <path d="M54.922,62.293 C54.901,61.528 54.881,60.893 54.865,60.407 C54.841,59.689 54.825,59.302 54.825,59.301 C54.802,58.749 55.231,58.283 55.783,58.261 C55.797,58.26 55.811,58.26 55.825,58.26 C55.89,58.26 55.954,58.266 56.017,58.278 C56.077,58.416 56.141,58.552 56.207,58.686 C56.038,59.495 55.827,60.262 55.564,60.958 C55.38,61.435 55.172,61.885 54.922,62.293" id="Fill-69" fill="#79AA8B"></path>
            <path d="M56.843,59.744 C56.795,59.678 56.749,59.612 56.704,59.545 C56.521,59.272 56.356,58.985 56.207,58.686 C56.141,58.552 56.077,58.416 56.017,58.278 C56.461,58.365 56.804,58.747 56.823,59.219 C56.823,59.22 56.831,59.402 56.843,59.744" id="Fill-70" fill="#79AA8B"></path>
            <polyline id="Fill-71" fill="#C5373C" points="262.127 159.501 260.567 159.501 260.567 161.296 298.473 161.296 298.473 145.393 260.567 145.393 260.567 147.188 262.127 147.188 262.127 159.501"></polyline>
            <polygon id="Fill-72" fill="#E7EBCE" points="262.127 159.501 296.848 159.501 296.848 147.188 262.127 147.188"></polygon>
            <polygon id="Fill-73" fill="#F4F1E2" points="262.127 151.806 296.848 151.806 296.848 150.01 262.127 150.01"></polygon>
            <polygon id="Fill-74" fill="#F4F1E2" points="262.127 156.679 296.848 156.679 296.848 154.883 262.127 154.883"></polygon>
            <polyline id="Fill-75" fill="#4599AF" points="256.293 134.106 256.293 135.379 257.434 135.379 257.434 144.12 256.293 144.12 256.293 145.393 296.307 145.393 296.307 134.106 256.293 134.106"></polyline>
            <polygon id="Fill-76" fill="#FBF6DE" points="257.434 144.12 295.107 144.12 295.107 135.379 257.434 135.379"></polygon>
            <polygon id="Fill-77" fill="#FFFFFF" points="257.434 138.662 295.107 138.662 295.107 137.379 257.434 137.379"></polygon>
            <polyline id="Fill-78" fill="#FFFFFF" points="265.693 140.837 257.434 140.837 257.434 142.119 295.107 142.119 295.107 140.837 265.693 140.837"></polyline>
            <polyline id="Fill-79" fill="#C5373C" points="291.852 141.052 292.862 139.735 293.874 141.052 293.874 136.263 291.852 136.263 291.852 141.052"></polyline>
            <polyline id="Fill-80" fill="#F0C858" points="265.556 132.711 264.415 132.711 264.415 134.106 299.526 134.106 299.526 121.743 264.415 121.743 264.415 123.138 265.556 123.138 265.556 132.711"></polyline>
            <polygon id="Fill-81" fill="#FBF6DE" points="265.556 132.711 298.473 132.711 298.473 123.138 265.556 123.138"></polygon>
            <polygon id="Fill-82" fill="#FFFFFF" points="265.556 126.729 298.473 126.729 298.473 125.333 265.556 125.333"></polygon>
            <polygon id="Fill-83" fill="#FFFFFF" points="265.556 130.515 298.473 130.515 298.473 129.12 265.556 129.12"></polygon>
            <polyline id="Fill-84" fill="#A6CD66" points="262.011 120.891 260.567 120.891 260.567 121.743 298.473 121.743 298.473 114.211 260.567 114.211 260.567 115.063 262.011 115.063 262.011 120.891"></polyline>
            <polygon id="Fill-85" fill="#F4E8D1" points="262.011 120.891 297.338 120.891 297.338 115.063 262.011 115.063"></polygon>
            <polygon id="Fill-86" fill="#FFFCF8" points="262.011 117.248 297.338 117.248 297.338 116.397 262.011 116.397"></polygon>
            <polygon id="Fill-87" fill="#FFFCF8" points="262.011 119.557 297.338 119.557 297.338 118.706 262.011 118.706"></polygon>
            <path d="M132.898,68.094 C130.83,68.094 129.148,70.075 129.148,72.509 L129.148,162.236 C129.148,164.672 130.83,166.654 132.898,166.654 L198.791,166.654 C200.86,166.654 202.541,164.672 202.541,162.236 L202.541,72.509 C202.541,70.075 200.86,68.094 198.791,68.094 L132.898,68.094 Z M198.791,179.02 L132.898,179.02 C125.041,179.02 118.647,171.491 118.647,162.236 L118.647,72.509 C118.647,63.255 125.041,55.726 132.898,55.726 L198.791,55.726 C206.649,55.726 213.043,63.255 213.043,72.509 L213.043,162.236 C213.043,171.491 206.649,179.02 198.791,179.02 L198.791,179.02 Z" id="Fill-88" fill="#BA7050"></path>
            <path d="M150.295,179.02 C147.396,179.02 145.046,176.252 145.046,172.837 L145.046,61.836 C145.046,58.42 147.396,55.652 150.295,55.652 C153.193,55.652 155.545,58.42 155.545,61.836 L155.545,172.837 C155.545,176.252 153.193,179.02 150.295,179.02" id="Fill-89" fill="#BA7050"></path>
            <path d="M178.293,180.196 C175.395,180.196 173.044,177.429 173.044,174.013 L173.044,63.012 C173.044,59.597 175.395,56.829 178.293,56.829 C181.192,56.829 183.545,59.597 183.545,63.012 L183.545,174.013 C183.545,177.429 181.192,180.196 178.293,180.196" id="Fill-90" fill="#BA7050"></path>
            <path d="M204.263,152.827 C204.263,158.681 199.519,163.426 193.664,163.426 L146.629,163.426 C140.775,163.426 136.027,158.681 136.027,152.827 L136.027,112.98 C136.027,107.126 140.775,102.38 146.629,102.38 L193.664,102.38 C199.519,102.38 204.263,107.126 204.263,112.98 L204.263,152.827" id="Fill-91" fill="#2A334B"></path>
            <path d="M191.448,105.012 C191.448,116.778 181.913,126.315 170.146,126.315 C158.379,126.315 148.842,116.778 148.842,105.012 C148.842,93.246 158.379,83.708 170.146,83.708 C181.913,83.708 191.448,93.246 191.448,105.012" id="Fill-92" fill="#FFFFFF"></path>
            <polygon id="Fill-93" fill="#9B553C" points="68.08 214.179 303.932 214.179 303.932 161.929 68.08 161.929"></polygon>
            <path d="M313.216,161.929 C313.216,163.585 311.545,164.929 309.482,164.929 L62.529,164.929 C60.467,164.929 58.796,163.585 58.796,161.929 C58.796,160.272 60.467,158.929 62.529,158.929 L309.482,158.929 C311.545,158.929 313.216,160.272 313.216,161.929" id="Fill-94" fill="#A15E45"></path>
            <path d="M212.834,156.564 C212.834,158.811 211.013,160.633 208.767,160.633 L137.321,160.633 C135.076,160.633 133.252,158.811 133.252,156.564 C133.252,154.317 135.076,152.496 137.321,152.496 L208.767,152.496 C211.013,152.496 212.834,154.317 212.834,156.564" id="Fill-95" fill="#F4F1E2"></path>
            <path d="M206.497,76.191 C206.497,96.066 190.387,112.177 170.512,112.177 C150.636,112.177 134.527,96.066 134.527,76.191 C134.527,68.277 137.088,60.945 141.434,54.991 C147.97,46.034 158.569,40.205 170.512,40.205 C182.454,40.205 193.055,46.034 199.591,54.991 C203.938,60.945 206.497,68.277 206.497,76.191" id="Fill-96" fill="#F9D3A7"></path>
            <path d="M141.577,96.958 C136.738,97.603 132.292,94.203 131.646,89.364 C130.999,84.523 134.399,80.076 139.241,79.43 L141.577,96.958" id="Fill-97" fill="#F9D3A7"></path>
            <path d="M141.182,93.983 C137.985,94.41 135.046,92.164 134.618,88.966 C134.192,85.769 136.438,82.831 139.638,82.405 L141.182,93.983" id="Fill-98" fill="#E8BC8E"></path>
            <path d="M199.444,96.958 C204.285,97.603 208.731,94.203 209.377,89.364 C210.023,84.523 206.623,80.076 201.783,79.43 L199.444,96.958" id="Fill-99" fill="#F9D3A7"></path>
            <path d="M199.841,93.983 C203.038,94.41 205.977,92.164 206.404,88.966 C206.831,85.769 204.586,82.831 201.386,82.405 L199.841,93.983" id="Fill-100" fill="#E8BC8E"></path>
            <path d="M182.944,43.062 C182.944,50.131 177.214,55.86 170.146,55.86 C163.077,55.86 157.349,50.131 157.349,43.062 C157.349,40.248 158.26,37.639 159.804,35.523 C162.128,32.337 165.898,30.264 170.146,30.264 C174.393,30.264 178.164,32.337 180.487,35.523 C182.033,37.639 182.944,40.248 182.944,43.062" id="Fill-101" fill="#742A2B"></path>
            <path d="M186.483,43.951 C160.072,49.921 140.41,69.884 139.188,93.893 C136.223,88.664 134.527,82.621 134.527,76.191 C134.527,68.277 137.088,60.945 141.434,54.991 C147.97,46.034 158.569,40.205 170.512,40.205 C176.255,40.205 181.677,41.565 186.483,43.951" id="Fill-102" fill="#893739"></path>
            <path d="M154.541,43.951 C180.95,49.921 200.613,69.884 201.835,93.893 C204.8,88.664 206.496,82.621 206.496,76.191 C206.496,68.277 203.936,60.945 199.59,54.991 C193.054,46.034 182.453,40.205 170.512,40.205 C164.77,40.205 159.346,41.565 154.541,43.951" id="Fill-103" fill="#893739"></path>
            <path d="M199.591,54.991 C193.055,63.949 182.454,69.779 170.512,69.779 C158.569,69.779 147.97,63.949 141.434,54.991 C147.97,46.034 158.569,40.205 170.512,40.205 C182.454,40.205 193.055,46.034 199.591,54.991" id="Fill-104" fill="#893739"></path>
            <path d="M157.007,82.824 C157.007,84.044 156.018,85.034 154.798,85.034 C153.579,85.034 152.589,84.044 152.589,82.824 C152.589,81.605 153.579,80.617 154.798,80.617 C156.018,80.617 157.007,81.605 157.007,82.824" id="Fill-105" fill="#0A0A08"></path>
            <path d="M192.339,82.824 C192.339,84.044 191.351,85.034 190.131,85.034 C188.91,85.034 187.923,84.044 187.923,82.824 C187.923,81.605 188.91,80.617 190.131,80.617 C191.351,80.617 192.339,81.605 192.339,82.824" id="Fill-106" fill="#0A0A08"></path>
            <path d="M162.504,101.59 C162.544,101.609 167.017,104.102 172.726,104.106 C175.579,104.107 178.748,103.475 181.783,101.577 C182.018,101.431 182.089,101.123 181.943,100.888 C181.796,100.654 181.488,100.583 181.254,100.729 C178.4,102.511 175.434,103.106 172.726,103.106 C170.018,103.107 167.574,102.508 165.812,101.907 C164.931,101.606 164.22,101.306 163.733,101.082 C163.489,100.97 163.301,100.877 163.175,100.813 L163.033,100.74 L162.99,100.716 C162.748,100.582 162.444,100.669 162.31,100.911 C162.176,101.152 162.263,101.456 162.504,101.59" id="Fill-107" fill="#B72937"></path>
            <path d="M176.878,94.879 C177.548,96.387 176.746,97.621 175.096,97.621 L169.172,97.621 C167.521,97.621 166.687,96.373 167.316,94.848 L170.769,86.48 C171.398,84.956 172.461,84.941 173.132,86.449 L176.878,94.879" id="Fill-108" fill="#E8BC8E"></path>
            <path d="M139.284,106.245 C139.188,106.299 132.186,110.066 125.026,115.359 C121.442,118.015 117.815,121.038 114.926,124.327 C113.483,125.977 112.217,127.698 111.256,129.559 C110.304,131.415 109.634,133.453 109.629,135.677 C109.627,136.987 109.88,138.347 110.421,139.621 C110.89,140.736 111.57,141.776 112.407,142.7 C113.878,144.321 115.793,145.598 118.123,146.664 C121.628,148.257 126.129,149.411 132.019,150.219 C137.908,151.021 145.185,151.454 154.176,151.455 C155.721,151.455 157.317,151.442 158.965,151.416 C161.174,151.381 162.936,149.562 162.901,147.353 C162.866,145.144 161.047,143.382 158.838,143.417 C157.23,143.443 155.677,143.455 154.176,143.455 C146.574,143.455 140.321,143.132 135.27,142.562 C131.482,142.135 128.37,141.568 125.886,140.914 C124.024,140.424 122.517,139.885 121.347,139.341 C119.582,138.526 118.618,137.71 118.169,137.132 C117.939,136.839 117.821,136.605 117.743,136.386 C117.668,136.167 117.63,135.953 117.629,135.677 C117.624,135.136 117.815,134.291 118.37,133.218 C118.848,132.285 119.586,131.207 120.527,130.084 C122.173,128.113 124.432,126.014 126.878,124.036 C130.548,121.062 134.635,118.345 137.78,116.397 C139.352,115.422 140.691,114.637 141.629,114.1 C142.098,113.831 142.468,113.624 142.716,113.486 C142.84,113.417 142.935,113.366 142.996,113.332 L143.063,113.295 L143.08,113.287 C145.024,112.238 145.751,109.812 144.703,107.868 C143.654,105.923 141.228,105.196 139.284,106.245" id="Fill-109" fill="#2D3B57"></path>
            <path d="M197.384,112.922 L197.393,112.929 C197.655,113.131 203.399,117.657 208.934,123.523 C211.7,126.448 214.408,129.714 216.333,132.823 C217.296,134.375 218.062,135.883 218.562,137.247 C219.066,138.612 219.297,139.819 219.294,140.784 C219.294,141.314 219.23,141.774 219.112,142.192 C218.898,142.919 218.552,143.552 217.811,144.279 C217.254,144.818 216.455,145.392 215.323,145.947 C213.63,146.78 211.196,147.55 207.933,148.086 C204.672,148.626 200.591,148.938 195.617,148.938 C193.942,148.938 192.166,148.902 190.285,148.83 C188.078,148.744 186.219,150.465 186.134,152.672 C186.048,154.88 187.769,156.738 189.976,156.824 C191.952,156.9 193.83,156.938 195.617,156.938 C201.008,156.937 205.557,156.599 209.418,155.949 C212.314,155.46 214.825,154.796 217.013,153.935 C218.653,153.29 220.114,152.532 221.399,151.641 C223.324,150.312 224.857,148.651 225.856,146.754 C226.861,144.86 227.299,142.784 227.294,140.784 C227.291,138.572 226.797,136.439 226.034,134.388 C224.69,130.802 222.518,127.403 220.054,124.196 C216.353,119.398 211.953,115.058 208.453,111.865 C204.954,108.677 202.356,106.655 202.297,106.609 C200.554,105.252 198.041,105.566 196.684,107.309 C195.327,109.053 195.641,111.566 197.384,112.923" id="Fill-110" fill="#2D3B57"></path>
            <path d="M162.274,156.485 C162.51,157.496 161.885,158.504 160.873,158.741 C159.863,158.977 158.854,158.351 158.618,157.342 L151.994,129.075 C151.76,128.065 152.385,127.055 153.396,126.819 C154.406,126.582 155.416,127.208 155.649,128.218 L162.274,156.485" id="Fill-111" fill="#D43F3E"></path>
            <path d="M167.292,146.406 C167.292,152.017 162.743,156.564 157.135,156.564 C151.522,156.564 146.976,152.017 146.976,146.406 C146.976,140.796 151.522,136.249 157.135,136.249 C162.743,136.249 167.292,140.796 167.292,146.406" id="Fill-112" fill="#F9D3A7"></path>
            <path d="M201.486,149.348 C201.486,154.958 196.937,159.506 191.328,159.506 C185.717,159.506 181.169,154.958 181.169,149.348 C181.169,143.738 185.717,139.189 191.328,139.189 C196.937,139.189 201.486,143.738 201.486,149.348" id="Fill-113" fill="#F9D3A7"></path>
            <path d="M74.31,130.172 C74.31,121.294 76.27,113.284 79.409,107.644 L101.71,107.644 C104.85,113.284 106.81,121.294 106.81,130.172 C106.81,147.271 99.53,161.134 90.56,161.134 C81.589,161.134 74.31,147.271 74.31,130.172" id="Fill-114" fill="#FDF4C8"></path>
            <path d="M97.297,103.59 C97.54,103.341 97.74,103.057 97.889,102.746 C98.229,102.919 98.597,103.027 98.979,103.072 C99.002,103.17 99.028,103.268 99.061,103.365 C99.095,103.463 99.133,103.557 99.175,103.648 C98.873,103.937 98.635,104.278 98.466,104.654 C98.331,104.662 98.196,104.679 98.06,104.704 C97.952,104.438 97.809,104.182 97.623,103.944 C97.522,103.814 97.412,103.699 97.297,103.59 Z M99.67,110.871 C100.55,110.574 101.212,109.93 101.563,109.145 C101.843,109.128 102.126,109.078 102.405,108.983 C104.079,108.419 104.977,106.604 104.411,104.932 C104.379,104.835 104.341,104.74 104.3,104.649 C105.167,103.817 105.529,102.533 105.119,101.318 C104.71,100.105 103.642,99.303 102.448,99.169 C102.425,99.069 102.398,98.973 102.365,98.875 C101.801,97.203 99.987,96.305 98.313,96.87 C97.466,97.156 96.818,97.764 96.458,98.512 C95.719,98.136 94.836,98.045 93.987,98.331 C92.315,98.896 91.418,100.71 91.981,102.383 C92.155,102.894 92.446,103.333 92.813,103.681 C91.715,104.807 91.585,106.597 92.579,107.872 C93.34,108.849 94.553,109.26 95.69,109.048 C96.321,110.602 98.06,111.416 99.67,110.871 L99.67,110.871 Z" id="Fill-115" fill="#C93334"></path>
            <path d="M98.862,105.798 C97.929,106.113 96.916,105.611 96.601,104.679 C96.286,103.745 96.786,102.732 97.721,102.417 C98.654,102.102 99.665,102.604 99.98,103.537 C100.296,104.471 99.795,105.481 98.862,105.798" id="Fill-116" fill="#DBF0F4"></path>
            <path d="M73.768,107.237 C73.959,107.041 74.115,106.817 74.232,106.574 C74.499,106.71 74.789,106.795 75.089,106.83 L75.153,107.061 L75.242,107.283 C75.006,107.509 74.818,107.778 74.687,108.073 C74.58,108.079 74.474,108.093 74.367,108.113 C74.282,107.903 74.169,107.702 74.023,107.516 C73.944,107.414 73.857,107.323 73.768,107.237 Z M75.632,112.958 C76.323,112.725 76.844,112.218 77.119,111.601 C77.34,111.588 77.562,111.549 77.781,111.475 C79.096,111.031 79.801,109.605 79.357,108.292 L79.27,108.069 C79.951,107.415 80.235,106.406 79.913,105.452 C79.592,104.5 78.753,103.869 77.815,103.764 L77.75,103.532 C77.306,102.219 75.881,101.513 74.566,101.957 C73.9,102.182 73.392,102.659 73.108,103.247 C72.527,102.952 71.833,102.88 71.167,103.105 C69.854,103.549 69.148,104.975 69.592,106.288 C69.728,106.69 69.956,107.035 70.244,107.308 C69.382,108.193 69.28,109.599 70.061,110.602 C70.658,111.368 71.611,111.692 72.505,111.525 C73.001,112.746 74.366,113.386 75.632,112.958 L75.632,112.958 Z" id="Fill-117" fill="#CE557D"></path>
            <path d="M74.997,108.972 C74.264,109.22 73.469,108.825 73.221,108.092 C72.974,107.358 73.366,106.563 74.101,106.315 C74.834,106.067 75.629,106.462 75.876,107.195 C76.124,107.929 75.73,108.724 74.997,108.972" id="Fill-118" fill="#DBF0F4"></path>
            <path d="M91.305,112.496 C91.533,112.378 91.741,112.225 91.919,112.041 C92.117,112.242 92.352,112.405 92.61,112.525 L92.6,112.752 L92.612,112.977 C92.334,113.109 92.085,113.295 91.879,113.52 C91.781,113.493 91.683,113.474 91.581,113.46 C91.567,113.248 91.526,113.032 91.451,112.822 C91.411,112.708 91.359,112.601 91.305,112.496 Z M91.271,118.178 C91.96,118.175 92.576,117.876 93.007,117.405 C93.21,117.46 93.42,117.49 93.639,117.489 C94.948,117.483 96.006,116.417 95.999,115.106 L95.986,114.882 C96.792,114.498 97.348,113.679 97.344,112.729 C97.339,111.778 96.774,110.964 95.966,110.589 L95.977,110.363 C95.971,109.055 94.903,107.998 93.594,108.004 C92.931,108.007 92.332,108.283 91.903,108.726 C91.472,108.288 90.869,108.017 90.206,108.02 C88.897,108.025 87.84,109.093 87.846,110.401 C87.847,110.804 87.95,111.18 88.127,111.511 C87.09,112.046 86.58,113.275 86.981,114.407 C87.288,115.271 88.045,115.846 88.896,115.963 C88.977,117.204 90.01,118.185 91.271,118.178 L91.271,118.178 Z" id="Fill-119" fill="#E06789"></path>
            <path d="M91.89,114.418 C91.158,114.42 90.563,113.831 90.56,113.1 C90.557,112.369 91.146,111.773 91.877,111.77 C92.608,111.767 93.203,112.356 93.207,113.088 C93.21,113.817 92.62,114.414 91.89,114.418" id="Fill-120" fill="#DBF0F4"></path>
            <path d="M82.511,104.932 C82.769,104.669 82.98,104.367 83.139,104.038 C83.498,104.221 83.889,104.338 84.294,104.384 C84.318,104.487 84.347,104.59 84.382,104.694 C84.416,104.798 84.456,104.896 84.499,104.995 C84.182,105.3 83.929,105.663 83.751,106.061 C83.607,106.069 83.464,106.087 83.319,106.113 C83.205,105.832 83.053,105.56 82.856,105.308 C82.75,105.171 82.633,105.05 82.511,104.932 Z M85.027,112.651 C85.959,112.337 86.66,111.653 87.032,110.82 C87.33,110.804 87.629,110.751 87.927,110.649 C89.699,110.052 90.651,108.129 90.052,106.355 C90.017,106.252 89.977,106.153 89.934,106.055 C90.854,105.174 91.236,103.812 90.802,102.524 C90.367,101.238 89.237,100.389 87.971,100.245 C87.946,100.142 87.918,100.037 87.883,99.935 C87.285,98.162 85.362,97.21 83.589,97.81 C82.69,98.112 82.003,98.758 81.622,99.549 C80.839,99.151 79.901,99.055 79.003,99.358 C77.229,99.958 76.277,101.88 76.877,103.651 C77.06,104.197 77.369,104.66 77.759,105.027 C76.594,106.222 76.456,108.119 77.51,109.472 C78.315,110.507 79.602,110.941 80.808,110.718 C81.478,112.365 83.319,113.228 85.027,112.651 L85.027,112.651 Z" id="Fill-121" fill="#D93F41"></path>
            <path d="M84.17,107.272 C83.181,107.607 82.107,107.076 81.773,106.086 C81.438,105.097 81.97,104.023 82.959,103.689 C83.948,103.355 85.021,103.886 85.355,104.876 C85.69,105.866 85.159,106.938 84.17,107.272" id="Fill-122" fill="#DBF0F4"></path>
            <path d="M82.359,92.17 C82.593,91.932 82.784,91.658 82.928,91.359 C83.255,91.524 83.609,91.631 83.977,91.672 C83.999,91.767 84.025,91.861 84.057,91.955 C84.088,92.048 84.125,92.139 84.165,92.228 C83.876,92.505 83.645,92.834 83.484,93.195 C83.354,93.203 83.223,93.219 83.092,93.244 C82.988,92.987 82.852,92.74 82.673,92.512 C82.575,92.388 82.47,92.276 82.359,92.17 Z M84.643,99.177 C85.487,98.892 86.126,98.271 86.464,97.516 C86.732,97.5 87.006,97.453 87.275,97.361 C88.884,96.818 89.748,95.072 89.205,93.463 C89.173,93.368 89.137,93.278 89.097,93.19 C89.932,92.39 90.28,91.153 89.885,89.986 C89.491,88.818 88.465,88.047 87.314,87.916 C87.293,87.822 87.268,87.728 87.236,87.634 C86.692,86.024 84.946,85.162 83.337,85.705 C82.522,85.98 81.897,86.564 81.551,87.284 C80.841,86.923 79.99,86.836 79.175,87.111 C77.563,87.655 76.7,89.4 77.244,91.01 C77.41,91.502 77.691,91.924 78.045,92.258 C76.987,93.342 76.862,95.064 77.818,96.291 C78.55,97.23 79.718,97.627 80.813,97.423 C81.421,98.919 83.093,99.701 84.643,99.177 L84.643,99.177 Z" id="Fill-123" fill="#CE557D"></path>
            <path d="M83.865,94.295 C82.967,94.599 81.992,94.117 81.689,93.218 C81.386,92.32 81.868,91.346 82.767,91.042 C83.664,90.738 84.638,91.221 84.941,92.119 C85.244,93.019 84.763,93.991 83.865,94.295" id="Fill-124" fill="#DBF0F4"></path>
            <path d="M93.537,94.115 C93.771,93.877 93.963,93.604 94.105,93.304 C94.433,93.469 94.788,93.576 95.155,93.617 C95.178,93.712 95.203,93.807 95.235,93.9 C95.267,93.992 95.304,94.084 95.343,94.173 C95.054,94.449 94.823,94.779 94.663,95.141 C94.532,95.148 94.401,95.164 94.271,95.188 C94.167,94.933 94.029,94.685 93.851,94.457 C93.754,94.333 93.648,94.221 93.537,94.115 Z M95.82,101.122 C96.666,100.837 97.304,100.216 97.642,99.461 C97.911,99.444 98.184,99.397 98.453,99.306 C100.062,98.763 100.927,97.018 100.383,95.408 C100.351,95.313 100.314,95.223 100.273,95.135 C101.11,94.334 101.458,93.098 101.063,91.931 C100.67,90.764 99.643,89.991 98.493,89.861 C98.472,89.767 98.445,89.672 98.414,89.579 C97.87,87.97 96.124,87.106 94.515,87.649 C93.7,87.926 93.076,88.51 92.729,89.229 C92.019,88.868 91.168,88.781 90.353,89.056 C88.742,89.6 87.878,91.345 88.421,92.955 C88.588,93.447 88.869,93.869 89.223,94.203 C88.166,95.286 88.04,97.009 88.996,98.236 C89.729,99.175 90.896,99.572 91.989,99.368 C92.599,100.862 94.271,101.646 95.82,101.122 L95.82,101.122 Z" id="Fill-125" fill="#E06789"></path>
            <path d="M95.044,96.24 C94.145,96.544 93.171,96.062 92.867,95.163 C92.564,94.266 93.046,93.291 93.944,92.987 C94.843,92.684 95.816,93.166 96.12,94.064 C96.423,94.963 95.941,95.937 95.044,96.24" id="Fill-126" fill="#DBF0F4"></path>
            <path d="M104.216,112.561 C104.45,112.322 104.643,112.048 104.785,111.748 C105.112,111.914 105.467,112.021 105.834,112.063 C105.857,112.156 105.884,112.251 105.915,112.345 C105.946,112.438 105.982,112.528 106.022,112.618 C105.733,112.895 105.502,113.225 105.343,113.585 C105.211,113.594 105.081,113.608 104.949,113.633 C104.846,113.378 104.708,113.13 104.529,112.902 C104.434,112.778 104.327,112.666 104.216,112.561 Z M106.5,119.567 C107.346,119.282 107.982,118.662 108.32,117.906 C108.591,117.89 108.863,117.843 109.133,117.751 C110.74,117.208 111.606,115.463 111.063,113.853 C111.03,113.758 110.994,113.668 110.954,113.579 C111.79,112.779 112.138,111.543 111.743,110.376 C111.349,109.209 110.322,108.437 109.172,108.307 C109.15,108.212 109.125,108.117 109.094,108.023 C108.55,106.415 106.804,105.551 105.195,106.095 C104.38,106.37 103.756,106.955 103.409,107.674 C102.698,107.313 101.848,107.226 101.032,107.501 C99.422,108.045 98.557,109.79 99.102,111.399 C99.267,111.893 99.548,112.314 99.902,112.647 C98.845,113.731 98.72,115.454 99.676,116.682 C100.408,117.62 101.574,118.018 102.669,117.813 C103.278,119.308 104.95,120.091 106.5,119.567 L106.5,119.567 Z" id="Fill-127" fill="#D93F41"></path>
            <path d="M105.724,114.685 C104.824,114.988 103.851,114.507 103.547,113.608 C103.243,112.711 103.725,111.736 104.624,111.433 C105.522,111.129 106.496,111.611 106.8,112.51 C107.103,113.407 106.621,114.382 105.724,114.685" id="Fill-128" fill="#DBF0F4"></path>
            <path d="M104.686,96.751 C104.802,96.632 104.898,96.495 104.971,96.347 C105.133,96.429 105.31,96.482 105.493,96.503 L105.534,96.646 L105.588,96.781 C105.443,96.919 105.329,97.085 105.248,97.265 L105.051,97.287 C104.999,97.161 104.931,97.037 104.842,96.923 L104.686,96.751 Z M105.826,100.254 C106.249,100.111 106.568,99.802 106.736,99.424 C106.871,99.417 107.008,99.393 107.142,99.348 C107.946,99.075 108.378,98.202 108.106,97.397 L108.052,97.262 C108.471,96.861 108.644,96.244 108.447,95.661 C108.25,95.077 107.736,94.691 107.162,94.626 L107.123,94.485 C106.851,93.681 105.979,93.249 105.174,93.521 C104.767,93.658 104.454,93.951 104.281,94.31 C103.927,94.129 103.501,94.087 103.094,94.224 C102.289,94.495 101.857,95.367 102.129,96.172 C102.212,96.418 102.353,96.629 102.529,96.796 C102.001,97.337 101.938,98.199 102.416,98.812 C102.782,99.281 103.365,99.479 103.912,99.377 C104.217,100.125 105.052,100.516 105.826,100.254 L105.826,100.254 Z" id="Fill-129" fill="#D93F41"></path>
            <path d="M105.438,97.813 C104.989,97.966 104.502,97.725 104.351,97.275 C104.199,96.827 104.439,96.341 104.89,96.189 C105.338,96.037 105.823,96.278 105.976,96.727 C106.127,97.176 105.887,97.662 105.438,97.813" id="Fill-130" fill="#DBF0F4"></path>
            <path d="M75.133,97.494 C75.249,97.375 75.346,97.238 75.418,97.09 C75.58,97.172 75.757,97.226 75.94,97.246 L75.981,97.389 L76.035,97.524 C75.891,97.662 75.776,97.828 75.695,98.008 L75.498,98.03 C75.446,97.904 75.378,97.78 75.289,97.666 L75.133,97.494 Z M76.273,100.997 C76.696,100.854 77.016,100.545 77.184,100.167 C77.318,100.16 77.455,100.136 77.589,100.091 C78.394,99.818 78.825,98.945 78.554,98.141 L78.499,98.005 C78.918,97.604 79.091,96.987 78.895,96.404 C78.697,95.82 78.184,95.435 77.609,95.369 L77.57,95.229 C77.298,94.424 76.426,93.992 75.621,94.264 C75.214,94.401 74.901,94.694 74.729,95.053 C74.374,94.872 73.948,94.83 73.541,94.967 C72.736,95.238 72.305,96.11 72.576,96.915 C72.659,97.161 72.8,97.372 72.977,97.539 C72.448,98.08 72.386,98.942 72.863,99.555 C73.229,100.024 73.813,100.223 74.359,100.12 C74.664,100.868 75.499,101.259 76.273,100.997 L76.273,100.997 Z" id="Fill-131" fill="#C93334"></path>
            <path d="M75.885,98.557 C75.437,98.709 74.949,98.468 74.798,98.019 C74.646,97.57 74.887,97.084 75.337,96.933 C75.785,96.78 76.271,97.021 76.423,97.47 C76.574,97.919 76.334,98.405 75.885,98.557" id="Fill-132" fill="#DBF0F4"></path>
            <path d="M248.35,147.414 C246.259,145.074 242.476,144.529 239.164,145.905 C233.246,144.987 230.248,149.569 231.235,154.229 C232.224,158.89 237.178,161.787 242.301,160.701 C247.422,159.615 250.775,154.958 249.787,150.297 C249.53,149.086 249.031,148.14 248.35,147.414" id="Fill-133" fill="#DD433D"></path>
            <path d="M239.448,147.25 C239.216,147.299 238.979,147.146 238.907,146.893 C238.866,146.752 237.944,143.432 239.893,141.598 C240.079,141.423 240.37,141.447 240.541,141.659 C240.711,141.87 240.695,142.184 240.509,142.361 C238.999,143.781 239.775,146.601 239.783,146.629 C239.858,146.895 239.724,147.168 239.481,147.241 L239.448,147.25" id="Fill-134" fill="#A15C60"></path>
            <path d="M244.042,142.778 C245.635,143.894 247.78,147.403 246.976,148.805 C246.17,150.206 242.383,149.555 240.789,148.438 C239.197,147.321 238.633,145.148 239.531,143.586 C240.429,142.023 242.448,141.661 244.042,142.778" id="Fill-135" fill="#9BBF62"></path>
        </g>
    </g>
</svg>