<svg width="410" height="175" viewBox="0 0 410 175" xmlns="http://www.w3.org/2000/svg"><g fill="none" fill-rule="evenodd"><path d="M365.595 98.892c0 24.853-20.148 45-45 45-24.853 0-45-20.147-45-45s20.147-45 45-45c24.852 0 45 20.147 45 45z" fill="#FFF"/><path d="M295.975 88.88v.032h4.369v-.033c.022-3 .996-5.436 2.923-7.308 1.927-1.873 4.424-2.809 7.49-2.809 2.912 0 5.36.904 7.341 2.71 1.982 1.807 2.973 4.035 2.973 6.685 0 2.036-.548 3.99-1.643 5.863-1.095 1.872-3.306 4.582-6.635 8.13l-16.555 17.902v3.153h30.515v-4.073H302.71v-.394l12.81-13.665c3.898-4.16 6.548-7.434 7.95-9.821 1.401-2.387 2.102-4.807 2.102-7.26 0-3.722-1.413-6.848-4.237-9.378-2.825-2.529-6.318-3.793-10.479-3.793-4.292 0-7.834 1.319-10.626 3.958-2.792 2.638-4.21 6.005-4.254 10.1zm45.62 34.325h4.467V75.806h-4.467c-.482.285-1.358.86-2.628 1.725a362.3 362.3 0 0 0-4.106 2.84 1152.14 1152.14 0 0 1-3.925 2.744c-1.15.799-1.856 1.286-2.12 1.461v4.763c.417-.263 1.222-.81 2.415-1.642a690.273 690.273 0 0 0 3.925-2.76 321.093 321.093 0 0 1 3.86-2.693c1.15-.788 1.867-1.259 2.152-1.412h.427v42.373z" fill="#08E"/><path d="M90.71 112.667H63.598V62.452H50.843v60.942h39.868v-10.727zm24.981-27.578c-2.843 0-5.187.936-7.031 2.809-1.845 1.872-2.88 4.37-3.104 7.496h19.807c-.113-3.182-1.035-5.694-2.767-7.539-1.731-1.844-4.033-2.766-6.905-2.766zm9.967 25.171h11.445c-.929 4.336-3.287 7.778-7.074 10.326-3.786 2.548-8.524 3.822-14.21 3.822-7.096 0-12.636-2.119-16.62-6.356-3.984-4.237-5.975-10.129-5.975-17.675 0-7.545 2.006-13.514 6.018-17.906 4.012-4.392 9.48-6.589 16.407-6.589 6.87 0 12.227 2.077 16.07 6.23 3.843 4.153 5.765 9.903 5.765 17.252v3.674h-31.97v.634c.084 3.547 1.076 6.356 2.977 8.425 1.9 2.07 4.455 3.104 7.665 3.104 2.421 0 4.441-.43 6.06-1.288 1.62-.859 2.767-2.076 3.442-3.653zm35.286 4.857c2.843 0 5.215-.83 7.116-2.492 1.9-1.661 2.85-3.702 2.85-6.124v-3.505l-9.375.633c-5.237.366-7.855 2.281-7.855 5.744 0 1.774.675 3.175 2.027 4.202 1.351 1.028 3.097 1.542 5.237 1.542zm-4.055 8.995c-4.476 0-8.137-1.267-10.98-3.8-2.844-2.535-4.266-5.927-4.266-10.179 0-8.643 6.011-13.303 18.034-13.979l11.234-.676v-3.843c0-4.195-2.605-6.292-7.814-6.292-2.224 0-4.054.38-5.49 1.14-1.436.76-2.407 1.858-2.914 3.294h-11.318c.394-4.28 2.435-7.665 6.124-10.157 3.688-2.492 8.446-3.738 14.274-3.738 6.166 0 10.924 1.387 14.275 4.16 3.35 2.774 5.026 6.638 5.026 11.593v31.76h-11.952v-6.124h-.76c-1.183 2.14-2.97 3.815-5.364 5.025-2.393 1.211-5.096 1.816-8.109 1.816zm32.863-.718h12.29V97.38c0-3.266 1.049-5.842 3.146-7.729 2.098-1.886 4.822-2.83 8.172-2.83 1.014 0 2.119.071 3.316.212 1.196.14 2.034.31 2.512.507V76.685c-.534-.17-1.26-.303-2.175-.401a24.671 24.671 0 0 0-2.64-.148c-2.955 0-5.532.774-7.728 2.323-2.196 1.548-3.604 3.49-4.223 5.828h-.76v-7.391h-11.91v46.498zm34.23 0h12.29v-26.86c0-3.153.823-5.673 2.47-7.56 1.647-1.886 3.892-2.829 6.736-2.829 2.928 0 5.082.845 6.462 2.534 1.38 1.69 2.07 4.181 2.07 7.475v27.24h12.331v-30.07c0-5.574-1.358-9.875-4.075-12.902-2.717-3.026-6.666-4.54-11.847-4.54-3.435 0-6.32.76-8.657 2.281-2.337 1.52-4.04 3.59-5.11 6.208h-.76v-7.475h-11.91v46.498z" fill="#FFF"/><path d="M361.065 58.6l-2.942 11.573c-.43 1.687-1.894 2.909-4.403 3.67-2.51.763-5.682 1-9.521.7-3.832-.296-7.837-1.103-12.016-2.421-4.17-1.315-7.914-2.951-11.23-4.908-3.31-1.955-5.783-3.962-7.399-6.034-1.618-2.064-2.114-3.913-1.501-5.533l4.228-11.167 18.604 13.027c.47.335 1.02.6 1.646.798a5.867 5.867 0 0 0 1.805.29l22.729.005zm21.951-3.104c-.173.55-.553.84-1.147.866l-44.294-.043a1.516 1.516 0 0 1-.366-.079 1.471 1.471 0 0 1-.344-.145l-21.122-14.807c-1.288.486-2.564 1.554-3.819 3.204-1.255 1.65-2.336 3.663-3.251 6.034 1.242 1.34 1.582 2.889 1.03 4.64-.523 1.658-1.62 2.717-3.304 3.19l-2.823 16.241c-.056.355-.251.619-.57.806a1.128 1.128 0 0 1-.989.126l-6.911-2.18a1.128 1.128 0 0 1-.738-.669c-.154-.337-.16-.673-.005-.987l7.003-14.924c-1.1-1.35-1.396-2.858-.876-4.508.552-1.75 1.75-2.833 3.602-3.254 1.828-4.883 4.252-8.47 7.273-10.764l-10.806-7.528c-.463-.36-.616-.817-.443-1.367.174-.55.553-.84 1.148-.866l44.293.043c.101.004.23.036.366.078.144.046.26.092.345.146l36.308 25.37c.469.372.614.827.44 1.377z" fill="#0085F1" fill-rule="nonzero"/><path d="M359.98 56.144l-2.937 11.555c-.429 1.685-1.89 2.905-4.396 3.665-2.506.761-5.673.998-9.507.699-3.826-.296-7.825-1.102-11.998-2.418-4.164-1.313-7.902-2.946-11.214-4.9-3.304-1.953-5.774-3.957-7.387-6.026-1.617-2.06-2.112-3.907-1.5-5.525l4.222-11.15 18.577 13.008c.47.334 1.018.6 1.643.797a5.859 5.859 0 0 0 1.803.29l22.695.005zm21.92-3.1c-.173.549-.553.838-1.146.864l-44.228-.043c-.1-.004-.23-.035-.365-.078a1.469 1.469 0 0 1-.344-.145l-21.09-14.785c-1.287.486-2.56 1.551-3.814 3.2-1.253 1.647-2.333 3.656-3.246 6.024 1.24 1.339 1.579 2.885 1.028 4.633-.522 1.656-1.617 2.713-3.298 3.186l-2.82 16.217c-.056.354-.25.618-.57.805a1.126 1.126 0 0 1-.986.125l-6.901-2.176a1.126 1.126 0 0 1-.737-.668c-.154-.337-.16-.673-.005-.986l6.993-14.902c-1.098-1.349-1.394-2.854-.875-4.5.551-1.75 1.747-2.83 3.597-3.25 1.825-4.876 4.246-8.459 7.262-10.749l-10.79-7.516c-.462-.36-.615-.816-.442-1.365.173-.55.552-.838 1.145-.865l44.228.043c.101.004.23.036.366.078.143.046.259.091.344.146L381.46 51.67c.468.37.613.825.44 1.374z" fill-rule="nonzero" fill="#FFF"/></g></svg>