<?xml version="1.0" encoding="UTF-8"?>
<svg width="332px" height="119px" viewBox="0 0 332 119" version="1.1" xmlns="http://www.w3.org/2000/svg" xmlns:xlink="http://www.w3.org/1999/xlink">
    <!-- Generator: Sketch 43.2 (39069) - http://www.bohemiancoding.com/sketch -->
    <title>Page 1</title>
    <desc>Created with Sketch.</desc>
    <defs></defs>
    <g id="Page-1" stroke="none" stroke-width="1" fill="none" fill-rule="evenodd">
        <g fill="#FFFFFF">
            <path d="M39.8678,87.5264 L12.7543,87.5264 L12.7543,37.3116 L0,37.3116 L0,98.2536 L39.8678,98.2536 L39.8678,87.5264 Z M64.8483,59.9484 C62.0046,59.9484 59.6607,60.8845 57.8165,62.7569 C55.9723,64.6292 54.9376,67.128 54.7124,70.2532 L74.5196,70.2532 C74.407,67.0716 73.4849,64.5588 71.7533,62.7146 C70.0218,60.8705 67.7201,59.9484 64.8483,59.9484 Z M74.8152,85.1192 L86.2603,85.1192 C85.3312,89.4551 82.9732,92.897 79.1863,95.4451 C75.3994,97.9931 70.6623,99.2672 64.975,99.2672 C57.8798,99.2672 52.3403,97.1485 48.3563,92.9111 C44.3724,88.6737 42.3804,82.7823 42.3804,75.2367 C42.3804,67.691 44.3864,61.7222 48.3986,57.33 C52.4107,52.9377 57.8798,50.7416 64.806,50.7416 C71.6759,50.7416 77.0324,52.8181 80.8756,56.971 C84.7188,61.1239 86.6404,66.8745 86.6404,74.2231 L86.6404,77.8973 L54.6701,77.8973 L54.6701,78.5308 C54.7546,82.0784 55.7471,84.8869 57.6476,86.9563 C59.548,89.0257 62.1031,90.0604 65.3128,90.0604 C67.7342,90.0604 69.7543,89.631 71.3732,88.7723 C72.9922,87.9136 74.1395,86.6959 74.8152,85.1192 Z M110.1,89.9759 C112.944,89.9759 115.316,89.1454 117.217,87.4842 C119.117,85.823 120.067,83.7818 120.067,81.3604 L120.067,77.8551 L110.692,78.4886 C105.455,78.8546 102.836,80.7692 102.836,84.2323 C102.836,86.0061 103.512,87.4068 104.864,88.4344 C106.215,89.4621 107.961,89.9759 110.1,89.9759 Z M106.046,98.9715 C101.569,98.9715 97.9093,97.7046 95.0656,95.1706 C92.2219,92.6366 90.8001,89.2439 90.8001,84.9925 C90.8001,76.3488 96.8112,71.6891 108.833,71.0134 L120.067,70.3377 L120.067,66.4945 C120.067,62.2993 117.463,60.2018 112.254,60.2018 C110.03,60.2018 108.2,60.5819 106.764,61.3421 C105.328,62.1023 104.357,63.2003 103.85,64.6362 L92.5316,64.6362 C92.9258,60.3566 94.967,56.971 98.6554,54.4792 C102.344,51.9875 107.102,50.7416 112.93,50.7416 C119.096,50.7416 123.854,52.1283 127.205,54.9016 C130.555,57.6749 132.23,61.5391 132.23,66.4945 L132.23,98.2536 L120.279,98.2536 L120.279,92.1298 L119.518,92.1298 C118.336,94.2696 116.548,95.9448 114.155,97.1555 C111.762,98.3662 109.059,98.9715 106.046,98.9715 Z M138.909,98.2536 L151.199,98.2536 L151.199,72.2381 C151.199,68.9721 152.248,66.3959 154.345,64.5095 C156.443,62.6231 159.167,61.6799 162.517,61.6799 C163.531,61.6799 164.636,61.7503 165.832,61.8911 C167.029,62.0319 167.867,62.2008 168.345,62.3979 L168.345,51.5441 C167.81,51.3751 167.085,51.2414 166.17,51.1428 C165.255,51.0443 164.375,50.995 163.531,50.995 C160.574,50.995 157.998,51.7693 155.802,53.3178 C153.606,54.8664 152.198,56.8091 151.579,59.146 L150.819,59.146 L150.819,51.7552 L138.909,51.7552 L138.909,98.2536 Z M173.139,98.2536 L185.428,98.2536 L185.428,71.3935 C185.428,68.2401 186.252,65.7202 187.899,63.8338 C189.546,61.9474 191.791,61.0042 194.635,61.0042 C197.563,61.0042 199.717,61.8489 201.097,63.5382 C202.476,65.2275 203.166,67.7192 203.166,71.0134 L203.166,98.2536 L215.498,98.2536 L215.498,68.1838 C215.498,62.609 214.14,58.3084 211.423,55.2817 C208.706,52.255 204.757,50.7416 199.576,50.7416 C196.141,50.7416 193.255,51.5018 190.919,53.0222 C188.582,54.5426 186.878,56.612 185.808,59.2304 L185.048,59.2304 L185.048,51.7552 L173.139,51.7552 L173.139,98.2536 Z" id="Fill-1"></path>
            <path d="M261.595,29.4885 L261.21,30.5059 C260.597,32.1262 261.092,33.9752 262.711,36.0387 C264.327,38.1107 266.8,40.1182 270.109,42.0729 C273.426,44.0301 277.17,45.6663 281.34,46.9812 C285.519,48.2988 289.524,49.1059 293.356,49.4025 C297.195,49.7017 300.367,49.4648 302.877,48.7029 C304.217,48.2959 305.259,47.7577 306.005,47.0874 C311.503,54.5499 314.751,63.7711 314.751,73.751 C314.751,98.6037 294.604,118.751 269.751,118.751 C244.899,118.751 224.751,98.6037 224.751,73.751 C224.751,56.1205 234.89,40.858 249.656,33.4765 L243.52,46.552 C243.366,46.866 243.371,47.2025 243.525,47.5394 C243.663,47.871 243.907,48.0971 244.263,48.2091 L251.174,50.3882 C251.529,50.5003 251.86,50.4556 252.162,50.2627 C252.482,50.0751 252.677,49.8111 252.733,49.4567 L255.556,33.2155 C257.221,32.7475 258.311,31.7079 258.841,30.0829 C259.748,29.8569 260.667,29.6584 261.595,29.4885 Z M245.132,63.7386 L245.132,63.7715 L249.501,63.7715 L249.501,63.7386 C249.523,60.7385 250.497,58.3023 252.424,56.43 C254.351,54.5577 256.848,53.6215 259.913,53.6215 C262.826,53.6215 265.273,54.5248 267.255,56.3314 C269.237,58.1381 270.228,60.3662 270.228,63.016 C270.228,65.0525 269.68,67.007 268.585,68.8793 C267.49,70.7516 265.279,73.4615 261.95,77.0091 L245.395,94.9111 L245.395,98.0645 L275.91,98.0645 L275.91,93.9914 L251.866,93.9914 L251.866,93.5972 L264.676,79.9326 C268.574,75.7718 271.224,72.498 272.626,70.1111 C274.027,67.7241 274.728,65.3044 274.728,62.8517 C274.728,59.129 273.315,56.003 270.49,53.4737 C267.665,50.9444 264.173,49.6798 260.012,49.6798 C255.72,49.6798 252.178,50.9991 249.386,53.6379 C246.594,56.2767 245.176,59.6436 245.132,63.7386 Z M295.219,50.6652 L290.751,50.6652 C290.269,50.9505 289.393,51.5251 288.124,52.3897 C286.854,53.2547 285.485,54.2018 284.018,55.231 C282.55,56.2603 281.242,57.1745 280.092,57.9738 C278.943,58.7731 278.236,59.2604 277.974,59.4356 L277.974,64.1985 C278.39,63.9357 279.195,63.3882 280.388,62.5561 C281.581,61.7239 282.89,60.8042 284.313,59.7969 C285.737,58.7895 287.023,57.8917 288.173,57.1034 C289.323,56.315 290.04,55.8442 290.324,55.6909 L290.751,55.6909 L290.751,98.0645 L295.219,98.0645 L295.219,50.6652 Z M280.847,30.1296 C283.977,30.9231 286.975,32.0445 289.804,33.4551 L287.493,33.4546 C286.915,33.4584 286.313,33.3616 285.687,33.1642 C285.061,32.9669 284.513,32.7009 284.042,32.3663 L280.847,30.1296 Z" id="Fill-2"></path>
            <path d="M309.138,31.0029 L306.2,42.5579 C305.771,44.2428 304.309,45.4628 301.803,46.2235 C299.298,46.9843 296.131,47.2209 292.296,46.9221 C288.471,46.626 284.472,45.8201 280.299,44.5044 C276.135,43.1914 272.396,41.5577 269.084,39.6034 C265.781,37.6517 263.311,35.6471 261.698,33.5782 C260.081,31.5177 259.586,29.6715 260.198,28.0536 L264.42,16.903 L282.996,29.9113 C283.467,30.2453 284.015,30.5109 284.64,30.708 C285.265,30.9051 285.866,31.0017 286.443,30.9979 L309.138,31.0029 Z M331.056,27.9029 C330.883,28.4519 330.504,28.741 329.911,28.7675 L285.683,28.7246 C285.582,28.7206 285.453,28.6891 285.318,28.6465 C285.174,28.6012 285.058,28.5555 284.973,28.5008 L263.883,13.716 C262.597,14.202 261.323,15.268 260.07,16.916 C258.817,18.563 257.737,20.5727 256.824,22.9406 C258.064,24.2789 258.403,25.8252 257.852,27.5737 C257.33,29.2293 256.235,30.2864 254.553,30.7592 L251.734,46.9762 C251.678,47.3301 251.484,47.5938 251.164,47.781 C250.862,47.9737 250.532,48.0182 250.178,47.9064 L243.277,45.7305 C242.922,45.6186 242.677,45.3929 242.54,45.0618 C242.386,44.7254 242.381,44.3893 242.535,44.0759 L249.527,29.1745 C248.43,27.8255 248.134,26.3205 248.653,24.6734 C249.204,22.9249 250.399,21.8437 252.25,21.4242 C254.075,16.548 256.496,12.965 259.511,10.675 L248.722,3.159 C248.26,2.8 248.106,2.343 248.28,1.794 C248.453,1.245 248.832,0.956 249.425,0.929 L293.653,0.972 C293.754,0.976 293.883,1.008 294.019,1.05 C294.162,1.096 294.278,1.141 294.363,1.196 L330.617,26.5291 C331.085,26.8996 331.23,27.3538 331.056,27.9029 Z" id="Fill-3"></path>
        </g>
    </g>
</svg>