<svg xmlns="http://www.w3.org/2000/svg" width="91" height="91" viewBox="0 0 91 91">
  <g fill="none">
    <path fill="#08E" d="M90.594526,45.8917934 C90.594526,70.744535 70.447291,90.891793 45.594472,90.891793 C20.74176,90.891793 0.594526,70.744535 0.594526,45.8917934 C0.594526,21.0390519 20.74176,0.8917934 45.594472,0.8917934 C70.447291,0.8917934 90.594526,21.0390519 90.594526,45.8917934 Z"/>
    <path fill="#FFF" d="M20.975075,35.8794019 L20.975075,35.9122497 L25.343827,35.9122497 L25.343827,35.8794019 C25.365725,32.8792918 26.340199,30.4431075 28.267277,28.570776 C30.194355,26.6984445 32.69076,25.7622928 35.756566,25.7622928 C38.669081,25.7622928 41.116215,26.6655971 43.098039,28.4722327 C45.079864,30.2788684 46.070761,32.507019 46.070761,35.1567513 C46.070761,37.1933224 45.523304,39.1477444 44.428374,41.0200759 C43.333443,42.8924074 41.121716,45.6023203 37.793127,49.149896 L21.237857,67.051923 L21.237857,70.205308 L51.753423,70.205308 L51.753423,66.132186 L27.708865,66.132186 L27.708865,65.738013 L40.51949,52.073346 C44.417444,47.912609 47.067136,44.6388158 48.468648,42.2518668 C49.870159,39.8649179 50.570904,37.4451573 50.570904,34.9925125 C50.570904,31.2697481 49.158465,28.1437678 46.333543,25.6144779 C43.508622,23.0851879 40.015846,21.8205619 35.855109,21.8205619 C31.562981,21.8205619 28.020933,23.1399336 25.22886,25.7787167 C22.436786,28.4174997 21.018872,31.7843611 20.975075,35.8794019 Z M66.594597,70.205308 L71.061892,70.205308 L71.061892,22.8059946 L66.594597,22.8059946 C66.112827,23.0906766 65.236896,23.6655066 63.966776,24.5305019 C62.696656,25.3954971 61.328014,26.342598 59.860806,27.3718329 C58.393599,28.4010677 57.085177,29.3153212 55.9355,30.1146206 C54.785822,30.91392 54.079603,31.4011569 53.816819,31.5763458 L53.816819,36.3392705 C54.232893,36.0764872 55.037655,35.52903 56.231129,34.6968827 C57.424604,33.8647354 58.733026,32.9450074 60.156436,31.9376711 C61.579846,30.9303348 62.866371,30.0325051 64.016048,29.244155 C65.165725,28.4558049 65.882894,27.9849918 66.167576,27.8317015 L66.594597,27.8317015 L66.594597,70.205308 Z"/>
  </g>
</svg>
